<?xml version="1.0" encoding="UTF-8" standalone="no"?>
<!DOCTYPE svg PUBLIC "-//W3C//DTD SVG 1.1//EN" "http://www.w3.org/Graphics/SVG/1.1/DTD/svg11.dtd">
<svg width="100%" height="100%" viewBox="0 0 548 445" version="1.1" xmlns="http://www.w3.org/2000/svg" xmlns:xlink="http://www.w3.org/1999/xlink" xml:space="preserve" xmlns:serif="http://www.serif.com/" style="fill-rule:evenodd;clip-rule:evenodd;stroke-linejoin:round;stroke-miterlimit:2;">
    <g transform="matrix(1,0,0,1,-170.379,-196.241)">
        <path d="M672.018,425.795C667.201,418.876 661.285,412.781 654.306,407.935C639.196,397.441 619.2,392.347 609.579,376.667C601.115,362.876 603.534,345.159 607.765,329.541C611.997,313.923 617.817,297.972 615.243,281.997C610.997,255.648 585.703,238.295 561.334,227.414C465.488,184.614 301.597,205.6 236.819,286.356C226.822,298.818 206.219,324.502 206.44,359.876C206.527,373.851 208.237,387.794 214.439,400.503C228.592,429.503 260.394,440.745 255.179,478.077C253.338,491.255 248.282,503.731 244.413,516.463C238.381,536.312 235.815,559.142 251.337,575.365C265.236,589.891 286.589,591.703 305.504,589.58C387.19,580.412 469.261,575.208 551.295,570.006C567.206,568.998 583.118,567.989 599.029,566.98C604.252,566.649 610.118,566.532 613.955,570.092C617.792,573.651 616.275,582.031 611.045,581.823C632.082,587.185 651.606,569.002 663.303,550.714C677.522,528.483 687.6,502.864 687.501,476.475C687.433,458.582 682.162,440.363 672.018,425.795Z" style="fill:url(#_Linear1);"/>
        <path d="M432.922,221.185C439.301,225.178 447.866,223.178 454.758,226.201C465.823,231.054 467.634,245.509 471.865,256.826C476.295,268.677 485.045,278.859 496.094,285.02C505.802,290.434 516.851,292.559 527.954,292.078C527.002,288.551 526.379,284.835 526.132,280.928C525.571,272.049 528.235,261.93 522.578,255.063C517.357,248.724 507.372,248.46 501.553,242.664C493.321,234.464 497.584,220.905 495.98,209.206C473.037,205.844 448.772,204.923 424.46,206.41C425.773,212.304 427.947,218.072 432.922,221.185Z" style="fill:url(#_Linear2);"/>
        <path d="M341.867,250.561C363.015,248.565 383.268,238.267 397.339,222.354C401.135,218.062 404.537,213.164 406.824,207.911C384.322,210.369 362.045,214.892 341.008,221.457C336.005,231.774 329.604,241.415 322.056,250.05C328.61,250.996 335.271,251.184 341.867,250.561Z" style="fill:url(#_Linear3);"/>
        <path d="M322.056,250.05C312.24,248.632 302.666,245.51 293.912,240.854C271.113,252.946 251.44,268.128 236.819,286.356C235.227,288.339 233.367,290.66 231.364,293.299C254.777,292.348 277.929,284.896 297.389,271.826C306.523,265.692 314.815,258.332 322.056,250.05Z" style="fill:url(#_Linear4);"/>
        <path d="M341.008,221.457C324.365,226.65 308.498,233.119 293.912,240.854C302.666,245.51 312.24,248.632 322.056,250.05C329.604,241.415 336.005,231.774 341.008,221.457Z" style="fill:url(#_Linear5);"/>
        <path d="M629.019,407.305C631.168,411.544 631.872,416.356 632.332,421.087C633.364,431.722 633.321,442.511 635.631,452.944C637.831,462.878 642.219,472.302 648.301,480.455C659.065,469.607 671.017,459.95 684.494,453.305C681.934,443.446 677.756,434.036 672.018,425.795C667.201,418.876 661.285,412.781 654.306,407.935C640.382,398.265 622.315,393.173 612.034,380.163C612.844,383.988 614.187,387.641 616.325,390.984C620.048,396.804 625.895,401.143 629.019,407.305Z" style="fill:url(#_Linear6);"/>
        <path d="M560.16,283.489C550.232,288.506 539.066,291.597 527.954,292.078C536.559,323.933 572.307,340.18 605.478,339.33C606.114,336.014 606.901,332.733 607.765,329.541C611.997,313.923 617.817,297.972 615.243,281.997C613.336,270.165 607.184,260.149 598.779,251.716C587.728,264.487 575.153,275.912 560.16,283.489Z" style="fill:url(#_Linear7);"/>
        <path d="M501.553,242.664C507.372,248.46 517.357,248.724 522.578,255.063C528.235,261.93 525.571,272.049 526.132,280.928C526.379,284.835 527.002,288.551 527.954,292.078C539.066,291.597 550.232,288.506 560.16,283.489C575.153,275.912 587.728,264.487 598.779,251.716C588.466,241.37 574.76,233.409 561.334,227.414C541.885,218.729 519.635,212.671 495.98,209.206C497.584,220.905 493.321,234.464 501.553,242.664Z" style="fill:url(#_Linear8);"/>
        <path d="M648.301,480.455C644.031,484.759 639.946,489.248 636.028,493.812C629.41,501.524 623.103,509.566 618.118,518.422C609.833,533.146 605.518,550.018 605.4,566.905C608.598,567.139 611.644,567.949 613.955,570.092C617.792,573.651 616.275,582.031 611.045,581.823C632.082,587.185 651.606,569.002 663.303,550.714C672.182,536.831 679.446,521.628 683.626,505.741C675.892,503.229 668.575,499.435 662.119,494.49C656.888,490.484 652.24,485.735 648.301,480.455Z" style="fill:url(#_Linear9);"/>
        <path d="M684.494,453.305C671.017,459.95 659.065,469.607 648.301,480.455C652.24,485.735 656.888,490.484 662.119,494.49C668.575,499.435 675.892,503.229 683.626,505.741C686.139,496.187 687.538,486.385 687.501,476.475C687.471,468.704 686.459,460.873 684.494,453.305Z" style="fill:url(#_Linear10);"/>
        <path d="M270.172,540.242C279.655,529.16 284.865,514.368 285.673,499.669C286.71,480.79 281.174,462.055 273.094,444.961C266.625,431.277 258.26,416.49 262.443,401.943C264.183,395.888 268.081,389.897 266.518,383.794C265.72,380.678 263.565,378.08 261.178,375.922C251.76,367.404 238.695,364.537 227.218,359.101C219.428,355.412 211.772,349.332 208.139,341.867C207.028,347.548 206.4,353.556 206.44,359.876C206.527,373.851 208.237,387.794 214.439,400.503C228.592,429.503 260.394,440.745 255.179,478.077C253.676,488.836 250.03,499.126 246.637,509.47C251.931,516.83 255.254,525.579 261.148,532.488C263.733,535.517 266.795,538.132 270.172,540.242Z" style="fill:url(#_Linear11);"/>
        <path d="M270.172,540.242C266.795,538.132 263.733,535.517 261.148,532.488C255.254,525.579 251.931,516.83 246.637,509.47C245.874,511.796 245.123,514.125 244.413,516.463C240.328,529.903 237.835,544.71 241.469,557.908C248.464,555.988 255.081,553.053 261.049,548.71C264.434,546.246 267.475,543.394 270.172,540.242Z" style="fill:url(#_Linear12);"/>
        <path d="M341.205,551.628C331.315,547.175 320.221,546.137 309.375,546.265C299.662,546.379 289.748,547.354 280.389,544.756C276.788,543.756 273.341,542.222 270.172,540.242C267.475,543.394 264.434,546.246 261.049,548.71C255.081,553.053 248.464,555.988 241.469,557.908C243.202,564.2 246.326,570.127 251.337,575.365C265.236,589.891 286.589,591.703 305.504,589.58C326.324,587.243 347.169,585.165 368.032,583.278C364.063,569.588 354.248,557.5 341.205,551.628Z" style="fill:url(#_Linear13);"/>
        <path d="M287.66,627.453C289.896,628.814 292.213,630.019 294.585,631.103C294.496,630.743 294.444,630.369 294.444,629.982L294.444,601.114C294.444,598.543 296.527,596.46 299.098,596.46L407.523,596.46C410.093,596.46 412.177,598.543 412.177,601.114L412.177,628.236C416.722,626.448 421.194,624.476 425.572,622.308C440.858,614.737 455.785,604.513 472.305,599.601C472.933,597.774 474.662,596.46 476.702,596.46L585.128,596.46C586.143,596.46 587.08,596.789 587.845,597.341C596.176,595.239 604.323,592.422 612.158,588.9L265.005,588.9C265.938,605.208 272.516,618.234 287.66,627.453Z" style="fill:rgb(147,149,152);fill-rule:nonzero;"/>
        <path d="M322.465,638.725C345.803,642.11 369.806,640.643 392.606,634.636L303.858,634.636C309.909,636.535 316.188,637.814 322.465,638.725Z" style="fill:rgb(147,149,152);fill-rule:nonzero;"/>
        <path d="M405.059,623.027C405.059,625.597 402.976,627.681 400.405,627.681L306.215,627.681C303.645,627.681 301.562,625.597 301.562,623.027L301.562,608.069C301.562,605.499 303.645,603.415 306.215,603.415L400.405,603.415C402.976,603.415 405.059,605.499 405.059,608.069L405.059,623.027ZM303.858,634.636L392.606,634.636C399.248,632.886 405.786,630.75 412.177,628.236L412.177,601.114C412.177,598.543 410.093,596.46 407.523,596.46L299.098,596.46C296.527,596.46 294.444,598.543 294.444,601.114L294.444,629.982C294.444,630.369 294.496,630.743 294.585,631.103L303.858,634.636Z" style="fill:rgb(128,130,133);fill-rule:nonzero;"/>
        <path d="M400.405,603.415L306.215,603.415C303.645,603.415 301.562,605.499 301.562,608.069L301.562,623.027C301.562,625.597 303.645,627.681 306.215,627.681L400.405,627.681C402.976,627.681 405.059,625.597 405.059,623.027L405.059,608.069C405.059,605.499 402.976,603.415 400.405,603.415Z" style="fill:rgb(167,169,172);fill-rule:nonzero;"/>
        <path d="M382.958,620.778L323.663,620.778C322.325,620.778 321.241,619.694 321.241,618.356L321.241,613.682C321.241,612.344 322.325,611.26 323.663,611.26C325.001,611.26 326.086,612.344 326.086,613.682L326.086,615.933L380.535,615.933L380.535,613.682C380.535,612.344 381.62,611.26 382.958,611.26C384.295,611.26 385.38,612.344 385.38,613.682L385.38,618.356C385.38,619.694 384.295,620.778 382.958,620.778Z" style="fill:rgb(109,110,113);fill-rule:nonzero;"/>
        <path d="M476.702,596.46C474.662,596.46 472.933,597.774 472.305,599.601C476.465,598.364 480.725,597.459 485.119,597.024C506.762,594.881 528.416,601.757 550.035,601.907C562.758,601.995 575.502,600.454 587.845,597.341C587.08,596.789 586.143,596.46 585.128,596.46L476.702,596.46Z" style="fill:rgb(128,130,133);fill-rule:nonzero;"/>
        <path d="M661.879,566.029L246.572,566.029C240.256,566.029 235.136,571.149 235.136,577.465C235.136,583.78 240.256,588.9 246.572,588.9L661.879,588.9C667.971,588.9 672.949,584.135 673.294,578.129C673.306,577.909 673.314,577.688 673.314,577.465C673.314,571.149 668.194,566.029 661.879,566.029Z" style="fill:rgb(88,89,91);fill-rule:nonzero;"/>
        <path d="M246.785,463.981C246.785,482.265 231.963,497.088 213.679,497.088C195.395,497.088 180.573,482.265 180.573,463.981C180.573,445.697 195.395,430.875 213.679,430.875C231.963,430.875 246.785,445.697 246.785,463.981Z" style="fill:url(#_Linear14);"/>
        <path d="M698.952,344.188C698.952,368.299 679.406,387.845 655.296,387.845C631.185,387.845 611.639,368.299 611.639,344.188C611.639,320.077 631.185,300.532 655.296,300.532C679.406,300.532 698.952,320.077 698.952,344.188Z" style="fill:url(#_Linear15);"/>
        <path d="M227.751,523.927C227.751,531.699 221.451,537.999 213.679,537.999C205.907,537.999 199.606,531.699 199.606,523.927C199.606,516.155 205.907,509.854 213.679,509.854C221.451,509.854 227.751,516.155 227.751,523.927Z" style="fill:url(#_Linear16);"/>
        <path d="M430.356,500.897C430.389,518.843 430.456,557.544 430.456,557.544L494.403,557.544L494.403,500.897L430.356,500.897Z" style="fill:url(#_Linear17);"/>
        <path d="M508.605,554.734L416.154,554.734L408.61,563.108L516.149,563.108L508.605,554.734Z" style="fill:url(#_Linear18);"/>
        <rect x="408.61" y="563.108" width="107.539" height="10.184" style="fill:url(#_Linear19);"/>
        <path d="M327.363,480.166L327.363,485.883C327.363,494.994 334.749,502.38 343.86,502.38L580.899,502.38C590.01,502.38 597.396,494.994 597.396,485.883L597.396,480.166L327.363,480.166Z" style="fill:url(#_Linear20);"/>
        <path d="M580.899,320.916L343.861,320.916C334.749,320.916 327.363,328.302 327.363,337.413L327.363,480.166L597.396,480.166L597.396,337.413C597.396,328.302 590.01,320.916 580.899,320.916Z" style="fill:url(#_Linear21);"/>
        <path d="M567.164,311.53C567.164,307.344 563.77,303.951 559.584,303.951L386.25,303.951L386.256,316.048L567.164,316.048L567.164,311.53Z" style="fill:url(#_Linear22);"/>
        <path d="M356.278,303.951C351.318,303.951 347.298,307.344 347.298,311.53L347.298,316.048L393.454,316.048L393.448,303.951L356.278,303.951Z" style="fill:url(#_Linear23);"/>
        <path d="M362.696,306.711C360.883,306.711 359.408,308.186 359.408,310C359.408,311.813 360.883,313.288 362.696,313.288C364.509,313.288 365.985,311.813 365.985,310C365.985,308.186 364.509,306.711 362.696,306.711Z" style="fill:white;fill-rule:nonzero;"/>
        <path d="M378.055,306.711C376.242,306.711 374.767,308.186 374.767,310C374.767,311.813 376.242,313.288 378.055,313.288C379.868,313.288 381.344,311.813 381.344,310C381.344,308.186 379.868,306.711 378.055,306.711Z" style="fill:white;fill-rule:nonzero;"/>
        <path d="M567.164,316.048L393.454,316.048L393.454,480.131L457.202,480.082L567.164,479.998L567.164,316.048Z" style="fill:white;fill-rule:nonzero;"/>
        <path d="M347.298,316.048L347.298,480.166L393.454,480.131L393.454,316.048L347.298,316.048Z" style="fill:url(#_Linear24);"/>
        <path d="M381.98,475.999L358.772,475.999C357.902,475.999 357.197,475.294 357.197,474.424C357.197,473.554 357.902,472.849 358.772,472.849L381.98,472.849C382.85,472.849 383.555,473.554 383.555,474.424C383.555,475.294 382.85,475.999 381.98,475.999Z" style="fill:white;fill-rule:nonzero;"/>
        <path d="M372.569,355.309L368.183,355.309C360.935,355.309 355.059,349.434 355.059,342.186L355.059,337.799C355.059,330.551 360.935,324.676 368.183,324.676L372.569,324.676C379.817,324.676 385.693,330.551 385.693,337.799L385.693,342.186C385.693,349.434 379.817,355.309 372.569,355.309Z" style="fill:white;fill-rule:nonzero;"/>
        <path d="M358.285,365.313L355.059,365.313C354.189,365.313 353.484,364.607 353.484,363.738C353.484,362.868 354.189,362.163 355.059,362.163L358.285,362.163C359.155,362.163 359.86,362.868 359.86,363.738C359.86,364.607 359.155,365.313 358.285,365.313Z" style="fill:white;fill-rule:nonzero;"/>
        <path d="M385.693,365.313L362.485,365.313C361.615,365.313 360.91,364.607 360.91,363.738C360.91,362.868 361.615,362.163 362.485,362.163L385.693,362.163C386.563,362.163 387.268,362.868 387.268,363.738C387.268,364.607 386.563,365.313 385.693,365.313Z" style="fill:white;fill-rule:nonzero;"/>
        <path d="M385.693,373.071L377.418,373.071C376.548,373.071 375.843,372.366 375.843,371.496C375.843,370.626 376.548,369.921 377.418,369.921L385.693,369.921C386.563,369.921 387.268,370.626 387.268,371.496C387.268,372.366 386.563,373.071 385.693,373.071Z" style="fill:white;fill-rule:nonzero;"/>
        <path d="M372.781,373.071L355.059,373.071C354.189,373.071 353.484,372.366 353.484,371.496C353.484,370.626 354.189,369.921 355.059,369.921L372.781,369.921C373.651,369.921 374.356,370.626 374.356,371.496C374.356,372.366 373.651,373.071 372.781,373.071Z" style="fill:white;fill-rule:nonzero;"/>
        <path d="M385.693,380.829L370.376,380.829C369.506,380.829 368.801,380.124 368.801,379.254C368.801,378.384 369.506,377.679 370.376,377.679L385.693,377.679C386.563,377.679 387.268,378.384 387.268,379.254C387.268,380.124 386.563,380.829 385.693,380.829Z" style="fill:white;fill-rule:nonzero;"/>
        <path d="M365.431,380.829L355.059,380.829C354.189,380.829 353.484,380.124 353.484,379.254C353.484,378.384 354.189,377.679 355.059,377.679L365.431,377.679C366.301,377.679 367.006,378.384 367.006,379.254C367.006,380.124 366.301,380.829 365.431,380.829Z" style="fill:white;fill-rule:nonzero;"/>
        <path d="M530.374,395.187L416.28,395.187C410.128,395.187 405.141,390.2 405.141,384.048L405.141,378.871C405.141,372.719 410.128,367.731 416.28,367.731L530.374,367.731C536.526,367.731 541.513,372.719 541.513,378.871L541.513,384.048C541.513,390.2 536.526,395.187 530.374,395.187Z" style="fill:rgb(209,211,212);fill-rule:nonzero;"/>
        <path d="M421.331,389.953C416.64,389.953 412.837,386.15 412.837,381.459C412.837,376.768 416.64,372.965 421.331,372.965C426.023,372.965 429.826,376.768 429.826,381.459C429.826,386.15 426.023,389.953 421.331,389.953Z" style="fill:white;fill-rule:nonzero;"/>
        <path d="M491.821,378.483L437.257,378.483C436.414,378.483 435.731,377.799 435.731,376.956C435.731,376.114 436.414,375.43 437.257,375.43L491.821,375.43C492.664,375.43 493.347,376.114 493.347,376.956C493.347,377.799 492.664,378.483 491.821,378.483Z" style="fill:white;fill-rule:nonzero;"/>
        <path d="M445.353,387.488L437.257,387.488C436.414,387.488 435.731,386.805 435.731,385.962C435.731,385.119 436.414,384.436 437.257,384.436L445.353,384.436C446.196,384.436 446.88,385.119 446.88,385.962C446.88,386.805 446.196,387.488 445.353,387.488Z" style="fill:white;fill-rule:nonzero;"/>
        <path d="M474.591,387.488L451.525,387.488C450.682,387.488 449.998,386.805 449.998,385.962C449.998,385.119 450.682,384.436 451.525,384.436L474.591,384.436C475.434,384.436 476.117,385.119 476.117,385.962C476.117,386.805 475.434,387.488 474.591,387.488Z" style="fill:white;fill-rule:nonzero;"/>
        <path d="M503.043,387.488L481.216,387.488C480.373,387.488 479.69,386.805 479.69,385.962C479.69,385.119 480.373,384.436 481.216,384.436L503.043,384.436C503.886,384.436 504.569,385.119 504.569,385.962C504.569,386.805 503.886,387.488 503.043,387.488Z" style="fill:white;fill-rule:nonzero;"/>
        <path d="M530.374,467.947L416.28,467.947C410.128,467.947 405.141,462.96 405.141,456.808L405.141,451.631C405.141,445.479 410.128,440.492 416.28,440.492L530.374,440.492C536.526,440.492 541.513,445.479 541.513,451.631L541.513,456.808C541.513,462.96 536.526,467.947 530.374,467.947Z" style="fill:rgb(209,211,212);fill-rule:nonzero;"/>
        <path d="M421.331,462.714C416.64,462.714 412.837,458.911 412.837,454.219C412.837,449.528 416.64,445.725 421.331,445.725C426.023,445.725 429.826,449.528 429.826,454.219C429.826,458.911 426.023,462.714 421.331,462.714Z" style="fill:white;fill-rule:nonzero;"/>
        <path d="M464.874,451.243L437.257,451.243C436.414,451.243 435.731,450.56 435.731,449.717C435.731,448.874 436.414,448.19 437.257,448.19L464.874,448.19C465.717,448.19 466.4,448.874 466.4,449.717C466.4,450.56 465.717,451.243 464.874,451.243Z" style="fill:white;fill-rule:nonzero;"/>
        <path d="M442.359,460.248L437.257,460.248C436.414,460.248 435.731,459.565 435.731,458.722C435.731,457.879 436.414,457.196 437.257,457.196L442.359,457.196C443.202,457.196 443.885,457.879 443.885,458.722C443.885,459.565 443.202,460.248 442.359,460.248Z" style="fill:white;fill-rule:nonzero;"/>
        <path d="M503.043,460.248L448.281,460.248C447.438,460.248 446.755,459.565 446.755,458.722C446.755,457.879 447.438,457.196 448.281,457.196L503.043,457.196C503.886,457.196 504.569,457.879 504.569,458.722C504.569,459.565 503.886,460.248 503.043,460.248Z" style="fill:white;fill-rule:nonzero;"/>
        <path d="M530.374,431.567L416.28,431.567C410.128,431.567 405.141,426.58 405.141,420.428L405.141,415.251C405.141,409.099 410.128,404.112 416.28,404.112L530.374,404.112C536.526,404.112 541.513,409.099 541.513,415.251L541.513,420.428C541.513,426.58 536.526,431.567 530.374,431.567Z" style="fill:url(#_Linear25);"/>
        <path d="M421.331,426.333C416.64,426.333 412.837,422.53 412.837,417.839C412.837,413.148 416.64,409.345 421.331,409.345C426.023,409.345 429.826,413.148 429.826,417.839C429.826,422.53 426.023,426.333 421.331,426.333Z" style="fill:white;fill-rule:nonzero;"/>
        <path d="M440.921,414.863L437.257,414.863C436.414,414.863 435.731,414.179 435.731,413.337C435.731,412.494 436.414,411.81 437.257,411.81L440.921,411.81C441.764,411.81 442.447,412.494 442.447,413.337C442.447,414.179 441.764,414.863 440.921,414.863Z" style="fill:white;fill-rule:nonzero;"/>
        <path d="M456.276,414.863L446.11,414.863C445.267,414.863 444.584,414.179 444.584,413.337C444.584,412.494 445.267,411.81 446.11,411.81L456.276,411.81C457.119,411.81 457.802,412.494 457.802,413.337C457.802,414.179 457.119,414.863 456.276,414.863Z" style="fill:white;fill-rule:nonzero;"/>
        <path d="M475.294,423.868L437.257,423.868C436.414,423.868 435.731,423.185 435.731,422.342C435.731,421.499 436.414,420.816 437.257,420.816L475.294,420.816C476.137,420.816 476.821,421.499 476.821,422.342C476.821,423.185 476.137,423.868 475.294,423.868Z" style="fill:white;fill-rule:nonzero;"/>
        <path d="M503.043,423.868L481.216,423.868C480.373,423.868 479.69,423.185 479.69,422.342C479.69,421.499 480.373,420.816 481.216,420.816L503.043,420.816C503.886,420.816 504.569,421.499 504.569,422.342C504.569,423.185 503.886,423.868 503.043,423.868Z" style="fill:white;fill-rule:nonzero;"/>
        <path d="M533.158,423.878C532.308,423.419 531.99,422.358 532.448,421.507L553.206,382.995C553.665,382.144 554.726,381.826 555.577,382.285C556.428,382.743 556.746,383.805 556.287,384.656L535.529,423.168C535.071,424.018 534.009,424.336 533.158,423.878Z" style="fill:rgb(167,169,172);fill-rule:nonzero;"/>
        <path d="M576.113,411.312L546.536,395.37L556.832,376.268L586.409,392.211L574.483,398.108L576.113,411.312Z" style="fill:url(#_Linear26);"/>
        <path d="M574.439,408.27L547.43,393.712L555.938,377.927L582.948,392.485L572.504,397.041L574.439,408.27Z" style="fill:url(#_Linear27);"/>
        <path d="M405.141,326.572L405.141,341.377C405.141,342.663 406.183,343.706 407.47,343.706L540.881,343.706L540.881,324.243L407.47,324.243C406.183,324.243 405.141,325.286 405.141,326.572Z" style="fill:rgb(230,231,232);fill-rule:nonzero;"/>
        <path d="M553.148,324.243L535.573,324.243C534.286,324.243 533.243,325.286 533.243,326.572L533.243,341.377C533.243,342.663 534.286,343.706 535.573,343.706L553.148,343.706C554.434,343.706 555.477,342.663 555.477,341.377L555.477,326.572C555.477,325.286 554.434,324.243 553.148,324.243Z" style="fill:url(#_Linear28);"/>
        <path d="M540.176,329.79C538.654,331.312 538.654,333.788 540.176,335.31C541.698,336.832 544.174,336.833 545.696,335.31C547.218,333.788 547.218,331.312 545.696,329.79C544.174,328.268 541.698,328.268 540.176,329.79ZM547.136,336.751C544.82,339.067 541.052,339.067 538.735,336.75C536.419,334.434 536.419,330.666 538.735,328.35C541.052,326.034 544.82,326.033 547.136,328.35C549.453,330.666 549.453,334.434 547.136,336.751Z" style="fill:white;fill-rule:nonzero;"/>
        <path d="M551.424,341.038C551.026,341.436 550.381,341.436 549.984,341.038L545.963,337.017C545.565,336.62 545.565,335.975 545.963,335.577C546.361,335.18 547.006,335.18 547.403,335.577L551.424,339.598C551.821,339.995 551.821,340.64 551.424,341.038Z" style="fill:white;fill-rule:nonzero;"/>
        <path d="M430.663,356.123L406.956,356.123C405.953,356.123 405.141,355.31 405.141,354.308C405.141,353.305 405.953,352.492 406.956,352.492L430.663,352.492C431.666,352.492 432.479,353.305 432.479,354.308C432.479,355.31 431.666,356.123 430.663,356.123Z" style="fill:rgb(188,190,192);fill-rule:nonzero;"/>
        <path d="M464.106,356.123L440.398,356.123C439.396,356.123 438.583,355.31 438.583,354.308C438.583,353.305 439.396,352.492 440.398,352.492L464.106,352.492C465.108,352.492 465.921,353.305 465.921,354.308C465.921,355.31 465.108,356.123 464.106,356.123Z" style="fill:rgb(188,190,192);fill-rule:nonzero;"/>
        <path d="M497.548,356.123L473.841,356.123C472.838,356.123 472.025,355.31 472.025,354.308C472.025,353.305 472.838,352.492 473.841,352.492L497.548,352.492C498.55,352.492 499.363,353.305 499.363,354.308C499.363,355.31 498.55,356.123 497.548,356.123Z" style="fill:rgb(188,190,192);fill-rule:nonzero;"/>
        <path d="M472.142,493.864L452.618,493.864C451.168,493.864 449.993,492.689 449.993,491.239C449.993,489.79 451.168,488.614 452.618,488.614L472.142,488.614C473.592,488.614 474.767,489.79 474.767,491.239C474.767,492.689 473.592,493.864 472.142,493.864Z" style="fill:white;fill-rule:nonzero;"/>
        <path d="M235.136,332.496C202.364,332.496 175.796,305.929 175.796,273.156C175.796,240.383 202.364,213.816 235.136,213.816C267.909,213.816 294.476,240.383 294.476,273.156C294.476,305.929 267.909,332.496 235.136,332.496Z" style="fill:url(#_Linear29);"/>
        <path d="M235.136,266.445L250.652,257.4L241.847,273.156L235.136,266.445Z" style="fill:url(#_Linear30);"/>
        <path d="M241.847,273.156C241.847,276.862 238.843,279.867 235.136,279.867C231.43,279.867 228.425,276.862 228.425,273.156C228.425,269.45 231.43,266.445 235.136,266.445C238.843,266.445 241.847,269.45 241.847,273.156Z" style="fill:url(#_Linear31);"/>
        <path d="M240.39,273.156C240.39,276.057 238.038,278.409 235.136,278.409C232.235,278.409 229.883,276.057 229.883,273.156C229.883,270.255 232.235,267.903 235.136,267.903C238.038,267.903 240.39,270.255 240.39,273.156Z" style="fill:url(#_Linear32);"/>
        <path d="M200.182,273.49C200.18,273.269 200.18,273.047 200.182,272.824C200.359,253.809 215.894,238.321 234.91,238.201C254.319,238.078 270.092,253.775 270.092,273.156L270.092,273.287C270.063,281.329 274.722,288.646 282.078,291.897L290.14,295.459C292.935,288.574 294.476,281.045 294.476,273.156C294.476,240.352 267.636,213.652 234.833,213.816C202.2,213.98 175.796,240.485 175.796,273.156C175.796,281.045 177.338,288.573 180.133,295.459L188.194,291.897C195.482,288.676 200.257,281.458 200.182,273.49Z" style="fill:url(#_Linear33);"/>
        <path d="M235.136,224.366C234.332,224.366 233.68,223.714 233.68,222.91L233.68,211.33L236.592,211.33L236.592,222.91C236.592,223.714 235.94,224.366 235.136,224.366Z" style="fill:rgb(65,64,66);fill-rule:nonzero;"/>
        <path d="M200.637,238.656C200.068,239.225 199.146,239.225 198.577,238.656L190.389,230.468L192.448,228.409L200.637,236.597C201.205,237.166 201.205,238.088 200.637,238.656Z" style="fill:rgb(65,64,66);fill-rule:nonzero;"/>
        <path d="M186.347,273.156C186.347,273.96 185.695,274.612 184.891,274.612L173.31,274.612L173.31,271.7L184.891,271.7C185.695,271.7 186.347,272.352 186.347,273.156Z" style="fill:rgb(65,64,66);fill-rule:nonzero;"/>
        <path d="M296.962,271.7L296.962,274.612L285.382,274.612C284.578,274.612 283.926,273.96 283.926,273.156C283.926,272.352 284.578,271.7 285.382,271.7L296.962,271.7Z" style="fill:rgb(65,64,66);fill-rule:nonzero;"/>
        <rect x="231.877" y="201.441" width="6.518" height="9.889" style="fill:url(#_Linear34);"/>
        <path d="M277.824,228.409L279.883,230.468L271.695,238.656C271.126,239.225 270.204,239.225 269.636,238.656C269.067,238.088 269.067,237.166 269.636,236.597L277.824,228.409Z" style="fill:rgb(65,64,66);fill-rule:nonzero;"/>
        <path d="M235.136,332.496C202.364,332.496 175.796,305.929 175.796,273.156C175.796,240.383 202.364,213.816 235.136,213.816C267.909,213.816 294.476,240.383 294.476,273.156C294.476,305.929 267.909,332.496 235.136,332.496ZM235.136,208.399C199.372,208.399 170.379,237.391 170.379,273.156C170.379,308.92 199.372,337.913 235.136,337.913C270.901,337.913 299.894,308.92 299.894,273.156C299.894,237.391 270.901,208.399 235.136,208.399Z" style="fill:url(#_Linear35);"/>
        <path d="M235.136,329.96C204.913,329.96 178.332,303.379 178.332,273.156C178.332,242.932 204.913,216.351 235.136,216.351C265.36,216.351 291.941,242.932 291.941,273.156C291.941,303.379 265.36,329.96 235.136,329.96ZM235.136,213.436C202.154,213.436 175.416,240.173 175.416,273.156C175.416,306.138 202.154,332.876 235.136,332.876C268.119,332.876 294.856,306.138 294.856,273.156C294.856,240.173 268.119,213.436 235.136,213.436Z" style="fill:url(#_Linear36);"/>
        <path d="M260.23,260.772C259.823,260.772 259.428,260.555 259.221,260.172C254.432,251.306 245.203,245.799 235.136,245.799C234.504,245.799 233.992,245.287 233.992,244.655C233.992,244.023 234.504,243.511 235.136,243.511C246.045,243.511 256.045,249.478 261.234,259.084C261.536,259.64 261.329,260.334 260.773,260.635C260.6,260.728 260.413,260.772 260.23,260.772Z" style="fill:white;fill-rule:nonzero;"/>
        <path d="M260.596,287.123C260.423,287.123 260.247,287.083 260.082,287C259.518,286.715 259.29,286.027 259.575,285.463C261.512,281.626 262.493,277.486 262.493,273.156C262.493,272.524 263.006,272.012 263.638,272.012C264.269,272.012 264.782,272.524 264.782,273.156C264.782,277.847 263.717,282.335 261.618,286.494C261.417,286.893 261.014,287.123 260.596,287.123Z" style="fill:white;fill-rule:nonzero;"/>
        <rect x="225.567" y="196.241" width="19.138" height="5.894" style="fill:url(#_Linear37);"/>
        <path d="M686.254,528.66L650.922,528.714C633.526,528.741 619.402,514.66 619.375,497.264L619.321,461.932C619.295,444.536 633.375,430.412 650.771,430.385L686.104,430.331C703.5,430.304 717.624,444.385 717.65,461.781L717.704,497.114C717.731,514.51 703.65,528.634 686.254,528.66Z" style="fill:url(#_Linear38);"/>
        <path d="M702.561,461.058L702.549,461.258C702.517,461.549 702.428,461.824 702.33,462.097C701.975,463.076 701.568,464.034 701.123,464.975C697.27,473.076 692.304,480.716 686.858,487.83C683.172,492.645 678.962,496.99 673.351,499.529C659.731,505.693 641.997,499.896 636.677,485.327C636.457,484.725 635.498,482.77 635.737,482.171C635.861,481.861 635.993,481.553 636.129,481.245C630.716,493.449 635.055,508.067 646.761,515.203C659.489,522.962 676.098,518.934 683.857,506.206L699.261,480.938C703.038,474.741 704.015,467.626 702.561,461.058Z" style="fill:rgb(167,169,172);fill-rule:nonzero;"/>
        <path d="M636.677,485.327C641.997,499.896 659.731,505.693 673.351,499.529C678.962,496.99 683.172,492.645 686.858,487.83C692.304,480.716 697.27,473.076 701.123,464.975C701.568,464.034 701.975,463.076 702.33,462.097C702.428,461.824 702.517,461.549 702.549,461.258L702.561,461.058C702.189,459.382 701.659,457.742 700.976,456.162C700.841,455.847 700.699,455.535 700.551,455.226C700.504,455.128 700.456,455.03 700.408,454.932C700.262,454.635 700.11,454.341 699.953,454.05C699.896,453.944 699.837,453.837 699.778,453.731C699.624,453.455 699.465,453.181 699.301,452.91C699.231,452.794 699.161,452.678 699.089,452.563C698.929,452.307 698.764,452.054 698.595,451.803C698.514,451.682 698.432,451.562 698.348,451.442C698.163,451.176 697.972,450.915 697.778,450.656C697.695,450.546 697.614,450.437 697.53,450.328C697.319,450.057 697.101,449.791 696.88,449.528L696.663,449.269C696.414,448.979 696.156,448.696 695.895,448.418L695.741,448.252C695.446,447.944 695.144,447.644 694.836,447.35L694.757,447.273C694.422,446.957 694.079,446.65 693.729,446.351L693.712,446.336C693.353,446.031 692.985,445.734 692.61,445.447L692.609,445.447C692.247,445.171 691.878,444.905 691.504,444.647L691.455,444.612C691.065,444.345 690.667,444.088 690.264,443.842C677.535,436.083 660.927,440.111 653.168,452.839L637.764,478.107C637.546,478.465 637.34,478.827 637.141,479.19C637.036,479.381 636.938,479.574 636.839,479.766C636.758,479.923 636.677,480.08 636.599,480.238C636.471,480.498 636.348,480.759 636.229,481.021L636.129,481.245C635.993,481.553 635.861,481.861 635.737,482.171C635.498,482.77 636.457,484.725 636.677,485.327Z" style="fill:rgb(209,211,212);fill-rule:nonzero;"/>
        <path d="M674.817,469.881C674.693,469.881 674.566,469.848 674.452,469.779C674.122,469.578 674.018,469.147 674.219,468.817L689.662,443.483C689.864,443.153 690.294,443.049 690.624,443.25C690.955,443.451 691.059,443.882 690.858,444.212L675.414,469.545C675.283,469.761 675.053,469.881 674.817,469.881Z" style="fill:rgb(167,169,172);fill-rule:nonzero;"/>
        <path d="M678.776,465.315C678.309,465.316 677.836,465.192 677.408,464.931C676.17,464.176 675.778,462.561 676.533,461.323L682.444,451.627C683.199,450.389 684.814,449.997 686.052,450.752C687.289,451.507 687.681,453.122 686.927,454.36L681.016,464.056C680.522,464.866 679.66,465.313 678.776,465.315Z" style="fill:white;fill-rule:nonzero;"/>
        <path d="M602.725,532.373C608.436,527.965 612.971,522.343 615.45,515.522C615.836,514.462 614.145,514.005 613.763,515.056C611.455,521.406 607.162,526.756 601.841,530.862C600.962,531.541 601.833,533.062 602.725,532.373Z" style="fill:white;fill-rule:nonzero;"/>
        <path d="M497.571,508.278C500.739,519.626 508.448,529.258 518.351,535.526C523.344,538.686 528.906,541.012 534.687,542.254C540.446,543.491 546.795,543.943 552.459,542.025C558.355,540.028 562.453,535.231 563.394,529.041C564.181,523.865 562.479,517.553 557.294,515.291C552.738,513.302 546.983,514.942 545.397,519.946C543.767,525.086 544.765,532.12 547.867,536.535C552.244,542.765 560.84,542.527 567.673,542.54C576.171,542.557 584.702,541.35 592.607,538.137C593.637,537.719 593.187,536.025 592.142,536.45C586.156,538.882 579.812,540.183 573.374,540.612C570.211,540.823 567.036,540.838 563.87,540.706C560.579,540.569 557.06,540.505 553.967,539.254C548.777,537.156 546.749,531.512 546.531,526.292C546.418,523.58 546.426,520.095 548.459,518.039C550.171,516.307 552.86,515.884 555.163,516.419C560.787,517.726 562.552,524.274 561.578,529.317C560.397,535.436 555.968,539.515 550.009,540.898C540.004,543.22 528.644,539.731 520.086,534.543C510.162,528.526 502.397,519.055 499.259,507.813C498.956,506.73 497.267,507.19 497.571,508.278Z" style="fill:white;fill-rule:nonzero;"/>
        <path d="M287.934,321.569C290.572,323.16 291.914,325.973 292.994,328.747C294.291,332.077 295.447,335.469 296.484,338.888C298.562,345.735 300.116,352.765 300.819,359.892C302.107,372.947 300.519,386.488 294.722,398.368C289.929,408.19 280.801,419.655 268.587,418.844C259.299,418.227 253.232,409.377 252.034,400.838C251.105,394.217 252.859,386.162 259.26,382.83C267.417,378.585 277.999,383.56 283.262,390.139C289.533,397.979 291.31,408.644 290.923,418.422C290.636,425.678 289.437,432.851 288.52,440.043C287.617,447.124 287.191,454.187 287.555,461.323C287.907,468.224 288.856,475.101 290.401,481.835C291.798,487.927 293.521,494.135 296.334,499.744C298.702,504.465 302.119,508.778 306.855,511.285C311.974,513.993 318.167,514.731 323.854,513.939C326.843,513.523 329.702,512.646 332.429,511.359C333.447,510.878 332.559,509.369 331.546,509.848C325.122,512.881 317.548,513.326 310.809,511.067C304.795,509.05 300.631,504.414 297.845,498.86C294.717,492.624 292.927,485.587 291.527,478.786C289.987,471.304 289.201,463.673 289.156,456.035C289.069,441.409 293.525,427.007 292.642,412.381C292.061,402.767 288.963,392.379 281.549,385.791C275.413,380.338 264.912,377.142 257.452,381.849C251.28,385.744 249.416,393.724 250.248,400.567C251.264,408.918 256.355,417.315 264.749,419.903C275.993,423.371 286.663,414.548 292.482,405.809C299.844,394.753 303.056,381.27 302.999,368.087C302.967,360.78 301.967,353.489 300.311,346.378C298.723,339.554 296.7,332.564 293.803,326.169C292.685,323.702 291.172,321.478 288.818,320.058C287.851,319.475 286.97,320.987 287.934,321.569Z" style="fill:white;fill-rule:nonzero;"/>
        <path d="M347.418,268.43C346.672,268.255 346.21,267.508 346.386,266.763L347.19,263.351C347.365,262.606 348.112,262.144 348.857,262.32C349.603,262.495 350.065,263.242 349.889,263.987L349.085,267.399C348.91,268.144 348.163,268.606 347.418,268.43Z" style="fill:white;fill-rule:nonzero;"/>
        <path d="M345.221,277.754C344.475,277.578 344.014,276.832 344.189,276.086L344.993,272.675C345.168,271.93 345.915,271.468 346.661,271.644C347.406,271.819 347.868,272.566 347.692,273.311L346.888,276.722C346.713,277.468 345.966,277.93 345.221,277.754Z" style="fill:white;fill-rule:nonzero;"/>
        <path d="M353.089,272.887L349.677,272.083C348.932,271.908 348.47,271.161 348.646,270.416C348.821,269.67 349.568,269.208 350.313,269.384L353.725,270.188C354.47,270.363 354.932,271.11 354.756,271.855C354.581,272.601 353.834,273.063 353.089,272.887Z" style="fill:white;fill-rule:nonzero;"/>
        <path d="M343.765,270.69L340.354,269.886C339.608,269.711 339.146,268.964 339.322,268.219C339.497,267.473 340.244,267.011 340.99,267.187L344.401,267.991C345.146,268.166 345.608,268.913 345.432,269.658C345.257,270.404 344.51,270.866 343.765,270.69Z" style="fill:white;fill-rule:nonzero;"/>
        <path d="M319.153,308.182C318.408,308.007 317.946,307.26 318.122,306.515L318.926,303.103C319.101,302.358 319.848,301.896 320.593,302.072C321.339,302.247 321.8,302.994 321.625,303.739L320.821,307.151C320.645,307.896 319.899,308.358 319.153,308.182Z" style="fill:white;fill-rule:nonzero;"/>
        <path d="M316.957,317.506C316.211,317.33 315.749,316.584 315.925,315.838L316.729,312.427C316.904,311.682 317.651,311.22 318.396,311.396C319.142,311.571 319.604,312.318 319.428,313.063L318.624,316.474C318.449,317.22 317.702,317.682 316.957,317.506Z" style="fill:white;fill-rule:nonzero;"/>
        <path d="M324.824,312.639L321.413,311.835C320.668,311.66 320.206,310.913 320.382,310.168C320.557,309.422 321.304,308.96 322.049,309.136L325.46,309.94C326.206,310.115 326.668,310.862 326.492,311.607C326.316,312.353 325.57,312.815 324.824,312.639Z" style="fill:white;fill-rule:nonzero;"/>
        <path d="M315.5,310.442L312.089,309.638C311.344,309.463 310.882,308.716 311.058,307.971C311.233,307.225 311.98,306.763 312.725,306.939L316.136,307.743C316.882,307.918 317.344,308.665 317.168,309.41C316.992,310.156 316.246,310.618 315.5,310.442Z" style="fill:white;fill-rule:nonzero;"/>
        <path d="M330.946,283.433C330.496,283.663 329.946,283.485 329.716,283.035L328.664,280.979C328.435,280.53 328.613,279.979 329.062,279.749C329.511,279.52 330.062,279.697 330.292,280.147L331.343,282.203C331.573,282.652 331.395,283.203 330.946,283.433Z" style="fill:white;fill-rule:nonzero;"/>
        <path d="M333.82,289.053C333.371,289.283 332.82,289.105 332.59,288.656L331.539,286.599C331.309,286.15 331.487,285.6 331.936,285.37C332.386,285.14 332.936,285.318 333.166,285.767L334.218,287.824C334.447,288.273 334.269,288.823 333.82,289.053Z" style="fill:white;fill-rule:nonzero;"/>
        <path d="M335.695,283.252L333.639,284.303C333.19,284.533 332.639,284.355 332.41,283.906C332.18,283.457 332.358,282.906 332.807,282.676L334.863,281.625C335.313,281.395 335.863,281.573 336.093,282.022C336.323,282.472 336.145,283.022 335.695,283.252Z" style="fill:white;fill-rule:nonzero;"/>
        <path d="M330.075,286.126L328.019,287.178C327.569,287.408 327.019,287.23 326.789,286.78C326.559,286.331 326.737,285.781 327.187,285.551L329.243,284.499C329.692,284.269 330.243,284.447 330.472,284.897C330.702,285.346 330.524,285.896 330.075,286.126Z" style="fill:white;fill-rule:nonzero;"/>
        <path d="M341.591,283.601C341.409,283.765 341.128,283.751 340.964,283.569L340.212,282.736C340.048,282.554 340.062,282.273 340.244,282.109C340.426,281.944 340.707,281.959 340.871,282.141L341.623,282.974C341.787,283.156 341.773,283.437 341.591,283.601Z" style="fill:white;fill-rule:nonzero;"/>
        <path d="M343.646,285.878C343.464,286.043 343.183,286.028 343.019,285.846L342.267,285.013C342.103,284.831 342.117,284.55 342.299,284.386C342.481,284.222 342.762,284.236 342.926,284.418L343.678,285.251C343.842,285.433 343.828,285.714 343.646,285.878Z" style="fill:white;fill-rule:nonzero;"/>
        <path d="M343.798,282.92L342.965,283.672C342.783,283.836 342.502,283.821 342.337,283.639C342.173,283.457 342.188,283.177 342.37,283.012L343.203,282.26C343.385,282.096 343.666,282.11 343.83,282.293C343.994,282.475 343.98,282.755 343.798,282.92Z" style="fill:white;fill-rule:nonzero;"/>
        <path d="M341.52,284.975L340.687,285.727C340.505,285.891 340.224,285.877 340.06,285.695C339.896,285.512 339.91,285.232 340.092,285.067L340.925,284.316C341.107,284.151 341.388,284.166 341.553,284.348C341.717,284.53 341.702,284.811 341.52,284.975Z" style="fill:white;fill-rule:nonzero;"/>
        <path d="M341.313,304.358C341.131,304.523 340.85,304.508 340.686,304.326L339.934,303.493C339.769,303.311 339.784,303.03 339.966,302.866C340.148,302.701 340.429,302.716 340.593,302.898L341.345,303.731C341.509,303.913 341.495,304.194 341.313,304.358Z" style="fill:white;fill-rule:nonzero;"/>
        <path d="M343.368,306.636C343.186,306.8 342.905,306.786 342.741,306.603L341.989,305.77C341.825,305.588 341.839,305.307 342.021,305.143C342.203,304.979 342.484,304.993 342.648,305.175L343.4,306.008C343.564,306.191 343.55,306.471 343.368,306.636Z" style="fill:white;fill-rule:nonzero;"/>
        <path d="M343.52,303.677L342.686,304.429C342.504,304.593 342.224,304.579 342.059,304.397C341.895,304.214 341.909,303.934 342.092,303.769L342.925,303.018C343.107,302.853 343.388,302.868 343.552,303.05C343.716,303.232 343.702,303.513 343.52,303.677Z" style="fill:white;fill-rule:nonzero;"/>
        <path d="M341.242,305.732L340.409,306.484C340.227,306.648 339.946,306.634 339.782,306.452C339.618,306.27 339.632,305.989 339.814,305.825L340.647,305.073C340.829,304.908 341.11,304.923 341.274,305.105C341.439,305.287 341.424,305.568 341.242,305.732Z" style="fill:white;fill-rule:nonzero;"/>
        <path d="M310.826,291.847C310.644,292.011 310.363,291.996 310.199,291.814L309.447,290.981C309.283,290.799 309.297,290.518 309.479,290.354C309.661,290.19 309.942,290.204 310.107,290.386L310.858,291.219C311.023,291.402 311.008,291.682 310.826,291.847Z" style="fill:white;fill-rule:nonzero;"/>
        <path d="M312.881,294.124C312.699,294.288 312.419,294.274 312.254,294.092L311.502,293.259C311.338,293.076 311.352,292.796 311.534,292.631C311.717,292.467 311.997,292.482 312.162,292.664L312.914,293.497C313.078,293.679 313.063,293.96 312.881,294.124Z" style="fill:white;fill-rule:nonzero;"/>
        <path d="M313.033,291.165L312.2,291.917C312.018,292.081 311.737,292.067 311.573,291.885C311.409,291.703 311.423,291.422 311.605,291.258L312.438,290.506C312.62,290.342 312.901,290.356 313.065,290.538C313.23,290.72 313.215,291.001 313.033,291.165Z" style="fill:white;fill-rule:nonzero;"/>
        <path d="M310.756,293.22L309.923,293.972C309.74,294.136 309.46,294.122 309.295,293.94C309.131,293.758 309.146,293.477 309.328,293.313L310.161,292.561C310.343,292.397 310.624,292.411 310.788,292.593C310.952,292.775 310.938,293.056 310.756,293.22Z" style="fill:white;fill-rule:nonzero;"/>
        <path d="M265.796,482.987C265.148,483.394 264.292,483.198 263.885,482.55L262.021,479.582C261.614,478.933 261.81,478.077 262.458,477.67C263.107,477.263 263.963,477.458 264.37,478.107L266.233,481.075C266.64,481.724 266.445,482.58 265.796,482.987Z" style="fill:white;fill-rule:nonzero;"/>
        <path d="M270.89,491.099C270.241,491.507 269.385,491.311 268.978,490.662L267.115,487.694C266.707,487.046 266.903,486.19 267.552,485.783C268.2,485.375 269.056,485.571 269.463,486.22L271.327,489.188C271.734,489.836 271.538,490.692 270.89,491.099Z" style="fill:white;fill-rule:nonzero;"/>
        <path d="M272.952,482.08L269.984,483.944C269.335,484.351 268.479,484.156 268.072,483.507C267.665,482.858 267.86,482.003 268.509,481.595L271.477,479.732C272.126,479.325 272.982,479.52 273.389,480.169C273.796,480.817 273.6,481.673 272.952,482.08Z" style="fill:white;fill-rule:nonzero;"/>
        <path d="M264.839,487.174L261.871,489.038C261.221,489.445 260.366,489.249 259.959,488.601C259.552,487.952 259.747,487.096 260.396,486.689L263.364,484.825C264.013,484.418 264.869,484.614 265.276,485.263C265.683,485.911 265.487,486.767 264.839,487.174Z" style="fill:white;fill-rule:nonzero;"/>
        <path d="M274.239,531.026C273.59,531.434 272.734,531.238 272.327,530.589L270.464,527.621C270.056,526.973 270.252,526.117 270.901,525.71C271.549,525.302 272.405,525.498 272.812,526.147L274.676,529.115C275.083,529.763 274.887,530.619 274.239,531.026Z" style="fill:white;fill-rule:nonzero;"/>
        <path d="M279.332,539.139C278.684,539.546 277.828,539.351 277.421,538.702L275.557,535.734C275.15,535.085 275.346,534.23 275.994,533.822C276.643,533.415 277.499,533.611 277.906,534.259L279.769,537.227C280.177,537.876 279.981,538.732 279.332,539.139Z" style="fill:white;fill-rule:nonzero;"/>
        <path d="M281.394,530.12L278.426,531.984C277.778,532.391 276.922,532.195 276.515,531.547C276.107,530.898 276.303,530.042 276.952,529.635L279.92,527.772C280.568,527.364 281.424,527.56 281.831,528.209C282.238,528.857 282.043,529.713 281.394,530.12Z" style="fill:white;fill-rule:nonzero;"/>
        <path d="M273.281,535.214L270.313,537.077C269.665,537.485 268.809,537.289 268.402,536.64C267.995,535.992 268.19,535.136 268.839,534.729L271.807,532.865C272.455,532.458 273.311,532.654 273.718,533.302C274.126,533.951 273.93,534.807 273.281,535.214Z" style="fill:white;fill-rule:nonzero;"/>
        <path d="M264.905,505.249C264.753,505.73 264.24,505.997 263.758,505.845L261.556,505.149C261.075,504.997 260.808,504.484 260.959,504.002C261.112,503.521 261.626,503.254 262.107,503.406L264.309,504.102C264.79,504.254 265.057,504.768 264.905,505.249Z" style="fill:white;fill-rule:nonzero;"/>
        <path d="M270.925,507.151C270.773,507.632 270.259,507.899 269.778,507.747L267.576,507.051C267.094,506.899 266.828,506.386 266.98,505.904C267.132,505.423 267.645,505.156 268.126,505.308L270.329,506.004C270.81,506.156 271.077,506.67 270.925,507.151Z" style="fill:white;fill-rule:nonzero;"/>
        <path d="M268.113,501.741L267.417,503.943C267.265,504.425 266.751,504.691 266.27,504.539C265.789,504.387 265.522,503.874 265.674,503.393L266.37,501.19C266.522,500.709 267.035,500.442 267.517,500.594C267.998,500.746 268.265,501.26 268.113,501.741Z" style="fill:white;fill-rule:nonzero;"/>
        <path d="M266.211,507.761L265.515,509.963C265.363,510.444 264.849,510.711 264.368,510.559C263.887,510.407 263.62,509.894 263.772,509.412L264.468,507.21C264.62,506.729 265.133,506.462 265.615,506.614C266.096,506.766 266.363,507.279 266.211,507.761Z" style="fill:white;fill-rule:nonzero;"/>
        <path d="M272.502,497.79C272.491,498.035 272.284,498.225 272.039,498.214L270.917,498.164C270.672,498.153 270.483,497.945 270.494,497.7C270.505,497.455 270.712,497.266 270.957,497.277L272.078,497.327C272.323,497.338 272.513,497.545 272.502,497.79Z" style="fill:white;fill-rule:nonzero;"/>
        <path d="M275.566,497.927C275.556,498.172 275.348,498.362 275.103,498.351L273.982,498.301C273.737,498.29 273.547,498.082 273.558,497.837C273.569,497.592 273.777,497.402 274.022,497.413L275.143,497.463C275.388,497.474 275.577,497.682 275.566,497.927Z" style="fill:white;fill-rule:nonzero;"/>
        <path d="M273.567,495.741L273.517,496.862C273.506,497.107 273.299,497.296 273.054,497.285C272.809,497.275 272.619,497.067 272.63,496.822L272.68,495.701C272.691,495.456 272.898,495.266 273.143,495.277C273.388,495.288 273.578,495.496 273.567,495.741Z" style="fill:white;fill-rule:nonzero;"/>
        <path d="M273.43,498.805L273.38,499.926C273.369,500.171 273.162,500.361 272.917,500.35C272.672,500.339 272.482,500.132 272.493,499.887L272.543,498.765C272.554,498.52 272.762,498.331 273.007,498.342C273.251,498.353 273.441,498.56 273.43,498.805Z" style="fill:white;fill-rule:nonzero;"/>
        <path d="M287.081,512.568C287.07,512.813 286.863,513.002 286.618,512.991L285.497,512.941C285.252,512.93 285.062,512.723 285.073,512.478C285.084,512.233 285.291,512.043 285.536,512.054L286.658,512.104C286.903,512.115 287.092,512.323 287.081,512.568Z" style="fill:white;fill-rule:nonzero;"/>
        <path d="M290.146,512.704C290.135,512.949 289.927,513.139 289.683,513.128L288.561,513.078C288.316,513.067 288.127,512.86 288.138,512.615C288.149,512.37 288.356,512.18 288.601,512.191L289.722,512.241C289.967,512.252 290.157,512.459 290.146,512.704Z" style="fill:white;fill-rule:nonzero;"/>
        <path d="M288.147,510.518L288.096,511.639C288.086,511.884 287.878,512.074 287.633,512.063C287.388,512.052 287.198,511.845 287.209,511.6L287.259,510.479C287.27,510.234 287.478,510.044 287.723,510.055C287.968,510.066 288.157,510.273 288.147,510.518Z" style="fill:white;fill-rule:nonzero;"/>
        <path d="M288.01,513.583L287.96,514.704C287.949,514.949 287.741,515.139 287.496,515.128C287.251,515.117 287.062,514.909 287.073,514.664L287.123,513.543C287.133,513.298 287.341,513.108 287.586,513.119C287.831,513.13 288.021,513.338 288.01,513.583Z" style="fill:white;fill-rule:nonzero;"/>
        <path d="M256.762,525.48C256.751,525.725 256.544,525.914 256.299,525.903L255.178,525.853C254.933,525.842 254.743,525.635 254.754,525.39C254.765,525.145 254.972,524.955 255.217,524.966L256.338,525.016C256.583,525.027 256.773,525.235 256.762,525.48Z" style="fill:white;fill-rule:nonzero;"/>
        <path d="M259.827,525.616C259.816,525.861 259.608,526.051 259.363,526.04L258.242,525.99C257.997,525.979 257.807,525.772 257.818,525.527C257.829,525.282 258.036,525.092 258.282,525.103L259.403,525.153C259.648,525.164 259.838,525.371 259.827,525.616Z" style="fill:white;fill-rule:nonzero;"/>
        <path d="M257.827,523.43L257.777,524.551C257.765,524.796 257.558,524.986 257.314,524.975C257.069,524.964 256.879,524.757 256.89,524.512L256.94,523.39C256.95,523.145 257.159,522.956 257.403,522.967C257.648,522.978 257.838,523.185 257.827,523.43Z" style="fill:white;fill-rule:nonzero;"/>
        <path d="M257.691,526.495L257.64,527.616C257.63,527.861 257.422,528.05 257.177,528.04C256.932,528.029 256.742,527.821 256.752,527.576L256.803,526.455C256.814,526.21 257.022,526.02 257.267,526.031C257.512,526.042 257.7,526.25 257.691,526.495Z" style="fill:white;fill-rule:nonzero;"/>
        <path d="M296.357,531.593C296.56,532.331 296.125,533.094 295.387,533.297L292.007,534.224C291.268,534.426 290.505,533.991 290.303,533.253C290.1,532.514 290.535,531.752 291.273,531.549L294.653,530.622C295.392,530.42 296.155,530.854 296.357,531.593Z" style="fill:white;fill-rule:nonzero;"/>
        <path d="M305.595,529.06C305.798,529.798 305.363,530.561 304.625,530.763L301.245,531.69C300.506,531.893 299.743,531.458 299.541,530.72C299.338,529.981 299.773,529.218 300.511,529.016L303.891,528.089C304.63,527.886 305.393,528.321 305.595,529.06Z" style="fill:white;fill-rule:nonzero;"/>
        <path d="M297.556,524.481L298.483,527.86C298.686,528.599 298.251,529.362 297.512,529.564C296.774,529.767 296.011,529.332 295.809,528.594L294.882,525.214C294.679,524.475 295.114,523.713 295.852,523.51C296.591,523.307 297.354,523.742 297.556,524.481Z" style="fill:white;fill-rule:nonzero;"/>
        <path d="M300.089,533.719L301.016,537.099C301.219,537.837 300.784,538.6 300.046,538.802C299.307,539.005 298.544,538.57 298.342,537.832L297.415,534.452C297.213,533.714 297.647,532.951 298.386,532.748C299.124,532.546 299.887,532.98 300.089,533.719Z" style="fill:white;fill-rule:nonzero;"/>
        <path d="M344.788,537.386C344.99,538.124 344.556,538.887 343.817,539.09L340.437,540.016C339.699,540.219 338.936,539.784 338.733,539.046C338.531,538.307 338.965,537.545 339.704,537.342L343.084,536.415C343.822,536.213 344.585,536.647 344.788,537.386Z" style="fill:white;fill-rule:nonzero;"/>
        <path d="M354.026,534.852C354.228,535.591 353.794,536.354 353.055,536.556L349.675,537.483C348.937,537.686 348.174,537.251 347.972,536.513C347.769,535.774 348.204,535.011 348.942,534.809L352.322,533.882C353.06,533.679 353.823,534.114 354.026,534.852Z" style="fill:white;fill-rule:nonzero;"/>
        <path d="M345.987,530.273L346.914,533.653C347.116,534.392 346.682,535.155 345.943,535.357C345.205,535.56 344.442,535.125 344.239,534.387L343.312,531.007C343.11,530.268 343.544,529.505 344.283,529.303C345.021,529.1 345.784,529.535 345.987,530.273Z" style="fill:white;fill-rule:nonzero;"/>
        <path d="M348.52,539.512L349.447,542.891C349.649,543.63 349.215,544.393 348.476,544.595C347.738,544.798 346.975,544.363 346.773,543.625L345.846,540.245C345.643,539.507 346.078,538.744 346.816,538.541C347.555,538.339 348.318,538.773 348.52,539.512Z" style="fill:white;fill-rule:nonzero;"/>
        <path d="M317.413,538.876C317.83,539.161 317.937,539.729 317.652,540.146L316.35,542.053C316.066,542.47 315.497,542.577 315.08,542.293C314.663,542.008 314.556,541.44 314.841,541.023L316.143,539.115C316.428,538.699 316.996,538.592 317.413,538.876Z" style="fill:white;fill-rule:nonzero;"/>
        <path d="M320.972,533.662C321.389,533.947 321.496,534.516 321.212,534.932L319.91,536.84C319.625,537.257 319.057,537.364 318.64,537.079C318.223,536.795 318.116,536.226 318.4,535.809L319.703,533.902C319.987,533.485 320.556,533.378 320.972,533.662Z" style="fill:white;fill-rule:nonzero;"/>
        <path d="M314.981,534.792L316.889,536.094C317.305,536.379 317.413,536.947 317.128,537.364C316.843,537.781 316.275,537.888 315.858,537.604L313.951,536.301C313.534,536.017 313.427,535.448 313.711,535.032C313.996,534.615 314.564,534.508 314.981,534.792Z" style="fill:white;fill-rule:nonzero;"/>
        <path d="M320.195,538.352L322.102,539.654C322.519,539.938 322.626,540.507 322.342,540.924C322.057,541.341 321.488,541.448 321.072,541.163L319.164,539.861C318.747,539.576 318.64,539.008 318.925,538.591C319.209,538.174 319.778,538.067 320.195,538.352Z" style="fill:white;fill-rule:nonzero;"/>
        <path d="M312.466,529.449C312.698,529.53 312.819,529.783 312.738,530.015L312.366,531.074C312.285,531.305 312.032,531.427 311.8,531.345C311.569,531.264 311.447,531.011 311.529,530.779L311.9,529.72C311.982,529.489 312.235,529.367 312.466,529.449Z" style="fill:white;fill-rule:nonzero;"/>
        <path d="M313.482,526.554C313.714,526.635 313.836,526.889 313.754,527.12L313.383,528.179C313.301,528.411 313.048,528.532 312.816,528.451C312.585,528.37 312.463,528.116 312.545,527.885L312.916,526.826C312.998,526.595 313.251,526.473 313.482,526.554Z" style="fill:white;fill-rule:nonzero;"/>
        <path d="M310.812,527.837L311.871,528.209C312.102,528.29 312.224,528.543 312.143,528.775C312.061,529.006 311.808,529.128 311.577,529.047L310.518,528.675C310.286,528.594 310.165,528.34 310.246,528.109C310.327,527.877 310.58,527.756 310.812,527.837Z" style="fill:white;fill-rule:nonzero;"/>
        <path d="M313.706,528.853L314.765,529.225C314.997,529.306 315.118,529.559 315.037,529.791C314.956,530.022 314.702,530.144 314.471,530.063L313.412,529.691C313.181,529.61 313.059,529.356 313.14,529.125C313.221,528.894 313.475,528.772 313.706,528.853Z" style="fill:white;fill-rule:nonzero;"/>
        <path d="M330.825,519.759C331.056,519.84 331.178,520.093 331.097,520.325L330.725,521.384C330.644,521.615 330.391,521.737 330.159,521.656C329.928,521.574 329.806,521.321 329.887,521.09L330.259,520.031C330.34,519.799 330.594,519.678 330.825,519.759Z" style="fill:white;fill-rule:nonzero;"/>
        <path d="M331.841,516.864C332.073,516.946 332.194,517.199 332.113,517.431L331.741,518.489C331.66,518.721 331.407,518.843 331.175,518.761C330.944,518.68 330.822,518.427 330.903,518.195L331.275,517.136C331.356,516.905 331.61,516.783 331.841,516.864Z" style="fill:white;fill-rule:nonzero;"/>
        <path d="M329.171,518.147L330.23,518.519C330.461,518.6 330.583,518.854 330.501,519.085C330.42,519.316 330.167,519.438 329.935,519.357L328.876,518.985C328.645,518.904 328.523,518.65 328.605,518.419C328.686,518.188 328.939,518.066 329.171,518.147Z" style="fill:white;fill-rule:nonzero;"/>
        <path d="M332.065,519.163L333.124,519.535C333.355,519.616 333.477,519.87 333.396,520.101C333.315,520.332 333.061,520.454 332.83,520.373L331.771,520.001C331.539,519.92 331.418,519.667 331.499,519.435C331.58,519.204 331.834,519.082 332.065,519.163Z" style="fill:white;fill-rule:nonzero;"/>
        <path d="M334.429,552.515C334.661,552.596 334.783,552.85 334.701,553.081L334.33,554.14C334.248,554.372 333.995,554.493 333.763,554.412C333.532,554.331 333.41,554.077 333.492,553.846L333.863,552.787C333.945,552.556 334.198,552.434 334.429,552.515Z" style="fill:white;fill-rule:nonzero;"/>
        <path d="M335.446,549.621C335.677,549.702 335.799,549.956 335.717,550.187L335.346,551.246C335.264,551.477 335.011,551.599 334.78,551.518C334.548,551.436 334.427,551.183 334.508,550.952L334.879,549.893C334.961,549.661 335.214,549.54 335.446,549.621Z" style="fill:white;fill-rule:nonzero;"/>
        <path d="M332.775,550.904L333.834,551.275C334.065,551.357 334.187,551.61 334.106,551.841C334.025,552.073 333.771,552.194 333.54,552.113L332.481,551.741C332.249,551.66 332.128,551.407 332.209,551.175C332.29,550.944 332.544,550.822 332.775,550.904Z" style="fill:white;fill-rule:nonzero;"/>
        <path d="M335.669,551.92L336.728,552.291C336.96,552.373 337.081,552.626 337,552.858C336.919,553.089 336.665,553.211 336.434,553.129L335.375,552.758C335.144,552.676 335.022,552.423 335.103,552.192C335.185,551.96 335.438,551.838 335.669,551.92Z" style="fill:white;fill-rule:nonzero;"/>
        <path d="M416.419,292.203C416.354,291.44 416.92,290.769 417.683,290.705L421.175,290.408C421.938,290.344 422.609,290.91 422.674,291.673C422.739,292.436 422.173,293.107 421.41,293.172L417.918,293.468C417.155,293.532 416.484,292.966 416.419,292.203Z" style="fill:white;fill-rule:nonzero;"/>
        <path d="M406.874,293.013C406.809,292.25 407.375,291.578 408.138,291.514L411.63,291.218C412.394,291.153 413.065,291.719 413.129,292.482C413.194,293.245 412.628,293.916 411.865,293.981L408.373,294.277C407.61,294.342 406.939,293.776 406.874,293.013Z" style="fill:white;fill-rule:nonzero;"/>
        <path d="M413.945,298.978L413.649,295.486C413.584,294.723 414.15,294.052 414.913,293.988C415.676,293.923 416.348,294.489 416.412,295.252L416.708,298.744C416.773,299.507 416.207,300.178 415.444,300.243C414.681,300.308 414.01,299.741 413.945,298.978Z" style="fill:white;fill-rule:nonzero;"/>
        <path d="M413.136,289.433L412.84,285.941C412.775,285.178 413.341,284.507 414.104,284.443C414.867,284.378 415.538,284.944 415.603,285.707L415.899,289.199C415.964,289.962 415.398,290.633 414.634,290.698C413.871,290.763 413.2,290.196 413.136,289.433Z" style="fill:white;fill-rule:nonzero;"/>
        <path d="M369.852,277.691C369.787,276.928 370.353,276.257 371.116,276.192L374.608,275.896C375.371,275.832 376.042,276.398 376.107,277.161C376.172,277.924 375.606,278.595 374.843,278.659L371.351,278.956C370.588,279.02 369.917,278.454 369.852,277.691Z" style="fill:white;fill-rule:nonzero;"/>
        <path d="M360.307,278.5C360.242,277.737 360.808,277.066 361.571,277.002L365.064,276.705C365.827,276.641 366.498,277.207 366.562,277.97C366.627,278.733 366.061,279.404 365.298,279.469L361.806,279.765C361.043,279.829 360.372,279.263 360.307,278.5Z" style="fill:white;fill-rule:nonzero;"/>
        <path d="M367.378,284.466L367.082,280.974C367.017,280.211 367.583,279.54 368.346,279.475C369.11,279.411 369.781,279.977 369.845,280.74L370.141,284.232C370.206,284.995 369.64,285.666 368.877,285.731C368.114,285.795 367.443,285.229 367.378,284.466Z" style="fill:white;fill-rule:nonzero;"/>
        <path d="M366.569,274.921L366.273,271.429C366.208,270.666 366.774,269.995 367.537,269.93C368.3,269.866 368.971,270.432 369.036,271.195L369.332,274.687C369.397,275.45 368.831,276.121 368.068,276.186C367.305,276.25 366.634,275.684 366.569,274.921Z" style="fill:white;fill-rule:nonzero;"/>
        <path d="M397.04,281.209C396.682,280.853 396.681,280.274 397.036,279.916L398.664,278.278C399.02,277.92 399.598,277.918 399.956,278.274C400.314,278.629 400.316,279.208 399.96,279.566L398.333,281.204C397.977,281.563 397.398,281.564 397.04,281.209Z" style="fill:white;fill-rule:nonzero;"/>
        <path d="M392.591,285.687C392.233,285.332 392.231,284.753 392.587,284.395L394.215,282.757C394.571,282.399 395.149,282.397 395.507,282.752C395.865,283.108 395.867,283.687 395.511,284.045L393.884,285.683C393.528,286.041 392.949,286.043 392.591,285.687Z" style="fill:white;fill-rule:nonzero;"/>
        <path d="M398.688,285.667L397.05,284.039C396.692,283.684 396.69,283.105 397.046,282.747C397.401,282.389 397.98,282.387 398.338,282.743L399.976,284.371C400.334,284.726 400.336,285.305 399.981,285.663C399.625,286.021 399.046,286.023 398.688,285.667Z" style="fill:white;fill-rule:nonzero;"/>
        <path d="M394.21,281.218L392.571,279.59C392.213,279.235 392.211,278.656 392.567,278.298C392.923,277.94 393.501,277.938 393.859,278.294L395.498,279.922C395.856,280.277 395.858,280.856 395.502,281.214C395.146,281.572 394.568,281.574 394.21,281.218Z" style="fill:white;fill-rule:nonzero;"/>
        <path d="M400.188,291.379C399.976,291.257 399.902,290.986 400.024,290.773L400.582,289.8C400.704,289.587 400.976,289.513 401.188,289.635C401.401,289.757 401.475,290.029 401.353,290.241L400.794,291.215C400.672,291.428 400.401,291.501 400.188,291.379Z" style="fill:white;fill-rule:nonzero;"/>
        <path d="M398.662,294.04C398.45,293.918 398.376,293.647 398.498,293.434L399.056,292.461C399.178,292.248 399.45,292.174 399.662,292.296C399.875,292.418 399.949,292.69 399.827,292.902L399.268,293.876C399.146,294.089 398.875,294.162 398.662,294.04Z" style="fill:white;fill-rule:nonzero;"/>
        <path d="M401.522,293.265L400.548,292.707C400.336,292.585 400.262,292.313 400.384,292.101C400.506,291.888 400.777,291.814 400.99,291.936L401.964,292.495C402.176,292.617 402.25,292.888 402.128,293.101C402.006,293.314 401.735,293.387 401.522,293.265Z" style="fill:white;fill-rule:nonzero;"/>
        <path d="M398.861,291.739L397.887,291.181C397.674,291.059 397.601,290.787 397.723,290.575C397.845,290.362 398.116,290.288 398.329,290.41L399.303,290.969C399.515,291.091 399.589,291.362 399.467,291.575C399.345,291.788 399.073,291.861 398.861,291.739Z" style="fill:white;fill-rule:nonzero;"/>
        <path d="M380.372,297.565C380.16,297.443 380.086,297.172 380.208,296.959L380.766,295.985C380.888,295.773 381.16,295.699 381.373,295.821C381.585,295.943 381.659,296.214 381.537,296.427L380.979,297.401C380.857,297.614 380.585,297.687 380.372,297.565Z" style="fill:white;fill-rule:nonzero;"/>
        <path d="M378.846,300.226C378.634,300.104 378.56,299.833 378.682,299.62L379.24,298.647C379.362,298.434 379.634,298.36 379.847,298.482C380.059,298.604 380.133,298.876 380.011,299.088L379.453,300.062C379.331,300.275 379.059,300.348 378.846,300.226Z" style="fill:white;fill-rule:nonzero;"/>
        <path d="M381.706,299.451L380.732,298.893C380.52,298.771 380.446,298.499 380.568,298.287C380.69,298.074 380.961,298 381.174,298.122L382.148,298.681C382.36,298.803 382.434,299.074 382.312,299.287C382.19,299.499 381.919,299.573 381.706,299.451Z" style="fill:white;fill-rule:nonzero;"/>
        <path d="M379.045,297.925L378.071,297.367C377.859,297.245 377.785,296.973 377.907,296.761C378.029,296.548 378.3,296.474 378.513,296.596L379.487,297.155C379.699,297.277 379.773,297.548 379.651,297.761C379.529,297.973 379.258,298.047 379.045,297.925Z" style="fill:white;fill-rule:nonzero;"/>
        <path d="M382.791,264.7C382.578,264.578 382.505,264.307 382.627,264.094L383.185,263.12C383.307,262.907 383.579,262.834 383.791,262.956C384.004,263.078 384.078,263.349 383.956,263.562L383.397,264.536C383.275,264.748 383.004,264.822 382.791,264.7Z" style="fill:white;fill-rule:nonzero;"/>
        <path d="M381.265,267.361C381.052,267.239 380.979,266.968 381.101,266.755L381.659,265.781C381.781,265.569 382.053,265.495 382.265,265.617C382.478,265.739 382.552,266.01 382.43,266.223L381.871,267.197C381.749,267.409 381.478,267.483 381.265,267.361Z" style="fill:white;fill-rule:nonzero;"/>
        <path d="M384.125,266.586L383.151,266.028C382.938,265.906 382.865,265.634 382.987,265.421C383.109,265.209 383.38,265.135 383.593,265.257L384.566,265.815C384.779,265.937 384.853,266.209 384.731,266.421C384.609,266.634 384.337,266.708 384.125,266.586Z" style="fill:white;fill-rule:nonzero;"/>
        <path d="M381.464,265.06L380.49,264.501C380.277,264.38 380.204,264.108 380.326,263.895C380.448,263.683 380.719,263.609 380.932,263.731L381.905,264.289C382.118,264.411 382.192,264.683 382.07,264.895C381.948,265.108 381.676,265.182 381.464,265.06Z" style="fill:white;fill-rule:nonzero;"/>
    </g>
    <defs>
        <linearGradient id="_Linear1" x1="0" y1="0" x2="1" y2="0" gradientUnits="userSpaceOnUse" gradientTransform="matrix(514.223,-514.223,514.223,514.223,127.727,741.921)"><stop offset="0" style="stop-color:rgb(72,45,156);stop-opacity:1"/><stop offset="1" style="stop-color:rgb(28,200,255);stop-opacity:1"/></linearGradient>
        <linearGradient id="_Linear2" x1="0" y1="0" x2="1" y2="0" gradientUnits="userSpaceOnUse" gradientTransform="matrix(60.1916,-60.1916,60.1916,60.1916,449.853,275.597)"><stop offset="0" style="stop-color:rgb(72,45,156);stop-opacity:1"/><stop offset="1" style="stop-color:rgb(28,200,255);stop-opacity:1"/></linearGradient>
        <linearGradient id="_Linear3" x1="0" y1="0" x2="1" y2="0" gradientUnits="userSpaceOnUse" gradientTransform="matrix(97.2394,-97.2394,97.2394,97.2394,304.163,287.025)"><stop offset="0" style="stop-color:rgb(72,45,156);stop-opacity:1"/><stop offset="1" style="stop-color:rgb(28,200,255);stop-opacity:1"/></linearGradient>
        <linearGradient id="_Linear4" x1="0" y1="0" x2="1" y2="0" gradientUnits="userSpaceOnUse" gradientTransform="matrix(102.63,-102.63,102.63,102.63,213.694,333.538)"><stop offset="0" style="stop-color:rgb(72,45,156);stop-opacity:1"/><stop offset="1" style="stop-color:rgb(28,200,255);stop-opacity:1"/></linearGradient>
        <linearGradient id="_Linear5" x1="0" y1="0" x2="1" y2="0" gradientUnits="userSpaceOnUse" gradientTransform="matrix(50.9496,-50.9496,50.9496,50.9496,288.873,264.563)"><stop offset="0" style="stop-color:rgb(72,45,156);stop-opacity:1"/><stop offset="1" style="stop-color:rgb(28,200,255);stop-opacity:1"/></linearGradient>
        <linearGradient id="_Linear6" x1="0" y1="0" x2="1" y2="0" gradientUnits="userSpaceOnUse" gradientTransform="matrix(61.3303,-61.3303,61.3303,61.3303,599.119,465.879)"><stop offset="0" style="stop-color:rgb(72,45,156);stop-opacity:1"/><stop offset="1" style="stop-color:rgb(28,200,255);stop-opacity:1"/></linearGradient>
        <linearGradient id="_Linear7" x1="0" y1="0" x2="1" y2="0" gradientUnits="userSpaceOnUse" gradientTransform="matrix(92.9675,-92.9675,92.9675,92.9675,527.847,354.573)"><stop offset="0" style="stop-color:rgb(72,45,156);stop-opacity:1"/><stop offset="1" style="stop-color:rgb(28,200,255);stop-opacity:1"/></linearGradient>
        <linearGradient id="_Linear8" x1="0" y1="0" x2="1" y2="0" gradientUnits="userSpaceOnUse" gradientTransform="matrix(85.1942,-85.1942,85.1942,85.1942,482.998,295.193)"><stop offset="0" style="stop-color:rgb(72,45,156);stop-opacity:1"/><stop offset="1" style="stop-color:rgb(28,200,255);stop-opacity:1"/></linearGradient>
        <linearGradient id="_Linear9" x1="0" y1="0" x2="1" y2="0" gradientUnits="userSpaceOnUse" gradientTransform="matrix(113.91,-113.91,113.91,113.91,569.001,604.052)"><stop offset="0" style="stop-color:rgb(72,45,156);stop-opacity:1"/><stop offset="1" style="stop-color:rgb(28,200,255);stop-opacity:1"/></linearGradient>
        <linearGradient id="_Linear10" x1="0" y1="0" x2="1" y2="0" gradientUnits="userSpaceOnUse" gradientTransform="matrix(49.3591,-49.3591,49.3591,49.3591,648.99,510.07)"><stop offset="0" style="stop-color:rgb(72,45,156);stop-opacity:1"/><stop offset="1" style="stop-color:rgb(28,200,255);stop-opacity:1"/></linearGradient>
        <linearGradient id="_Linear11" x1="0" y1="0" x2="1" y2="0" gradientUnits="userSpaceOnUse" gradientTransform="matrix(120.158,-120.158,120.158,120.158,170.452,509.758)"><stop offset="0" style="stop-color:rgb(72,45,156);stop-opacity:1"/><stop offset="1" style="stop-color:rgb(28,200,255);stop-opacity:1"/></linearGradient>
        <linearGradient id="_Linear12" x1="0" y1="0" x2="1" y2="0" gradientUnits="userSpaceOnUse" gradientTransform="matrix(41.0744,-41.0744,41.0744,41.0744,221.882,561.497)"><stop offset="0" style="stop-color:rgb(72,45,156);stop-opacity:1"/><stop offset="1" style="stop-color:rgb(28,200,255);stop-opacity:1"/></linearGradient>
        <linearGradient id="_Linear13" x1="0" y1="0" x2="1" y2="0" gradientUnits="userSpaceOnUse" gradientTransform="matrix(90.2769,-90.2769,90.2769,90.2769,250.181,625.162)"><stop offset="0" style="stop-color:rgb(72,45,156);stop-opacity:1"/><stop offset="1" style="stop-color:rgb(28,200,255);stop-opacity:1"/></linearGradient>
        <linearGradient id="_Linear14" x1="0" y1="0" x2="1" y2="0" gradientUnits="userSpaceOnUse" gradientTransform="matrix(647.776,-251.609,251.609,647.776,80.6887,515.638)"><stop offset="0" style="stop-color:rgb(72,45,156);stop-opacity:1"/><stop offset="1" style="stop-color:rgb(28,200,255);stop-opacity:1"/></linearGradient>
        <linearGradient id="_Linear15" x1="0" y1="0" x2="1" y2="0" gradientUnits="userSpaceOnUse" gradientTransform="matrix(647.776,-251.609,251.609,647.776,98.1512,560.595)"><stop offset="0" style="stop-color:rgb(72,45,156);stop-opacity:1"/><stop offset="1" style="stop-color:rgb(28,200,255);stop-opacity:1"/></linearGradient>
        <linearGradient id="_Linear16" x1="0" y1="0" x2="1" y2="0" gradientUnits="userSpaceOnUse" gradientTransform="matrix(647.775,-251.609,251.609,647.775,100.92,567.724)"><stop offset="0" style="stop-color:rgb(72,45,156);stop-opacity:1"/><stop offset="1" style="stop-color:rgb(28,200,255);stop-opacity:1"/></linearGradient>
        <linearGradient id="_Linear17" x1="0" y1="0" x2="1" y2="0" gradientUnits="userSpaceOnUse" gradientTransform="matrix(0.703847,-90.0952,90.0952,0.703847,462.16,557.358)"><stop offset="0" style="stop-color:rgb(209,211,212);stop-opacity:1"/><stop offset="1" style="stop-color:rgb(156,158,158);stop-opacity:1"/></linearGradient>
        <linearGradient id="_Linear18" x1="0" y1="0" x2="1" y2="0" gradientUnits="userSpaceOnUse" gradientTransform="matrix(9.14475e-11,20.3685,-20.3685,9.14475e-11,462.38,551.226)"><stop offset="0" style="stop-color:rgb(209,211,212);stop-opacity:1"/><stop offset="1" style="stop-color:rgb(156,158,158);stop-opacity:1"/></linearGradient>
        <linearGradient id="_Linear19" x1="0" y1="0" x2="1" y2="0" gradientUnits="userSpaceOnUse" gradientTransform="matrix(1.55911e-09,34.7268,-34.7268,1.55911e-09,462.38,556.884)"><stop offset="0" style="stop-color:rgb(209,211,212);stop-opacity:1"/><stop offset="1" style="stop-color:rgb(156,158,158);stop-opacity:1"/></linearGradient>
        <linearGradient id="_Linear20" x1="0" y1="0" x2="1" y2="0" gradientUnits="userSpaceOnUse" gradientTransform="matrix(80.5,-52.1499,52.1499,80.5,375.812,543.591)"><stop offset="0" style="stop-color:rgb(156,158,158);stop-opacity:1"/><stop offset="1" style="stop-color:rgb(209,211,212);stop-opacity:1"/></linearGradient>
        <linearGradient id="_Linear21" x1="0" y1="0" x2="1" y2="0" gradientUnits="userSpaceOnUse" gradientTransform="matrix(8.10957e-09,180.628,-180.628,8.10957e-09,462.38,294.217)"><stop offset="0" style="stop-color:rgb(186,186,186);stop-opacity:1"/><stop offset="0.1" style="stop-color:rgb(219,219,219);stop-opacity:1"/><stop offset="0.3" style="stop-color:rgb(239,240,240);stop-opacity:1"/><stop offset="1" style="stop-color:white;stop-opacity:1"/></linearGradient>
        <linearGradient id="_Linear22" x1="0" y1="0" x2="1" y2="0" gradientUnits="userSpaceOnUse" gradientTransform="matrix(-201.367,0.233364,-0.233364,-201.367,572.369,309.889)"><stop offset="0" style="stop-color:rgb(87,45,126);stop-opacity:1"/><stop offset="1" style="stop-color:rgb(28,200,219);stop-opacity:1"/></linearGradient>
        <linearGradient id="_Linear23" x1="0" y1="0" x2="1" y2="0" gradientUnits="userSpaceOnUse" gradientTransform="matrix(-30.3554,30.3554,-30.3554,-30.3554,429.475,253.305)"><stop offset="0" style="stop-color:rgb(87,45,126);stop-opacity:1"/><stop offset="1" style="stop-color:rgb(28,200,219);stop-opacity:1"/></linearGradient>
        <linearGradient id="_Linear24" x1="0" y1="0" x2="1" y2="0" gradientUnits="userSpaceOnUse" gradientTransform="matrix(8.11561e-09,180.762,-180.762,8.11561e-09,370.376,379.788)"><stop offset="0" style="stop-color:rgb(251,221,137);stop-opacity:1"/><stop offset="1" style="stop-color:rgb(242,131,128);stop-opacity:1"/></linearGradient>
        <linearGradient id="_Linear25" x1="0" y1="0" x2="1" y2="0" gradientUnits="userSpaceOnUse" gradientTransform="matrix(136.372,0,0,136.372,405.141,417.839)"><stop offset="0" style="stop-color:rgb(251,221,137);stop-opacity:1"/><stop offset="1" style="stop-color:rgb(242,131,128);stop-opacity:1"/></linearGradient>
        <linearGradient id="_Linear26" x1="0" y1="0" x2="1" y2="0" gradientUnits="userSpaceOnUse" gradientTransform="matrix(-21.3356,-11.5003,11.5003,-21.3356,581.929,402.122)"><stop offset="0" style="stop-color:rgb(251,221,137);stop-opacity:1"/><stop offset="1" style="stop-color:rgb(242,131,128);stop-opacity:1"/></linearGradient>
        <linearGradient id="_Linear27" x1="0" y1="0" x2="1" y2="0" gradientUnits="userSpaceOnUse" gradientTransform="matrix(61.7094,33.2627,-33.2627,61.7094,514.733,365.902)"><stop offset="0" style="stop-color:rgb(255,221,56);stop-opacity:1"/><stop offset="0.7" style="stop-color:rgb(251,75,94);stop-opacity:1"/><stop offset="1" style="stop-color:rgb(237,49,126);stop-opacity:1"/></linearGradient>
        <linearGradient id="_Linear28" x1="0" y1="0" x2="1" y2="0" gradientUnits="userSpaceOnUse" gradientTransform="matrix(41.278,-41.278,41.278,41.278,559.032,319.303)"><stop offset="0" style="stop-color:rgb(87,45,126);stop-opacity:1"/><stop offset="1" style="stop-color:rgb(28,200,219);stop-opacity:1"/></linearGradient>
        <linearGradient id="_Linear29" x1="0" y1="0" x2="1" y2="0" gradientUnits="userSpaceOnUse" gradientTransform="matrix(-87.6783,87.9904,-87.9904,-87.6783,288.032,220.072)"><stop offset="0" style="stop-color:rgb(202,205,205);stop-opacity:1"/><stop offset="1" style="stop-color:white;stop-opacity:1"/></linearGradient>
        <linearGradient id="_Linear30" x1="0" y1="0" x2="1" y2="0" gradientUnits="userSpaceOnUse" gradientTransform="matrix(14.9947,-13.7545,13.7545,14.9947,238.051,270.204)"><stop offset="0" style="stop-color:rgb(156,158,158);stop-opacity:1"/><stop offset="1" style="stop-color:rgb(209,211,212);stop-opacity:1"/></linearGradient>
        <linearGradient id="_Linear31" x1="0" y1="0" x2="1" y2="0" gradientUnits="userSpaceOnUse" gradientTransform="matrix(11.4688,-10.5203,10.5203,11.4688,229.969,277.896)"><stop offset="0" style="stop-color:rgb(156,158,158);stop-opacity:1"/><stop offset="1" style="stop-color:rgb(209,211,212);stop-opacity:1"/></linearGradient>
        <linearGradient id="_Linear32" x1="0" y1="0" x2="1" y2="0" gradientUnits="userSpaceOnUse" gradientTransform="matrix(-14.9779,11.0947,-11.0947,-14.9779,248.429,263.309)"><stop offset="0" style="stop-color:rgb(156,158,158);stop-opacity:1"/><stop offset="1" style="stop-color:rgb(209,211,212);stop-opacity:1"/></linearGradient>
        <linearGradient id="_Linear33" x1="0" y1="0" x2="1" y2="0" gradientUnits="userSpaceOnUse" gradientTransform="matrix(98.184,-90.0634,90.0634,98.184,190.325,310.378)"><stop offset="0" style="stop-color:rgb(255,221,56);stop-opacity:1"/><stop offset="0.7" style="stop-color:rgb(251,75,94);stop-opacity:1"/><stop offset="1" style="stop-color:rgb(237,49,126);stop-opacity:1"/></linearGradient>
        <linearGradient id="_Linear34" x1="0" y1="0" x2="1" y2="0" gradientUnits="userSpaceOnUse" gradientTransform="matrix(9.81633,-9.00444,9.00444,9.81633,230.714,210.442)"><stop offset="0" style="stop-color:rgb(156,158,158);stop-opacity:1"/><stop offset="1" style="stop-color:rgb(209,211,212);stop-opacity:1"/></linearGradient>
        <linearGradient id="_Linear35" x1="0" y1="0" x2="1" y2="0" gradientUnits="userSpaceOnUse" gradientTransform="matrix(110.67,-101.517,101.517,110.67,185.277,318.892)"><stop offset="0" style="stop-color:rgb(156,158,158);stop-opacity:1"/><stop offset="1" style="stop-color:rgb(209,211,212);stop-opacity:1"/></linearGradient>
        <linearGradient id="_Linear36" x1="0" y1="0" x2="1" y2="0" gradientUnits="userSpaceOnUse" gradientTransform="matrix(-110.878,78.8422,-78.8422,-110.878,297.403,228.88)"><stop offset="0" style="stop-color:rgb(156,158,158);stop-opacity:1"/><stop offset="1" style="stop-color:rgb(209,211,212);stop-opacity:1"/></linearGradient>
        <linearGradient id="_Linear37" x1="0" y1="0" x2="1" y2="0" gradientUnits="userSpaceOnUse" gradientTransform="matrix(15.4559,-14.1776,14.1776,15.4559,228.173,205.575)"><stop offset="0" style="stop-color:rgb(156,158,158);stop-opacity:1"/><stop offset="1" style="stop-color:rgb(209,211,212);stop-opacity:1"/></linearGradient>
        <linearGradient id="_Linear38" x1="0" y1="0" x2="1" y2="0" gradientUnits="userSpaceOnUse" gradientTransform="matrix(89.3376,-87.7772,87.7772,89.3376,624.388,522.877)"><stop offset="0" style="stop-color:rgb(66,226,151);stop-opacity:1"/><stop offset="1" style="stop-color:rgb(59,182,181);stop-opacity:1"/></linearGradient>
    </defs>
</svg>
