<?xml version="1.0" encoding="UTF-8" standalone="no"?>
<!DOCTYPE svg PUBLIC "-//W3C//DTD SVG 1.1//EN" "http://www.w3.org/Graphics/SVG/1.1/DTD/svg11.dtd">
<svg width="100%" height="100%" viewBox="0 0 490 417" version="1.1" xmlns="http://www.w3.org/2000/svg" xmlns:xlink="http://www.w3.org/1999/xlink" xml:space="preserve" xmlns:serif="http://www.serif.com/" style="fill-rule:evenodd;clip-rule:evenodd;stroke-linejoin:round;stroke-miterlimit:2;">
    <g transform="matrix(1,0,0,1,-1681.66,-210.546)">
        <path d="M2167.01,392.974C2159.53,347.391 2141.05,302.901 2108.99,271.529C2068.32,231.728 2011,213.781 1955.16,210.963C1911.26,208.747 1866.51,215.369 1825.31,230.798C1792.95,242.918 1759.95,260.848 1737.99,288.234C1728.41,300.171 1708.68,324.773 1708.89,358.655C1708.97,372.042 1710.61,385.397 1716.55,397.57C1730.11,425.348 1760.57,436.116 1755.57,471.875C1753.81,484.498 1748.97,496.448 1745.26,508.643C1739.48,527.655 1737.03,549.523 1751.89,565.062C1765.21,578.976 1785.66,580.712 1803.78,578.679C1882.02,569.897 1960.63,564.912 2039.21,559.93C2054.45,558.964 2069.69,557.997 2084.93,557.031C2089.93,556.714 2095.55,556.602 2099.23,560.012C2102.9,563.421 2101.45,571.447 2096.44,571.248C2148.81,573.324 2167.31,503.69 2170.23,461.694C2171.77,439.556 2170.81,416.124 2167.01,392.974Z" style="fill:url(#_Linear1);"/>
        <path d="M1750.36,397.051C1751.08,399.025 1751.68,401.066 1752.23,403.127C1754.11,398.398 1755.38,393.424 1755.89,388.225C1757.17,375.21 1753.56,362.246 1752.86,349.188C1751.49,323.853 1761.71,298.12 1780.08,280.619C1789.73,271.424 1801.52,264.353 1809.52,253.695C1813.7,248.124 1816.51,240.992 1816.93,234.072C1787.34,246.087 1758.06,263.212 1737.99,288.234C1728.41,300.171 1708.68,324.773 1708.89,358.655C1708.91,361.664 1709.01,364.67 1709.21,367.663C1726.92,368.643 1744.19,380.237 1750.36,397.051Z" style="fill:url(#_Linear2);"/>
        <path d="M1750.36,397.051C1744.19,380.237 1726.92,368.643 1709.21,367.663C1709.93,377.985 1711.94,388.133 1716.55,397.57C1721.97,408.68 1730.1,417.069 1737.58,425.423C1743.84,418.795 1748.96,411.329 1752.23,403.127C1751.68,401.066 1751.08,399.025 1750.36,397.051Z" style="fill:url(#_Linear3);"/>
        <path d="M2030.68,246.752C2034.17,249.503 2038.23,251.306 2042.41,252.882C2049.93,248.975 2057.07,244.236 2063.76,238.935C2050.14,231.789 2035.71,226.119 2020.85,221.786C2019.7,231.03 2023.31,240.95 2030.68,246.752Z" style="fill:url(#_Linear4);"/>
        <path d="M1809.74,530.137C1813.23,514.992 1813.95,499.226 1811.53,483.859C1808.75,466.267 1801.12,448.098 1785.8,439.018C1777.51,434.103 1767.24,431.986 1760.89,424.733C1755.72,418.822 1754.29,410.828 1752.23,403.127C1748.96,411.329 1743.84,418.795 1737.58,425.423C1748.8,437.959 1758.57,450.417 1755.57,471.875C1753.81,484.498 1748.97,496.448 1745.26,508.643C1741.28,521.751 1738.87,536.216 1742.64,549.028C1751.34,544.567 1759.69,539.303 1768.55,535.109C1781.39,529.027 1796.41,525.254 1809.74,530.137Z" style="fill:url(#_Linear5);"/>
        <path d="M2051.51,256.213C2061.85,260.262 2071.8,266.775 2076.94,276.624C2080.56,283.581 2081.49,291.577 2082.53,299.353C2085.78,323.642 2090.78,348.019 2101.55,370.028C2112.33,392.037 2129.42,411.666 2151.8,421.64C2152.23,421.832 2152.67,422.019 2153.1,422.204C2156.68,415.084 2158.88,407.319 2158.41,399.422C2157.78,388.718 2152.32,378.425 2153.54,367.772C2154.06,363.225 2155.74,359.045 2158.06,355.137C2148.09,323.463 2132.05,294.101 2108.99,271.529C2095.52,258.348 2080.22,247.566 2063.76,238.935C2057.07,244.236 2049.93,248.975 2042.41,252.882C2045.43,254.02 2048.52,255.042 2051.51,256.213Z" style="fill:url(#_Linear6);"/>
        <path d="M1922.47,232.924C1925.54,232.607 1928.62,231.889 1931.68,232.289C1938.74,233.211 1943.56,239.558 1948.57,244.618C1965.13,261.369 1990.82,267.085 2013.99,262.833C2023.94,261.007 2033.45,257.534 2042.41,252.882C2038.23,251.306 2034.17,249.503 2030.68,246.752C2023.31,240.95 2019.7,231.03 2020.85,221.786C1999.47,215.547 1977.2,212.076 1955.16,210.963C1932.7,209.829 1910.02,211.015 1887.71,214.503C1894.57,226.468 1908.64,234.354 1922.47,232.924Z" style="fill:url(#_Linear7);"/>
        <path d="M2090.28,541.56C2088.67,542.124 2087.02,542.582 2085.33,542.899C2078.72,544.132 2071.87,543.11 2065.22,544.087C2054.92,545.6 2045.78,551.865 2038.86,559.647C2038.77,559.753 2038.68,559.863 2038.58,559.97C2038.79,559.956 2039,559.943 2039.21,559.93C2054.45,558.964 2069.69,557.997 2084.93,557.031C2087.01,556.899 2089.2,556.804 2091.3,556.981C2090.57,551.881 2090.23,546.715 2090.28,541.56Z" style="fill:url(#_Linear8);"/>
        <path d="M2170.63,427.757C2170.11,416.224 2168.92,404.564 2167.01,392.974C2164.91,380.187 2161.95,367.486 2158.06,355.137C2155.74,359.045 2154.06,363.225 2153.54,367.772C2152.32,378.425 2157.78,388.718 2158.41,399.422C2158.88,407.319 2156.68,415.084 2153.1,422.204C2151.66,425.063 2150,427.82 2148.2,430.437C2141.92,439.572 2133.94,447.393 2126.69,455.781C2108.69,476.613 2094.84,501.786 2091.17,529.076C2090.61,533.202 2090.32,537.377 2090.28,541.56C2090.23,546.715 2090.57,551.881 2091.3,556.981C2094.27,557.231 2097.08,558.02 2099.23,560.012C2102.9,563.421 2101.45,571.447 2096.44,571.248C2127.96,572.498 2147.21,547.775 2158.18,518.735C2165.44,499.521 2169.07,478.416 2170.23,461.694C2171,450.639 2171.15,439.261 2170.63,427.757Z" style="fill:url(#_Linear9);"/>
        <path d="M1768.55,535.109C1759.69,539.303 1751.34,544.567 1742.64,549.028C1744.33,554.8 1747.28,560.236 1751.89,565.062C1761.09,574.671 1773.69,578.47 1786.57,579.233C1797.71,564.824 1805.64,547.91 1809.74,530.137C1796.41,525.254 1781.39,529.027 1768.55,535.109Z" style="fill:url(#_Linear10);"/>
        <path d="M1937.14,534.758C1915.52,527.465 1891,531.761 1871.3,543.275C1866.1,546.313 1861,549.903 1855.06,550.921C1846.72,552.352 1838.4,548.416 1831.39,543.668C1824.39,538.92 1817.88,533.177 1809.95,530.213L1809.74,530.137C1805.64,547.91 1797.71,564.824 1786.57,579.233C1792.34,579.574 1798.17,579.308 1803.78,578.679C1859.74,572.398 1915.89,568.06 1972.07,564.275C1964.84,550.622 1951.92,539.741 1937.14,534.758Z" style="fill:url(#_Linear11);"/>
        <path d="M1786.69,614.955C1788.83,616.259 1791.05,617.414 1793.32,618.451C1793.23,618.107 1793.18,617.749 1793.18,617.378L1793.18,589.726C1793.18,587.264 1795.18,585.268 1797.64,585.268L1901.5,585.268C1903.96,585.268 1905.95,587.264 1905.95,589.726L1905.95,615.705C1910.31,613.993 1914.59,612.104 1918.78,610.027C1933.43,602.776 1947.72,592.982 1963.55,588.278C1964.15,586.528 1965.81,585.268 1967.76,585.268L2071.62,585.268C2072.59,585.268 2073.49,585.583 2074.22,586.112C2082.2,584.099 2090,581.401 2097.51,578.027L1764.99,578.027C1765.88,593.648 1772.18,606.125 1786.69,614.955Z" style="fill:rgb(196,154,108);fill-rule:nonzero;"/>
        <path d="M1820.02,625.752C1842.38,628.994 1865.37,627.589 1887.21,621.836L1802.2,621.836C1808,623.655 1814.01,624.88 1820.02,625.752Z" style="fill:rgb(196,154,108);fill-rule:nonzero;"/>
        <path d="M1899.14,610.716C1899.14,613.178 1897.14,615.174 1894.68,615.174L1804.46,615.174C1802,615.174 1800,613.178 1800,610.716L1800,596.388C1800,593.926 1802,591.93 1804.46,591.93L1894.68,591.93C1897.14,591.93 1899.14,593.926 1899.14,596.388L1899.14,610.716ZM1802.2,621.836L1887.21,621.836C1893.57,620.16 1899.83,618.114 1905.95,615.705L1905.95,589.726C1905.95,587.264 1903.96,585.268 1901.5,585.268L1797.64,585.268C1795.18,585.268 1793.18,587.264 1793.18,589.726L1793.18,617.378C1793.18,617.749 1793.23,618.107 1793.32,618.451L1802.2,621.836Z" style="fill:rgb(169,124,80);fill-rule:nonzero;"/>
        <path d="M1894.68,591.93L1804.46,591.93C1802,591.93 1800,593.926 1800,596.388L1800,610.716C1800,613.178 1802,615.174 1804.46,615.174L1894.68,615.174C1897.14,615.174 1899.14,613.178 1899.14,610.716L1899.14,596.388C1899.14,593.926 1897.14,591.93 1894.68,591.93Z" style="fill:rgb(139,94,60);fill-rule:nonzero;"/>
        <path d="M1877.97,608.562L1821.17,608.562C1819.89,608.562 1818.85,607.523 1818.85,606.241L1818.85,601.765C1818.85,600.484 1819.89,599.445 1821.17,599.445C1822.45,599.445 1823.49,600.484 1823.49,601.765L1823.49,603.921L1875.65,603.921L1875.65,601.765C1875.65,600.484 1876.68,599.445 1877.97,599.445C1879.25,599.445 1880.29,600.484 1880.29,601.765L1880.29,606.241C1880.29,607.523 1879.25,608.562 1877.97,608.562Z" style="fill:rgb(117,76,41);fill-rule:nonzero;"/>
        <path d="M1967.76,585.268C1965.81,585.268 1964.15,586.528 1963.55,588.278C1967.53,587.093 1971.61,586.225 1975.82,585.809C1996.55,583.756 2017.29,590.342 2038,590.486C2050.19,590.571 2062.4,589.094 2074.22,586.112C2073.49,585.583 2072.59,585.268 2071.62,585.268L1967.76,585.268Z" style="fill:rgb(169,124,80);fill-rule:nonzero;"/>
        <path d="M2145.13,556.12L1747.33,556.12C1741.28,556.12 1736.38,561.024 1736.38,567.074C1736.38,573.123 1741.28,578.027 1747.33,578.027L2145.13,578.027C2150.97,578.027 2155.74,573.463 2156.07,567.711C2156.08,567.5 2156.09,567.288 2156.09,567.074C2156.09,561.024 2151.18,556.12 2145.13,556.12Z" style="fill:rgb(169,124,80);fill-rule:nonzero;"/>
        <path d="M1751.16,463.309C1751.16,482.499 1735.6,498.056 1716.41,498.056C1697.22,498.056 1681.66,482.499 1681.66,463.309C1681.66,444.119 1697.22,428.562 1716.41,428.562C1735.6,428.562 1751.16,444.119 1751.16,463.309Z" style="fill:url(#_Linear12);"/>
        <path d="M1718.07,412.707C1718.07,420.918 1711.41,427.575 1703.2,427.575C1694.99,427.575 1688.33,420.918 1688.33,412.707C1688.33,404.495 1694.99,397.838 1703.2,397.838C1711.41,397.838 1718.07,404.495 1718.07,412.707Z" style="fill:url(#_Linear13);"/>
        <path d="M2041.83,409.978C2049.67,400.329 2047.22,385.177 2039.15,375.718C2031.08,366.26 2018.83,361.472 2006.75,358.508C1999.55,356.741 1991.45,354.989 1987.36,348.803C1982.5,341.443 1985.72,331.577 1984.2,322.889C1982.72,314.464 1976.26,307.108 1968.1,304.548C1952.6,299.687 1934.62,311.305 1920.1,304.036C1911.3,299.634 1906.96,289.745 1900.3,282.51C1898.27,280.311 1895.92,278.29 1893.09,277.326C1888.8,275.865 1884.04,277.044 1879.89,278.874C1861.19,287.12 1850.04,309.622 1854.81,329.501L1856.47,364.318L1953.85,408.428L2041.83,409.978Z" style="fill:url(#_Linear14);"/>
        <path d="M2110.03,529.027L1863.27,529.027L1863.27,388.32L2110.03,388.32L2110.03,529.027ZM2128.98,538.563L2128.98,382.048C2128.98,373.687 2122.21,366.909 2113.85,366.909L1859.45,366.909C1851.09,366.909 1844.31,373.687 1844.31,382.048L1844.31,538.563L1844.3,545.894L2128.99,545.894L2128.98,538.563Z" style="fill:url(#_Linear15);"/>
        <path d="M2133.97,562.878L1839.33,562.878C1830.51,562.878 1822.94,556.602 1821.3,547.934C1820.65,544.469 1823.3,541.263 1826.83,541.263L2146.46,541.263C2149.99,541.263 2152.65,544.469 2151.99,547.934C2150.36,556.602 2142.79,562.878 2133.97,562.878Z" style="fill:rgb(225,225,229);fill-rule:nonzero;"/>
        <path d="M2027.95,550.643L1945.35,550.643C1943.72,550.643 1942.4,549.322 1942.4,547.692L1942.4,541.263L2030.9,541.263L2030.9,547.692C2030.9,549.322 2029.58,550.643 2027.95,550.643Z" style="fill:white;fill-rule:nonzero;"/>
        <rect x="1863.27" y="388.321" width="246.76" height="140.705" style="fill:white;fill-rule:nonzero;"/>
        <rect x="1872.69" y="399.986" width="87.67" height="81.447" style="fill:url(#_Linear16);"/>
        <rect x="1872.69" y="491.127" width="87.67" height="26.235" style="fill:url(#_Linear17);"/>
        <rect x="1968.59" y="399.986" width="132.01" height="26.235" style="fill:url(#_Linear18);"/>
        <rect x="1968.59" y="436.492" width="132.01" height="80.87" style="fill:url(#_Linear19);"/>
        <path d="M2098.96,327.4C2098.96,322.36 2094.88,318.275 2089.84,318.275L1883.45,318.275C1878.42,318.275 1874.33,322.36 1874.33,327.4L1874.33,330.471L2098.96,330.487L2098.96,327.4Z" style="fill:rgb(241,242,242);fill-rule:nonzero;"/>
        <path d="M1890.72,324.381C1890.72,326.375 1889.1,327.991 1887.11,327.991C1885.12,327.991 1883.5,326.375 1883.5,324.381C1883.5,322.388 1885.12,320.771 1887.11,320.771C1889.1,320.771 1890.72,322.388 1890.72,324.381Z" style="fill:white;fill-rule:nonzero;"/>
        <path d="M1904.17,324.381C1904.17,326.375 1902.56,327.991 1900.56,327.991C1898.57,327.991 1896.95,326.375 1896.95,324.381C1896.95,322.388 1898.57,320.771 1900.56,320.771C1902.56,320.771 1904.17,322.388 1904.17,324.381Z" style="fill:white;fill-rule:nonzero;"/>
        <path d="M1904.17,330.474L1874.33,330.471L1874.33,529.043L2098.96,529.043L2098.96,330.487L1904.17,330.474Z" style="fill:white;fill-rule:nonzero;"/>
        <rect x="1874.33" y="330.471" width="224.63" height="65.032" style="fill:url(#_Linear20);"/>
        <path d="M1944.07,357.68L1958.93,357.68L1964.49,368.294L1944.07,368.294L1944.07,357.68Z" style="fill:url(#_Linear21);"/>
        <rect x="1913.5" y="344.912" width="11.44" height="36.15" style="fill:url(#_Linear22);"/>
        <rect x="1907.7" y="344.912" width="5.8" height="36.15" style="fill:url(#_Linear23);"/>
        <path d="M1924.94,344.912L1944.07,354.861L1944.07,371.113L1924.94,381.062L1924.94,344.912Z" style="fill:url(#_Linear24);"/>
        <path d="M1944.07,369.001L1944.07,371.113L1953.74,371.113L1953.74,354.861L1950.71,354.861L1950.71,369.001L1944.07,369.001Z" style="fill:url(#_Linear25);"/>
        <rect x="1944.07" y="354.861" width="6.64" height="14.14" style="fill:url(#_Linear26);"/>
        <rect x="1944.07" y="354.861" width="6.64" height="14.14" style="fill:url(#_Linear27);fill-rule:nonzero;"/>
        <path d="M2087.52,342.026L1984.09,338.453L1981.19,342.026L1981.19,355.692L1973.08,360.656L1973.35,363.57L1981.19,368.448L1981.19,387.522L2087.52,387.522L2090.42,383.949L2087.52,342.026Z" style="fill:url(#_Linear28);"/>
        <path d="M1984.09,338.453L1984.09,353.914L1973.08,360.656L1984.09,367.398L1984.09,383.949L2090.42,383.949L2090.42,338.453L1984.09,338.453Z" style="fill:url(#_Linear29);"/>
        <path d="M2037.26,348.159L2012.79,348.159C2011.96,348.159 2011.28,347.469 2011.28,346.619C2011.28,345.769 2011.96,345.08 2012.79,345.08L2037.26,345.08C2038.09,345.08 2038.76,345.769 2038.76,346.619C2038.76,347.469 2038.09,348.159 2037.26,348.159Z" style="fill:white;fill-rule:nonzero;"/>
        <path d="M2008.48,348.159L2003.95,348.159C2003.12,348.159 2002.45,347.469 2002.45,346.619C2002.45,345.769 2003.12,345.08 2003.95,345.08L2008.48,345.08C2009.31,345.08 2009.98,345.769 2009.98,346.619C2009.98,347.469 2009.31,348.159 2008.48,348.159Z" style="fill:white;fill-rule:nonzero;"/>
        <path d="M2070.57,359.036L2057.71,359.036C2056.89,359.036 2056.21,358.347 2056.21,357.497C2056.21,356.647 2056.89,355.958 2057.71,355.958L2070.57,355.958C2071.4,355.958 2072.07,356.647 2072.07,357.497C2072.07,358.347 2071.4,359.036 2070.57,359.036Z" style="fill:white;fill-rule:nonzero;"/>
        <path d="M2053.11,359.036L2003.95,359.036C2003.12,359.036 2002.45,358.347 2002.45,357.497C2002.45,356.647 2003.12,355.958 2003.95,355.958L2053.11,355.958C2053.94,355.958 2054.61,356.647 2054.61,357.497C2054.61,358.347 2053.94,359.036 2053.11,359.036Z" style="fill:white;fill-rule:nonzero;"/>
        <path d="M2066.84,366.697C2067.67,367.879 2068.17,369.323 2068.17,370.883C2068.17,374.882 2064.93,378.124 2060.93,378.124L2005.79,378.124C2005.09,378.124 2004.42,378.023 2003.78,377.84C2005.09,379.688 2007.25,380.894 2009.69,380.894L2064.83,380.894C2068.83,380.894 2072.07,377.653 2072.07,373.654C2072.07,370.351 2069.86,367.567 2066.84,366.697Z" style="fill:url(#_Linear30);"/>
        <path d="M2060.93,378.124C2064.93,378.124 2068.17,374.882 2068.17,370.883C2068.17,369.323 2067.67,367.879 2066.84,366.697C2066.2,366.514 2065.53,366.413 2064.83,366.413L2009.69,366.413C2005.69,366.413 2002.45,369.655 2002.45,373.654C2002.45,375.214 2002.94,376.658 2003.78,377.84C2004.42,378.023 2005.09,378.124 2005.79,378.124L2060.93,378.124Z" style="fill:url(#_Linear31);"/>
        <path d="M2059.76,374.694L2035.69,374.694C2035.13,374.694 2034.67,374.228 2034.67,373.654C2034.67,373.079 2035.13,372.614 2035.69,372.614L2059.76,372.614C2060.32,372.614 2060.78,373.079 2060.78,373.654C2060.78,374.228 2060.32,374.694 2059.76,374.694Z" style="fill:white;fill-rule:nonzero;"/>
        <path d="M2017.18,374.694L2014.75,374.694C2014.19,374.694 2013.74,374.228 2013.74,373.654C2013.74,373.079 2014.19,372.614 2014.75,372.614L2017.18,372.614C2017.74,372.614 2018.2,373.079 2018.2,373.654C2018.2,374.228 2017.74,374.694 2017.18,374.694Z" style="fill:white;fill-rule:nonzero;"/>
        <path d="M2032.68,374.694L2020.09,374.694C2019.53,374.694 2019.08,374.228 2019.08,373.654C2019.08,373.079 2019.53,372.614 2020.09,372.614L2032.68,372.614C2033.24,372.614 2033.69,373.079 2033.69,373.654C2033.69,374.228 2033.24,374.694 2032.68,374.694Z" style="fill:white;fill-rule:nonzero;"/>
        <rect x="1874.33" y="344.912" width="33.37" height="36.15" style="fill:url(#_Linear32);"/>
        <path d="M2089.94,407.401L2028.32,407.401C2027.27,407.401 2026.42,406.551 2026.42,405.502C2026.42,404.453 2027.27,403.602 2028.32,403.602L2089.94,403.602C2090.99,403.602 2091.84,404.453 2091.84,405.502C2091.84,406.551 2090.99,407.401 2089.94,407.401Z" style="fill:url(#_Linear33);"/>
        <path d="M2021.76,407.401L1994.34,407.401C1993.29,407.401 1992.44,406.551 1992.44,405.502C1992.44,404.453 1993.29,403.602 1994.34,403.602L2021.76,403.602C2022.8,403.602 2023.65,404.453 2023.65,405.502C2023.65,406.551 2022.8,407.401 2021.76,407.401Z" style="fill:url(#_Linear34);"/>
        <path d="M2089.94,418.249L2054.56,418.249C2053.51,418.249 2052.66,417.398 2052.66,416.349C2052.66,415.3 2053.51,414.45 2054.56,414.45L2089.94,414.45C2090.99,414.45 2091.84,415.3 2091.84,416.349C2091.84,417.398 2090.99,418.249 2089.94,418.249Z" style="fill:url(#_Linear35);"/>
        <path d="M2049.15,418.249L1994.34,418.249C1993.29,418.249 1992.44,417.398 1992.44,416.349C1992.44,415.3 1993.29,414.45 1994.34,414.45L2049.15,414.45C2050.2,414.45 2051.05,415.3 2051.05,416.349C2051.05,417.398 2050.2,418.249 2049.15,418.249Z" style="fill:url(#_Linear36);"/>
        <path d="M2089.94,430.018L2034.36,430.018C2033.31,430.018 2032.46,429.168 2032.46,428.119C2032.46,427.07 2033.31,426.22 2034.36,426.22L2089.94,426.22C2090.99,426.22 2091.84,427.07 2091.84,428.119C2091.84,429.168 2090.99,430.018 2089.94,430.018Z" style="fill:url(#_Linear37);"/>
        <path d="M2027.63,430.018L1994.34,430.018C1993.29,430.018 1992.44,429.168 1992.44,428.119C1992.44,427.07 1993.29,426.22 1994.34,426.22L2027.63,426.22C2028.68,426.22 2029.53,427.07 2029.53,428.119C2029.53,429.168 2028.68,430.018 2027.63,430.018Z" style="fill:url(#_Linear38);"/>
        <path d="M2089.94,441.788L2050.59,441.788C2049.54,441.788 2048.69,440.937 2048.69,439.888C2048.69,438.839 2049.54,437.989 2050.59,437.989L2089.94,437.989C2090.99,437.989 2091.84,438.839 2091.84,439.888C2091.84,440.937 2090.99,441.788 2089.94,441.788Z" style="fill:url(#_Linear39);"/>
        <path d="M2044.66,441.788L1994.34,441.788C1993.29,441.788 1992.44,440.937 1992.44,439.888C1992.44,438.839 1993.29,437.989 1994.34,437.989L2044.66,437.989C2045.71,437.989 2046.56,438.839 2046.56,439.888C2046.56,440.937 2045.71,441.788 2044.66,441.788Z" style="fill:url(#_Linear40);"/>
        <path d="M2089.94,453.557L2019.51,453.557C2018.46,453.557 2017.61,452.707 2017.61,451.658C2017.61,450.609 2018.46,449.758 2019.51,449.758L2089.94,449.758C2090.99,449.758 2091.84,450.609 2091.84,451.658C2091.84,452.707 2090.99,453.557 2089.94,453.557Z" style="fill:url(#_Linear41);"/>
        <path d="M2013.58,453.557L1994.34,453.557C1993.29,453.557 1992.44,452.707 1992.44,451.658C1992.44,450.609 1993.29,449.758 1994.34,449.758L2013.58,449.758C2014.63,449.758 2015.48,450.609 2015.48,451.658C2015.48,452.707 2014.63,453.557 2013.58,453.557Z" style="fill:url(#_Linear42);"/>
        <path d="M1978.95,430.018L1939.91,430.018C1938.86,430.018 1938.01,429.168 1938.01,428.119C1938.01,427.07 1938.86,426.22 1939.91,426.22L1978.95,426.22C1980,426.22 1980.85,427.07 1980.85,428.119C1980.85,429.168 1980,430.018 1978.95,430.018Z" style="fill:url(#_Linear43);"/>
        <path d="M1934.85,430.018L1913.42,430.018C1912.37,430.018 1911.52,429.168 1911.52,428.119C1911.52,427.07 1912.37,426.22 1913.42,426.22L1934.85,426.22C1935.89,426.22 1936.74,427.07 1936.74,428.119C1936.74,429.168 1935.89,430.018 1934.85,430.018Z" style="fill:url(#_Linear44);"/>
        <path d="M1908.24,430.018L1883.35,430.018C1882.3,430.018 1881.45,429.168 1881.45,428.119C1881.45,427.07 1882.3,426.22 1883.35,426.22L1908.24,426.22C1909.29,426.22 1910.14,427.07 1910.14,428.119C1910.14,429.168 1909.29,430.018 1908.24,430.018Z" style="fill:url(#_Linear45);"/>
        <path d="M1978.95,441.788L1952.85,441.788C1951.8,441.788 1950.95,440.937 1950.95,439.888C1950.95,438.839 1951.8,437.989 1952.85,437.989L1978.95,437.989C1980,437.989 1980.85,438.839 1980.85,439.888C1980.85,440.937 1980,441.788 1978.95,441.788Z" style="fill:url(#_Linear46);"/>
        <path d="M1947.62,441.788L1883.35,441.788C1882.3,441.788 1881.45,440.937 1881.45,439.888C1881.45,438.839 1882.3,437.989 1883.35,437.989L1947.62,437.989C1948.67,437.989 1949.52,438.839 1949.52,439.888C1949.52,440.937 1948.67,441.788 1947.62,441.788Z" style="fill:url(#_Linear47);"/>
        <path d="M1978.95,453.557L1944.05,453.557C1943.01,453.557 1942.16,452.707 1942.16,451.658C1942.16,450.609 1943.01,449.758 1944.05,449.758L1978.95,449.758C1980,449.758 1980.85,450.609 1980.85,451.658C1980.85,452.707 1980,453.557 1978.95,453.557Z" style="fill:url(#_Linear48);"/>
        <path d="M1938.76,453.557L1901.68,453.557C1900.63,453.557 1899.78,452.707 1899.78,451.658C1899.78,450.609 1900.63,449.758 1901.68,449.758L1938.76,449.758C1939.81,449.758 1940.66,450.609 1940.66,451.658C1940.66,452.707 1939.81,453.557 1938.76,453.557Z" style="fill:url(#_Linear49);"/>
        <path d="M1895.35,453.557L1883.35,453.557C1882.3,453.557 1881.45,452.707 1881.45,451.658C1881.45,450.609 1882.3,449.758 1883.35,449.758L1895.35,449.758C1896.4,449.758 1897.25,450.609 1897.25,451.658C1897.25,452.707 1896.4,453.557 1895.35,453.557Z" style="fill:url(#_Linear50);"/>
        <rect x="1881.45" y="403.602" width="99.4" height="15.165" style="fill:url(#_Linear51);"/>
        <rect x="1874.33" y="461.318" width="224.63" height="41.783" style="fill:url(#_Linear52);"/>
        <path d="M2011.58,473.541L1960.01,473.541C1959.12,473.541 1958.4,472.751 1958.4,471.777C1958.4,470.802 1959.12,470.013 1960.01,470.013L2011.58,470.013C2012.46,470.013 2013.18,470.802 2013.18,471.777C2013.18,472.751 2012.46,473.541 2011.58,473.541Z" style="fill:white;fill-rule:nonzero;"/>
        <path d="M2024.51,473.541L2017.38,473.541C2016.49,473.541 2015.77,472.751 2015.77,471.777C2015.77,470.803 2016.49,470.013 2017.38,470.013L2024.51,470.013C2025.4,470.013 2026.12,470.803 2026.12,471.777C2026.12,472.751 2025.4,473.541 2024.51,473.541Z" style="fill:white;fill-rule:nonzero;"/>
        <path d="M1986.33,483.973L1960.01,483.973C1959.12,483.973 1958.4,483.183 1958.4,482.209C1958.4,481.235 1959.12,480.445 1960.01,480.445L1986.33,480.445C1987.22,480.445 1987.94,481.235 1987.94,482.209C1987.94,483.183 1987.22,483.973 1986.33,483.973Z" style="fill:white;fill-rule:nonzero;"/>
        <path d="M2016.3,483.973L1991.69,483.973C1990.8,483.973 1990.08,483.183 1990.08,482.209C1990.08,481.235 1990.8,480.445 1991.69,480.445L2016.3,480.445C2017.19,480.445 2017.91,481.235 2017.91,482.209C2017.91,483.183 2017.19,483.973 2016.3,483.973Z" style="fill:white;fill-rule:nonzero;"/>
        <path d="M2084.77,483.973L2020.94,483.973C2020.06,483.973 2019.34,483.183 2019.34,482.209C2019.34,481.235 2020.06,480.445 2020.94,480.445L2084.77,480.445C2085.65,480.445 2086.37,481.235 2086.37,482.209C2086.37,483.183 2085.65,483.973 2084.77,483.973Z" style="fill:white;fill-rule:nonzero;"/>
        <path d="M1999.71,494.406L1960.01,494.406C1959.12,494.406 1958.4,493.616 1958.4,492.642C1958.4,491.667 1959.12,490.878 1960.01,490.878L1999.71,490.878C2000.6,490.878 2001.32,491.667 2001.32,492.642C2001.32,493.616 2000.6,494.406 1999.71,494.406Z" style="fill:white;fill-rule:nonzero;"/>
        <path d="M2059.77,494.406L2005.07,494.406C2004.18,494.406 2003.46,493.616 2003.46,492.642C2003.46,491.667 2004.18,490.878 2005.07,490.878L2059.77,490.878C2060.65,490.878 2061.37,491.667 2061.37,492.642C2061.37,493.616 2060.65,494.406 2059.77,494.406Z" style="fill:white;fill-rule:nonzero;"/>
        <path d="M2084.77,494.406L2064.41,494.406C2063.52,494.406 2062.8,493.616 2062.8,492.642C2062.8,491.667 2063.52,490.878 2064.41,490.878L2084.77,490.878C2085.65,490.878 2086.37,491.667 2086.37,492.642C2086.37,493.616 2085.65,494.406 2084.77,494.406Z" style="fill:white;fill-rule:nonzero;"/>
        <path d="M1935.45,512.505L1883.88,512.505C1882.99,512.505 1882.27,511.716 1882.27,510.741C1882.27,509.767 1882.99,508.977 1883.88,508.977L1935.45,508.977C1936.34,508.977 1937.06,509.767 1937.06,510.741C1937.06,511.716 1936.34,512.505 1935.45,512.505Z" style="fill:url(#_Linear53);"/>
        <path d="M1948.39,512.505L1941.25,512.505C1940.36,512.505 1939.64,511.715 1939.64,510.741C1939.64,509.767 1940.36,508.977 1941.25,508.977L1948.39,508.977C1949.27,508.977 1949.99,509.767 1949.99,510.741C1949.99,511.715 1949.27,512.505 1948.39,512.505Z" style="fill:url(#_Linear54);"/>
        <path d="M2008.5,512.505L1955.86,512.505C1954.98,512.505 1954.26,511.715 1954.26,510.741C1954.26,509.767 1954.98,508.977 1955.86,508.977L2008.5,508.977C2009.39,508.977 2010.1,509.767 2010.1,510.741C2010.1,511.715 2009.39,512.505 2008.5,512.505Z" style="fill:url(#_Linear55);"/>
        <path d="M1910.21,522.938L1883.88,522.938C1882.99,522.938 1882.27,522.148 1882.27,521.174C1882.27,520.2 1882.99,519.41 1883.88,519.41L1910.21,519.41C1911.1,519.41 1911.81,520.2 1911.81,521.174C1911.81,522.148 1911.1,522.938 1910.21,522.938Z" style="fill:url(#_Linear56);"/>
        <path d="M1940.18,522.938L1915.56,522.938C1914.67,522.938 1913.96,522.148 1913.96,521.174C1913.96,520.2 1914.67,519.41 1915.56,519.41L1940.18,519.41C1941.07,519.41 1941.79,520.2 1941.79,521.174C1941.79,522.148 1941.07,522.938 1940.18,522.938Z" style="fill:url(#_Linear57);"/>
        <path d="M2050.64,522.938L1944.82,522.938C1943.93,522.938 1943.21,522.148 1943.21,521.174C1943.21,520.2 1943.93,519.41 1944.82,519.41L2050.64,519.41C2051.53,519.41 2052.25,520.2 2052.25,521.174C2052.25,522.148 2051.53,522.938 2050.64,522.938Z" style="fill:url(#_Linear58);"/>
        <rect x="1882.27" y="470.013" width="71.13" height="24.393" style="fill:url(#_Linear59);"/>
        <path d="M1806.17,521.044C1812.32,523.572 1820.68,518.819 1828.68,509.368L1809,514.146L1806.17,521.044Z" style="fill:url(#_Linear60);"/>
        <path d="M1806.11,466.472C1804.86,469.528 1803.75,472.565 1802.8,475.552L1812.87,504.749L1817.22,494.157L1822.68,480.884L1812.99,454.161C1810.33,457.876 1807.96,461.979 1806.11,466.472Z" style="fill:url(#_Linear61);"/>
        <path d="M1806.17,521.044L1809,514.146L1812.87,504.749L1802.8,475.552C1795.68,497.756 1796.81,517.194 1806.17,521.044Z" style="fill:url(#_Linear62);"/>
        <path d="M1834.69,451.659L1829.79,437.048C1824.27,441.304 1818.1,447.01 1812.99,454.161L1822.68,480.884L1831.38,459.704L1834.69,451.659Z" style="fill:url(#_Linear63);"/>
        <clipPath id="_clip64">
            <path d="M1831.38,459.704"/>
        </clipPath>
        <g clip-path="url(#_clip64)">
            <path d="M1831.38,459.704C1831.38,459.704 1831.38,459.704 1831.38,459.704Z" style="fill:url(#_Linear65);fill-rule:nonzero;"/>
        </g>
        <path d="M1844.53,427.715C1844.53,427.715 1837.85,430.835 1829.79,437.048L1834.69,451.659L1844.53,427.715Z" style="fill:url(#_Linear66);"/>
        <path d="M1809,514.146L1828.68,509.368C1833.11,504.126 1837.44,497.437 1841.23,489.744L1817.22,494.157L1809,514.146Z" style="fill:url(#_Linear67);"/>
        <path d="M1831.38,459.704L1817.22,494.157L1841.23,489.744C1842.4,487.351 1843.53,484.861 1844.59,482.286C1845.5,480.073 1846.25,477.839 1846.86,475.602L1831.38,459.704Z" style="fill:url(#_Linear68);"/>
        <path d="M1831.38,459.704L1846.86,475.602C1848.78,468.629 1849.38,461.637 1849.26,455.232L1831.38,459.704Z" style="fill:url(#_Linear69);"/>
        <path d="M1831.38,459.704L1849.26,455.232C1848.98,439.756 1844.53,427.715 1844.53,427.715L1834.69,451.659L1831.38,459.704Z" style="fill:url(#_Linear70);"/>
        <path d="M1775.81,480.964L1783.1,498.717L1793.39,469.127C1793.05,468.244 1792.7,467.359 1792.34,466.472C1790.07,460.953 1787.01,456.023 1783.6,451.678L1775.81,480.964Z" style="fill:url(#_Linear71);"/>
        <clipPath id="_clip72">
            <path d="M1775.81,480.964"/>
        </clipPath>
        <g clip-path="url(#_clip72)">
            <path d="M1775.81,480.964C1775.81,480.964 1775.81,480.964 1775.81,480.964Z" style="fill:url(#_Linear73);fill-rule:nonzero;"/>
        </g>
        <path d="M1753.92,427.715L1762.98,449.768L1764.94,454.539L1766.74,435.606C1759.57,430.352 1753.92,427.715 1753.92,427.715Z" style="fill:url(#_Linear74);"/>
        <path d="M1766.74,435.606L1764.94,454.539L1769.17,464.829L1775.81,480.964L1783.6,451.678C1778.27,444.876 1772.08,439.516 1766.74,435.606Z" style="fill:url(#_Linear75);"/>
        <path d="M1793.39,469.127L1783.1,498.717L1792.28,521.044C1802.54,516.827 1802.91,493.901 1793.39,469.127Z" style="fill:url(#_Linear76);"/>
        <path d="M1775.81,480.964L1753.58,481.563C1753.67,481.804 1753.76,482.045 1753.86,482.286C1756.99,489.883 1760.68,496.747 1764.62,502.539L1775.81,480.964Z" style="fill:url(#_Linear77);"/>
        <path d="M1783.1,498.717L1775.81,480.964L1764.62,502.539C1767.49,506.772 1770.49,510.431 1773.48,513.386L1789.31,513.808L1783.1,498.717Z" style="fill:url(#_Linear78);"/>
        <path d="M1773.48,513.386C1780.29,520.107 1787.08,523.183 1792.28,521.044L1789.31,513.808L1773.48,513.386Z" style="fill:url(#_Linear79);"/>
        <path d="M1769.17,464.829L1749.3,461.289C1749.67,467.853 1750.91,474.801 1753.58,481.563L1775.81,480.964L1769.17,464.829Z" style="fill:url(#_Linear80);"/>
        <path d="M1762.98,449.768L1749.66,447.576C1749.22,451.782 1749.02,456.43 1749.3,461.289L1769.17,464.829L1762.98,449.768Z" style="fill:url(#_Linear81);"/>
        <path d="M1753.92,427.715C1753.92,427.715 1750.87,435.962 1749.66,447.576L1762.98,449.768L1753.92,427.715Z" style="fill:url(#_Linear82);"/>
        <path d="M1799.18,415.419C1798.64,416.012 1793.31,422 1788.18,431.296L1799.18,443.905L1799.18,415.419Z" style="fill:url(#_Linear83);"/>
        <path d="M1783.1,497.691C1786.91,509.002 1792.69,516.236 1799.18,516.271L1799.18,508.037L1783.1,497.691Z" style="fill:url(#_Linear84);"/>
        <path d="M1799.18,451.659L1810.85,432.37C1805.28,421.942 1799.23,415.367 1799.23,415.367L1799.18,415.419L1799.18,451.659Z" style="fill:url(#_Linear85);"/>
        <path d="M1799.18,467.142L1799.18,443.905L1788.18,431.296C1784.4,438.15 1780.74,446.801 1779.2,456.418L1799.18,467.142Z" style="fill:url(#_Linear86);"/>
        <path d="M1799.18,467.142L1779.2,456.418C1778.71,459.464 1778.43,462.606 1778.43,465.819C1778.43,468.34 1778.5,470.818 1778.65,473.239L1799.18,467.181L1799.18,467.142Z" style="fill:url(#_Linear87);"/>
        <path d="M1799.18,467.181L1778.65,473.239C1779.21,482.431 1780.79,490.815 1783.1,497.691L1799.18,508.037L1799.18,467.181Z" style="fill:url(#_Linear88);"/>
        <path d="M1799.18,467.181L1799.23,467.167L1799.18,467.142L1799.18,467.181Z" style="fill:url(#_Linear89);"/>
        <path d="M1818.15,451.007L1799.23,467.167L1799.18,467.181L1799.18,495.76L1812.82,482.898L1819.69,459.704C1819.37,456.717 1818.84,453.81 1818.15,451.007Z" style="fill:url(#_Linear90);"/>
        <path d="M1820.02,465.819C1820.02,463.749 1819.9,461.709 1819.69,459.704L1812.82,482.898L1819.55,476.547C1819.86,473.09 1820.02,469.501 1820.02,465.819Z" style="fill:url(#_Linear91);"/>
        <path d="M1799.18,495.76L1799.18,516.271L1799.23,516.272C1809.19,516.272 1817.52,499.257 1819.55,476.547L1799.18,495.76Z" style="fill:url(#_Linear92);"/>
        <path d="M1799.23,467.167L1818.15,451.007C1816.42,444.029 1813.7,437.697 1810.85,432.37L1799.18,451.659L1799.18,467.142L1799.23,467.167Z" style="fill:url(#_Linear93);"/>
        <path d="M1838.32,504.028L1760.14,504.028C1755.02,504.028 1751.35,509.293 1752.79,514.544L1845.66,514.544C1847.1,509.293 1843.43,504.028 1838.32,504.028Z" style="fill:url(#_Linear94);"/>
        <path d="M1779.52,514.544L1752.79,514.544L1754.19,520.097L1775.94,523.884L1779.52,514.544Z" style="fill:url(#_Linear95);"/>
        <path d="M1840.5,535.12L1845.66,514.544L1809.47,514.544L1804.54,528.862L1840.5,535.12Z" style="fill:url(#_Linear96);"/>
        <path d="M1804.54,528.862L1809.47,514.544L1779.52,514.544L1775.94,523.884L1804.54,528.862Z" style="fill:url(#_Linear97);"/>
        <path d="M1775.94,523.884L1754.19,520.097L1756.44,529.068L1768.86,542.37L1775.94,523.884Z" style="fill:url(#_Linear98);"/>
        <path d="M1756.44,529.068L1762.47,553.107C1762.72,554.126 1763.14,555.059 1763.69,555.884L1768.86,542.37L1756.44,529.068Z" style="fill:url(#_Linear99);"/>
        <path d="M1775.94,523.884L1768.86,542.37L1784.96,559.595L1793.96,559.595L1804.54,528.862L1775.94,523.884Z" style="fill:url(#_Linear100);"/>
        <path d="M1804.54,528.862L1793.96,559.595L1828.12,559.595C1831.8,559.595 1835.02,556.936 1835.98,553.107L1840.5,535.12L1804.54,528.862Z" style="fill:url(#_Linear101);"/>
        <path d="M1763.69,555.884C1765.18,558.16 1767.63,559.595 1770.33,559.595L1784.96,559.595L1768.86,542.37L1763.69,555.884Z" style="fill:url(#_Linear102);"/>
        <path d="M1807,302.243C1807.15,301.927 1807.4,301.657 1807.74,301.492C1808.52,301.113 1809.45,301.435 1809.83,302.213C1810.39,303.352 1811.16,304.143 1811.8,304.227C1812.49,304.317 1813.28,303.515 1813.82,302.827C1815.65,300.499 1816.7,297.492 1817.79,294.087C1819.12,289.958 1820.03,285.597 1820.91,281.379C1821.07,280.646 1821.22,279.913 1821.38,279.182C1822.03,276.123 1823.32,272.219 1825.77,270.991C1826.82,270.464 1827.97,270.46 1829.1,270.98C1829.89,271.343 1830.23,272.274 1829.87,273.059C1829.51,273.845 1828.58,274.188 1827.79,273.826C1827.46,273.674 1827.3,273.726 1827.17,273.792C1826.37,274.196 1825.21,276.22 1824.44,279.834C1824.29,280.562 1824.13,281.292 1823.98,282.022C1823.08,286.318 1822.15,290.76 1820.78,295.042C1819.87,297.896 1818.61,301.803 1816.28,304.765C1814.76,306.696 1813.12,307.56 1811.4,307.334C1809.66,307.106 1808.07,305.741 1807.02,303.588C1806.8,303.148 1806.81,302.656 1807,302.243Z" style="fill:url(#_Linear103);"/>
        <path d="M1840.35,216.756L1841.95,213.293C1842.17,212.822 1842.73,212.616 1843.2,212.833C1843.67,213.051 1843.88,213.609 1843.66,214.08L1842.06,217.544C1841.84,218.015 1841.29,218.221 1840.81,218.004C1840.34,217.786 1840.14,217.228 1840.35,216.756Z" style="fill:rgb(147,149,152);fill-rule:nonzero;"/>
        <path d="M1803.89,307.223L1796.94,304.018L1795.35,307.469L1802.3,310.674L1803.89,307.223Z" style="fill:url(#_Linear104);"/>
        <path d="M1800.37,314.871L1802.3,310.674L1795.35,307.469L1793.41,311.666C1793.12,312.311 1793.4,313.076 1794.04,313.374L1798.66,315.501C1799.3,315.798 1800.07,315.517 1800.37,314.871Z" style="fill:url(#_Linear105);"/>
        <path d="M1836.29,226.918C1838.85,228.06 1840.87,229.393 1842.36,230.536L1842.42,230.565C1842.89,229.437 1843.11,228.221 1843.08,226.997L1843.23,216.491C1843.19,215.051 1841.52,214.281 1840.39,215.181L1832.51,222.123C1831.55,222.889 1830.77,223.85 1830.22,224.94L1830.28,224.969C1831.97,225.324 1834.04,225.912 1836.29,226.918Z" style="fill:rgb(209,211,212);fill-rule:nonzero;"/>
        <path d="M1807.37,306.596L1810.53,299.747L1810.46,299.714C1808.98,298.572 1806.96,297.238 1804.4,296.096C1802.14,295.09 1800.07,294.502 1798.39,294.147L1798.31,294.114L1795.16,300.963C1794.29,302.838 1795.11,305.059 1796.99,305.923L1802.41,308.425C1804.29,309.29 1806.51,308.471 1807.37,306.596Z" style="fill:url(#_Linear106);"/>
        <path d="M1810.53,299.747L1812,296.559L1811.93,296.527C1810.45,295.384 1808.43,294.051 1805.87,292.908C1803.61,291.903 1801.54,291.314 1799.85,290.959L1799.78,290.927L1798.31,294.114L1798.39,294.147C1800.07,294.502 1802.14,295.09 1804.4,296.096C1806.96,297.238 1808.98,298.572 1810.46,299.714L1810.53,299.747Z" style="fill:url(#_Linear107);"/>
        <path d="M1834.82,230.105C1837.38,231.248 1839.4,232.581 1840.89,233.724L1840.96,233.756L1842.29,230.863C1842.34,230.764 1842.38,230.664 1842.42,230.565L1842.36,230.536C1840.87,229.393 1838.85,228.06 1836.29,226.918C1834.04,225.912 1831.97,225.324 1830.28,224.969L1830.22,224.94C1830.17,225.036 1830.12,225.132 1830.08,225.23L1828.74,228.124L1828.81,228.157C1830.5,228.512 1832.57,229.1 1834.82,230.105Z" style="fill:url(#_Linear108);"/>
        <path d="M1812,296.559L1840.96,233.756L1840.89,233.724C1839.4,232.581 1837.38,231.248 1834.82,230.105C1832.57,229.1 1830.5,228.512 1828.81,228.157L1828.74,228.124L1799.78,290.927L1799.85,290.959C1801.54,291.314 1803.61,291.903 1805.87,292.908C1808.43,294.051 1810.45,295.384 1811.93,296.527L1812,296.559Z" style="fill:url(#_Linear109);"/>
        <path d="M1807.55,283.407L1816.39,264.23C1816.72,263.523 1817.56,263.214 1818.26,263.54C1818.97,263.866 1819.28,264.704 1818.95,265.411L1810.11,284.588C1809.79,285.295 1808.95,285.604 1808.24,285.278C1807.53,284.952 1807.22,284.114 1807.55,283.407Z" style="fill:white;fill-rule:nonzero;"/>
        <path d="M1818.49,259.685L1820.19,255.991C1820.52,255.284 1821.36,254.975 1822.06,255.301C1822.77,255.627 1823.08,256.465 1822.75,257.172L1821.05,260.865C1820.72,261.573 1819.89,261.882 1819.18,261.555C1818.47,261.229 1818.16,260.392 1818.49,259.685Z" style="fill:white;fill-rule:nonzero;"/>
        <path d="M1846.83,251.948C1860.34,240.486 1878.96,238.765 1895.97,240.092C1905.04,240.8 1914.54,241.919 1923.04,245.303C1931.22,248.556 1938.99,254.897 1940.98,263.845C1942.02,268.478 1941.28,273.73 1938.27,277.506C1935.53,280.928 1930.98,283.057 1926.59,282.178C1922.45,281.349 1919.08,277.988 1917.56,274.132C1915.98,270.091 1916.55,265.585 1918.53,261.786C1923.09,253.028 1933.15,249.74 1942.47,249.801C1950.66,249.854 1958.74,252.293 1965.74,256.492C1973.72,261.281 1980.25,268.352 1984.14,276.83C1988.81,287.03 1989.74,298.473 1989.91,309.549C1989.93,310.674 1991.68,310.677 1991.66,309.549C1991.5,298.832 1990.61,287.85 1986.47,277.844C1982.98,269.405 1977.12,262.221 1969.67,256.963C1962.34,251.798 1953.58,248.619 1944.62,248.118C1934.99,247.579 1924.51,250.225 1918.59,258.38C1913.45,265.452 1913.55,275.565 1920.72,281.255C1927.95,286.988 1938.15,283.239 1941.68,275.161C1945.56,266.299 1941.44,256.432 1934.63,250.324C1926.87,243.364 1916.45,240.958 1906.41,239.519C1888.03,236.886 1867.22,236.425 1850.95,246.744C1849.07,247.936 1847.29,249.272 1845.59,250.711C1844.73,251.44 1845.97,252.673 1846.83,251.948Z" style="fill:white;fill-rule:nonzero;"/>
        <path d="M1908.43,253.077C1907.89,252.53 1907.9,251.652 1908.45,251.116L1910.95,248.666C1911.5,248.13 1912.38,248.14 1912.92,248.688C1913.45,249.235 1913.44,250.113 1912.89,250.648L1910.39,253.099C1909.84,253.634 1908.96,253.625 1908.43,253.077Z" style="fill:white;fill-rule:nonzero;"/>
        <path d="M1901.58,259.775C1901.04,259.228 1901.05,258.35 1901.6,257.815L1904.11,255.364C1904.65,254.829 1905.53,254.838 1906.07,255.386C1906.6,255.933 1906.59,256.811 1906.05,257.347L1903.54,259.797C1902.99,260.333 1902.11,260.323 1901.58,259.775Z" style="fill:white;fill-rule:nonzero;"/>
        <path d="M1910.83,259.878L1908.38,257.372C1907.84,256.825 1907.85,255.947 1908.4,255.412C1908.95,254.876 1909.83,254.886 1910.36,255.433L1912.81,257.939C1913.35,258.486 1913.34,259.364 1912.79,259.9C1912.24,260.435 1911.37,260.425 1910.83,259.878Z" style="fill:white;fill-rule:nonzero;"/>
        <path d="M1904.13,253.03L1901.68,250.524C1901.15,249.977 1901.16,249.099 1901.7,248.564C1902.25,248.028 1903.13,248.038 1903.66,248.585L1906.11,251.091C1906.65,251.638 1906.64,252.516 1906.09,253.051C1905.55,253.587 1904.67,253.577 1904.13,253.03Z" style="fill:white;fill-rule:nonzero;"/>
        <path d="M1863.27,271.515C1862.73,270.968 1862.74,270.09 1863.29,269.554L1865.8,267.104C1866.34,266.568 1867.22,266.578 1867.76,267.125C1868.29,267.673 1868.28,268.551 1867.74,269.086L1865.23,271.537C1864.68,272.072 1863.81,272.063 1863.27,271.515Z" style="fill:white;fill-rule:nonzero;"/>
        <path d="M1856.42,278.213C1855.89,277.666 1855.9,276.788 1856.44,276.252L1858.95,273.802C1859.5,273.266 1860.37,273.276 1860.91,273.824C1861.45,274.371 1861.44,275.249 1860.89,275.784L1858.38,278.235C1857.84,278.77 1856.96,278.761 1856.42,278.213Z" style="fill:white;fill-rule:nonzero;"/>
        <path d="M1865.67,278.316L1863.22,275.81C1862.69,275.263 1862.7,274.385 1863.24,273.849C1863.79,273.314 1864.67,273.324 1865.21,273.871L1867.66,276.377C1868.19,276.924 1868.18,277.802 1867.63,278.337C1867.09,278.873 1866.21,278.863 1865.67,278.316Z" style="fill:white;fill-rule:nonzero;"/>
        <path d="M1858.98,271.468L1856.52,268.962C1855.99,268.415 1856,267.537 1856.55,267.001C1857.09,266.466 1857.97,266.476 1858.51,267.023L1860.96,269.528C1861.49,270.076 1861.48,270.954 1860.94,271.489C1860.39,272.025 1859.51,272.015 1858.98,271.468Z" style="fill:white;fill-rule:nonzero;"/>
        <path d="M1886.48,256.927C1885.98,256.881 1885.61,256.436 1885.66,255.933L1885.87,253.633C1885.92,253.131 1886.36,252.761 1886.86,252.808C1887.37,252.854 1887.74,253.299 1887.69,253.802L1887.48,256.102C1887.43,256.604 1886.98,256.974 1886.48,256.927Z" style="fill:white;fill-rule:nonzero;"/>
        <path d="M1885.9,263.213C1885.4,263.167 1885.03,262.722 1885.07,262.219L1885.29,259.919C1885.33,259.417 1885.78,259.047 1886.28,259.094C1886.78,259.14 1887.15,259.585 1887.11,260.088L1886.89,262.388C1886.85,262.89 1886.4,263.26 1885.9,263.213Z" style="fill:white;fill-rule:nonzero;"/>
        <path d="M1890.59,259.318L1888.29,259.105C1887.79,259.059 1887.42,258.613 1887.47,258.111C1887.51,257.608 1887.96,257.239 1888.46,257.285L1890.76,257.498C1891.26,257.545 1891.63,257.99 1891.58,258.492C1891.54,258.995 1891.09,259.365 1890.59,259.318Z" style="fill:white;fill-rule:nonzero;"/>
        <path d="M1884.3,258.736L1882,258.523C1881.5,258.476 1881.13,258.031 1881.18,257.529C1881.23,257.026 1881.67,256.657 1882.17,256.703L1884.47,256.916C1884.98,256.963 1885.35,257.408 1885.3,257.91C1885.25,258.413 1884.81,258.782 1884.3,258.736Z" style="fill:white;fill-rule:nonzero;"/>
        <path d="M1895.38,262.77C1895.14,262.811 1894.91,262.648 1894.87,262.407L1894.68,261.3C1894.64,261.059 1894.8,260.829 1895.04,260.788C1895.29,260.747 1895.52,260.909 1895.56,261.151L1895.75,262.257C1895.79,262.499 1895.62,262.728 1895.38,262.77Z" style="fill:white;fill-rule:nonzero;"/>
        <path d="M1895.9,265.794C1895.66,265.835 1895.43,265.672 1895.39,265.431L1895.2,264.324C1895.16,264.083 1895.32,263.853 1895.56,263.812C1895.8,263.771 1896.03,263.933 1896.07,264.175L1896.26,265.281C1896.3,265.523 1896.14,265.752 1895.9,265.794Z" style="fill:white;fill-rule:nonzero;"/>
        <path d="M1897.61,263.376L1896.51,263.565C1896.26,263.606 1896.03,263.444 1895.99,263.202C1895.95,262.96 1896.11,262.731 1896.36,262.689L1897.46,262.501C1897.7,262.459 1897.93,262.622 1897.97,262.864C1898.02,263.105 1897.85,263.335 1897.61,263.376Z" style="fill:white;fill-rule:nonzero;"/>
        <path d="M1894.59,263.892L1893.48,264.081C1893.24,264.122 1893.01,263.96 1892.97,263.718C1892.93,263.476 1893.09,263.247 1893.33,263.206L1894.44,263.017C1894.68,262.976 1894.91,263.138 1894.95,263.38C1894.99,263.622 1894.83,263.851 1894.59,263.892Z" style="fill:white;fill-rule:nonzero;"/>
        <path d="M1884.03,280.151C1883.79,280.193 1883.56,280.03 1883.52,279.788L1883.33,278.682C1883.29,278.44 1883.45,278.211 1883.69,278.17C1883.94,278.128 1884.17,278.291 1884.21,278.533L1884.4,279.639C1884.44,279.881 1884.27,280.11 1884.03,280.151Z" style="fill:white;fill-rule:nonzero;"/>
        <path d="M1884.55,283.175C1884.31,283.216 1884.08,283.054 1884.04,282.812L1883.85,281.706C1883.81,281.464 1883.97,281.235 1884.21,281.193C1884.45,281.152 1884.68,281.315 1884.72,281.556L1884.91,282.663C1884.95,282.904 1884.79,283.134 1884.55,283.175Z" style="fill:white;fill-rule:nonzero;"/>
        <path d="M1886.26,280.758L1885.16,280.946C1884.91,280.988 1884.68,280.825 1884.64,280.583C1884.6,280.342 1884.76,280.112 1885.01,280.071L1886.11,279.882C1886.35,279.841 1886.58,280.003 1886.62,280.245C1886.67,280.487 1886.5,280.716 1886.26,280.758Z" style="fill:white;fill-rule:nonzero;"/>
        <path d="M1883.24,281.274L1882.13,281.463C1881.89,281.504 1881.66,281.341 1881.62,281.1C1881.58,280.858 1881.74,280.628 1881.98,280.587L1883.09,280.398C1883.33,280.357 1883.56,280.52 1883.6,280.761C1883.64,281.003 1883.48,281.233 1883.24,281.274Z" style="fill:white;fill-rule:nonzero;"/>
        <path d="M1864.98,253.26C1864.74,253.301 1864.51,253.139 1864.47,252.897L1864.28,251.791C1864.24,251.549 1864.41,251.319 1864.65,251.278C1864.89,251.237 1865.12,251.399 1865.16,251.641L1865.35,252.747C1865.39,252.989 1865.23,253.219 1864.98,253.26Z" style="fill:white;fill-rule:nonzero;"/>
        <path d="M1865.5,256.284C1865.26,256.325 1865.03,256.162 1864.99,255.921L1864.8,254.814C1864.76,254.573 1864.92,254.343 1865.16,254.302C1865.4,254.261 1865.63,254.423 1865.68,254.665L1865.86,255.771C1865.91,256.013 1865.74,256.242 1865.5,256.284Z" style="fill:white;fill-rule:nonzero;"/>
        <path d="M1867.21,253.866L1866.11,254.055C1865.87,254.096 1865.64,253.934 1865.6,253.692C1865.55,253.45 1865.72,253.221 1865.96,253.18L1867.06,252.991C1867.31,252.949 1867.54,253.112 1867.58,253.354C1867.62,253.595 1867.46,253.825 1867.21,253.866Z" style="fill:white;fill-rule:nonzero;"/>
        <path d="M1864.19,254.382L1863.08,254.571C1862.84,254.612 1862.61,254.45 1862.57,254.208C1862.53,253.966 1862.69,253.737 1862.93,253.696L1864.04,253.507C1864.28,253.466 1864.51,253.628 1864.55,253.87C1864.59,254.112 1864.43,254.341 1864.19,254.382Z" style="fill:white;fill-rule:nonzero;"/>
        <path d="M1803.28,394.803C1802.75,394.256 1802.76,393.378 1803.3,392.843L1805.81,390.392C1806.36,389.857 1807.23,389.866 1807.77,390.414C1808.3,390.961 1808.3,391.839 1807.75,392.375L1805.24,394.825C1804.69,395.361 1803.82,395.351 1803.28,394.803Z" style="fill:white;fill-rule:nonzero;"/>
        <path d="M1796.43,401.502C1795.9,400.954 1795.91,400.076 1796.46,399.541L1798.96,397.09C1799.51,396.555 1800.39,396.564 1800.92,397.112C1801.46,397.659 1801.45,398.537 1800.9,399.073L1798.39,401.523C1797.85,402.059 1796.97,402.049 1796.43,401.502Z" style="fill:white;fill-rule:nonzero;"/>
        <path d="M1805.68,401.604L1803.23,399.099C1802.7,398.551 1802.71,397.673 1803.26,397.138C1803.8,396.602 1804.68,396.612 1805.22,397.16L1807.67,399.665C1808.2,400.212 1808.19,401.09 1807.65,401.626C1807.1,402.161 1806.22,402.151 1805.68,401.604Z" style="fill:white;fill-rule:nonzero;"/>
        <path d="M1798.99,394.756L1796.54,392.251C1796,391.703 1796.01,390.825 1796.56,390.29C1797.1,389.754 1797.98,389.764 1798.52,390.311L1800.97,392.817C1801.5,393.364 1801.49,394.242 1800.95,394.778C1800.4,395.313 1799.52,395.303 1798.99,394.756Z" style="fill:white;fill-rule:nonzero;"/>
        <path d="M1758.12,413.241C1757.59,412.694 1757.6,411.816 1758.15,411.281L1760.65,408.83C1761.2,408.294 1762.08,408.304 1762.61,408.852C1763.15,409.399 1763.14,410.277 1762.59,410.812L1760.09,413.263C1759.54,413.798 1758.66,413.789 1758.12,413.241Z" style="fill:white;fill-rule:nonzero;"/>
        <path d="M1751.28,419.939C1750.74,419.392 1750.75,418.514 1751.3,417.979L1753.8,415.528C1754.35,414.993 1755.23,415.002 1755.76,415.55C1756.3,416.097 1756.29,416.975 1755.74,417.511L1753.24,419.961C1752.69,420.497 1751.81,420.487 1751.28,419.939Z" style="fill:white;fill-rule:nonzero;"/>
        <path d="M1760.53,420.042L1758.08,417.536C1757.54,416.989 1757.55,416.111 1758.1,415.576C1758.65,415.04 1759.52,415.05 1760.06,415.597L1762.51,418.103C1763.05,418.65 1763.04,419.528 1762.49,420.064C1761.94,420.599 1761.06,420.589 1760.53,420.042Z" style="fill:white;fill-rule:nonzero;"/>
        <path d="M1753.83,413.194L1751.38,410.688C1750.84,410.141 1750.85,409.263 1751.4,408.728C1751.95,408.192 1752.83,408.202 1753.36,408.749L1755.81,411.255C1756.35,411.802 1756.34,412.68 1755.79,413.216C1755.24,413.751 1754.37,413.741 1753.83,413.194Z" style="fill:white;fill-rule:nonzero;"/>
        <path d="M1781.34,398.654C1780.83,398.607 1780.46,398.162 1780.51,397.659L1780.72,395.36C1780.77,394.857 1781.22,394.487 1781.72,394.534C1782.22,394.581 1782.59,395.026 1782.54,395.528L1782.33,397.828C1782.28,398.33 1781.84,398.7 1781.34,398.654Z" style="fill:white;fill-rule:nonzero;"/>
        <path d="M1780.75,404.939C1780.25,404.893 1779.88,404.448 1779.93,403.945L1780.14,401.646C1780.19,401.143 1780.63,400.773 1781.14,400.82C1781.64,400.866 1782.01,401.312 1781.96,401.814L1781.75,404.114C1781.7,404.616 1781.26,404.986 1780.75,404.939Z" style="fill:white;fill-rule:nonzero;"/>
        <path d="M1785.44,401.044L1783.15,400.831C1782.64,400.785 1782.27,400.34 1782.32,399.837C1782.37,399.335 1782.81,398.965 1783.31,399.011L1785.61,399.224C1786.12,399.271 1786.49,399.716 1786.44,400.219C1786.39,400.721 1785.95,401.091 1785.44,401.044Z" style="fill:white;fill-rule:nonzero;"/>
        <path d="M1779.16,400.462L1776.86,400.249C1776.36,400.203 1775.99,399.757 1776.03,399.255C1776.08,398.752 1776.53,398.383 1777.03,398.429L1779.33,398.642C1779.83,398.689 1780.2,399.134 1780.15,399.636C1780.11,400.139 1779.66,400.509 1779.16,400.462Z" style="fill:white;fill-rule:nonzero;"/>
        <path d="M1790.24,404.496C1790,404.537 1789.77,404.375 1789.72,404.133L1789.54,403.027C1789.49,402.785 1789.66,402.556 1789.9,402.514C1790.14,402.473 1790.37,402.635 1790.41,402.877L1790.6,403.983C1790.64,404.225 1790.48,404.455 1790.24,404.496Z" style="fill:white;fill-rule:nonzero;"/>
        <path d="M1790.75,407.52C1790.51,407.561 1790.28,407.398 1790.24,407.157L1790.05,406.05C1790.01,405.809 1790.17,405.579 1790.41,405.538C1790.66,405.497 1790.89,405.659 1790.93,405.901L1791.12,407.007C1791.16,407.249 1790.99,407.478 1790.75,407.52Z" style="fill:white;fill-rule:nonzero;"/>
        <path d="M1792.47,405.102L1791.36,405.291C1791.12,405.332 1790.89,405.17 1790.85,404.928C1790.81,404.686 1790.97,404.457 1791.21,404.416L1792.32,404.227C1792.56,404.186 1792.79,404.348 1792.83,404.59C1792.87,404.832 1792.71,405.061 1792.47,405.102Z" style="fill:white;fill-rule:nonzero;"/>
        <path d="M1789.44,405.618L1788.34,405.807C1788.09,405.848 1787.86,405.686 1787.82,405.444C1787.78,405.203 1787.94,404.973 1788.19,404.932L1789.29,404.743C1789.53,404.702 1789.76,404.864 1789.8,405.106C1789.85,405.348 1789.68,405.577 1789.44,405.618Z" style="fill:white;fill-rule:nonzero;"/>
        <path d="M1778.89,421.877C1778.65,421.919 1778.42,421.756 1778.37,421.515L1778.19,420.408C1778.14,420.166 1778.31,419.937 1778.55,419.896C1778.79,419.855 1779.02,420.017 1779.06,420.259L1779.25,421.365C1779.29,421.607 1779.13,421.836 1778.89,421.877Z" style="fill:white;fill-rule:nonzero;"/>
        <path d="M1779.4,424.901C1779.16,424.943 1778.93,424.78 1778.89,424.538L1778.7,423.432C1778.66,423.19 1778.82,422.961 1779.07,422.92C1779.31,422.878 1779.54,423.041 1779.58,423.283L1779.77,424.389C1779.81,424.631 1779.65,424.86 1779.4,424.901Z" style="fill:white;fill-rule:nonzero;"/>
        <path d="M1781.12,422.484L1780.01,422.673C1779.77,422.714 1779.54,422.551 1779.5,422.31C1779.46,422.068 1779.62,421.838 1779.86,421.797L1780.97,421.608C1781.21,421.567 1781.44,421.73 1781.48,421.971C1781.52,422.213 1781.36,422.443 1781.12,422.484Z" style="fill:white;fill-rule:nonzero;"/>
        <path d="M1778.09,423L1776.99,423.189C1776.74,423.23 1776.51,423.068 1776.47,422.826C1776.43,422.584 1776.59,422.355 1776.84,422.313L1777.94,422.125C1778.18,422.083 1778.41,422.246 1778.46,422.488C1778.5,422.729 1778.33,422.959 1778.09,423Z" style="fill:white;fill-rule:nonzero;"/>
        <path d="M1759.84,394.986C1759.6,395.027 1759.37,394.865 1759.33,394.623L1759.14,393.517C1759.1,393.275 1759.26,393.046 1759.5,393.004C1759.74,392.963 1759.97,393.126 1760.01,393.367L1760.2,394.474C1760.24,394.715 1760.08,394.945 1759.84,394.986Z" style="fill:white;fill-rule:nonzero;"/>
        <path d="M1760.36,398.01C1760.11,398.051 1759.88,397.889 1759.84,397.647L1759.65,396.541C1759.61,396.299 1759.78,396.069 1760.02,396.028C1760.26,395.987 1760.49,396.149 1760.53,396.391L1760.72,397.497C1760.76,397.739 1760.6,397.969 1760.36,398.01Z" style="fill:white;fill-rule:nonzero;"/>
        <path d="M1762.07,395.592L1760.96,395.781C1760.72,395.822 1760.49,395.66 1760.45,395.418C1760.41,395.176 1760.57,394.947 1760.81,394.906L1761.92,394.717C1762.16,394.676 1762.39,394.838 1762.43,395.08C1762.47,395.322 1762.31,395.551 1762.07,395.592Z" style="fill:white;fill-rule:nonzero;"/>
        <path d="M1759.04,396.108L1757.94,396.297C1757.7,396.339 1757.47,396.176 1757.43,395.934C1757.38,395.693 1757.55,395.463 1757.79,395.422L1758.89,395.233C1759.14,395.192 1759.37,395.354 1759.41,395.596C1759.45,395.838 1759.29,396.067 1759.04,396.108Z" style="fill:white;fill-rule:nonzero;"/>
        <path d="M2048.58,300.746C2048.52,299.983 2049.08,299.312 2049.85,299.247L2053.34,298.952C2054.1,298.888 2054.77,299.454 2054.84,300.217C2054.9,300.98 2054.33,301.651 2053.57,301.716L2050.08,302.011C2049.32,302.075 2048.65,301.509 2048.58,300.746Z" style="fill:white;fill-rule:nonzero;"/>
        <path d="M2039.04,301.552C2038.97,300.789 2039.54,300.118 2040.3,300.054L2043.79,299.759C2044.56,299.694 2045.23,300.261 2045.29,301.024C2045.36,301.787 2044.79,302.458 2044.03,302.522L2040.53,302.817C2039.77,302.881 2039.1,302.315 2039.04,301.552Z" style="fill:white;fill-rule:nonzero;"/>
        <path d="M2046.1,307.52L2045.81,304.028C2045.75,303.265 2046.31,302.594 2047.07,302.53C2047.84,302.465 2048.51,303.031 2048.57,303.795L2048.87,307.287C2048.93,308.05 2048.37,308.721 2047.6,308.785C2046.84,308.849 2046.17,308.283 2046.1,307.52Z" style="fill:white;fill-rule:nonzero;"/>
        <path d="M2045.3,297.975L2045,294.483C2044.94,293.72 2045.51,293.049 2046.27,292.984C2047.03,292.92 2047.7,293.486 2047.77,294.249L2048.06,297.741C2048.13,298.504 2047.56,299.175 2046.8,299.24C2046.03,299.304 2045.36,298.738 2045.3,297.975Z" style="fill:white;fill-rule:nonzero;"/>
        <path d="M2002.02,286.219C2001.95,285.456 2002.52,284.785 2003.28,284.72L2006.78,284.425C2007.54,284.361 2008.21,284.927 2008.27,285.69C2008.34,286.454 2007.77,287.124 2007.01,287.189L2003.52,287.484C2002.75,287.548 2002.08,286.982 2002.02,286.219Z" style="fill:white;fill-rule:nonzero;"/>
        <path d="M1992.47,287.025C1992.41,286.262 1992.98,285.591 1993.74,285.527L1997.23,285.232C1997.99,285.167 1998.66,285.734 1998.73,286.497C1998.79,287.26 1998.23,287.931 1997.46,287.995L1993.97,288.29C1993.21,288.355 1992.54,287.788 1992.47,287.025Z" style="fill:white;fill-rule:nonzero;"/>
        <path d="M1999.54,292.993L1999.25,289.501C1999.18,288.738 1999.75,288.067 2000.51,288.003C2001.28,287.938 2001.95,288.505 2002.01,289.268L2002.31,292.76C2002.37,293.523 2001.8,294.194 2001.04,294.258C2000.28,294.323 1999.61,293.756 1999.54,292.993Z" style="fill:white;fill-rule:nonzero;"/>
        <path d="M1998.74,283.448L1998.44,279.956C1998.38,279.193 1998.94,278.522 1999.71,278.457C2000.47,278.393 2001.14,278.959 2001.2,279.722L2001.5,283.215C2001.56,283.978 2001,284.648 2000.23,284.713C1999.47,284.777 1998.8,284.211 1998.74,283.448Z" style="fill:white;fill-rule:nonzero;"/>
        <path d="M2029.21,289.745C2028.85,289.389 2028.85,288.811 2029.2,288.453L2030.83,286.815C2031.19,286.457 2031.76,286.455 2032.12,286.811C2032.48,287.167 2032.48,287.745 2032.13,288.103L2030.5,289.741C2030.14,290.099 2029.56,290.101 2029.21,289.745Z" style="fill:white;fill-rule:nonzero;"/>
        <path d="M2024.76,294.222C2024.4,293.866 2024.4,293.288 2024.75,292.93L2026.38,291.292C2026.74,290.934 2027.31,290.932 2027.67,291.288C2028.03,291.644 2028.03,292.222 2027.68,292.58L2026.05,294.218C2025.69,294.576 2025.11,294.578 2024.76,294.222Z" style="fill:white;fill-rule:nonzero;"/>
        <path d="M2030.85,294.204L2029.21,292.576C2028.86,292.22 2028.85,291.641 2029.21,291.284C2029.57,290.926 2030.14,290.924 2030.5,291.28L2032.14,292.908C2032.5,293.264 2032.5,293.842 2032.14,294.2C2031.79,294.558 2031.21,294.56 2030.85,294.204Z" style="fill:white;fill-rule:nonzero;"/>
        <path d="M2026.38,289.754L2024.74,288.125C2024.38,287.77 2024.38,287.191 2024.73,286.833C2025.09,286.475 2025.67,286.473 2026.03,286.829L2027.66,288.457C2028.02,288.813 2028.02,289.392 2027.67,289.75C2027.31,290.108 2026.73,290.109 2026.38,289.754Z" style="fill:white;fill-rule:nonzero;"/>
        <path d="M2032.35,299.917C2032.14,299.794 2032.06,299.523 2032.19,299.31L2032.75,298.337C2032.87,298.124 2033.14,298.051 2033.35,298.173C2033.56,298.295 2033.64,298.566 2033.52,298.779L2032.96,299.752C2032.83,299.965 2032.56,300.039 2032.35,299.917Z" style="fill:white;fill-rule:nonzero;"/>
        <path d="M2030.82,302.577C2030.61,302.455 2030.54,302.184 2030.66,301.971L2031.22,300.998C2031.34,300.785 2031.61,300.711 2031.82,300.833C2032.04,300.956 2032.11,301.227 2031.99,301.44L2031.43,302.413C2031.31,302.626 2031.04,302.699 2030.82,302.577Z" style="fill:white;fill-rule:nonzero;"/>
        <path d="M2033.68,301.803L2032.71,301.244C2032.5,301.122 2032.42,300.851 2032.55,300.638C2032.67,300.425 2032.94,300.352 2033.15,300.474L2034.13,301.033C2034.34,301.155 2034.41,301.426 2034.29,301.639C2034.17,301.851 2033.9,301.925 2033.68,301.803Z" style="fill:white;fill-rule:nonzero;"/>
        <path d="M2031.02,300.276L2030.05,299.717C2029.84,299.595 2029.76,299.324 2029.89,299.111C2030.01,298.899 2030.28,298.825 2030.49,298.947L2031.46,299.506C2031.68,299.628 2031.75,299.899 2031.63,300.112C2031.51,300.325 2031.24,300.398 2031.02,300.276Z" style="fill:white;fill-rule:nonzero;"/>
        <path d="M2012.53,306.096C2012.32,305.974 2012.25,305.703 2012.37,305.49L2012.93,304.517C2013.05,304.304 2013.32,304.23 2013.53,304.353C2013.75,304.475 2013.82,304.746 2013.7,304.959L2013.14,305.932C2013.02,306.145 2012.75,306.218 2012.53,306.096Z" style="fill:white;fill-rule:nonzero;"/>
        <path d="M2011.01,308.757C2010.79,308.635 2010.72,308.363 2010.84,308.151L2011.4,307.177C2011.52,306.965 2011.79,306.891 2012.01,307.013C2012.22,307.135 2012.29,307.407 2012.17,307.619L2011.61,308.593C2011.49,308.805 2011.22,308.879 2011.01,308.757Z" style="fill:white;fill-rule:nonzero;"/>
        <path d="M2013.87,307.983L2012.89,307.424C2012.68,307.302 2012.61,307.031 2012.73,306.818C2012.85,306.605 2013.12,306.532 2013.33,306.654L2014.31,307.212C2014.52,307.334 2014.59,307.606 2014.47,307.818C2014.35,308.031 2014.08,308.105 2013.87,307.983Z" style="fill:white;fill-rule:nonzero;"/>
        <path d="M2011.2,306.456L2010.23,305.897C2010.02,305.775 2009.95,305.504 2010.07,305.291C2010.19,305.078 2010.46,305.005 2010.67,305.127L2011.65,305.685C2011.86,305.807 2011.93,306.079 2011.81,306.292C2011.69,306.504 2011.42,306.578 2011.2,306.456Z" style="fill:white;fill-rule:nonzero;"/>
        <path d="M2014.96,273.232C2014.75,273.11 2014.68,272.838 2014.8,272.626L2015.36,271.652C2015.48,271.44 2015.75,271.366 2015.96,271.488C2016.18,271.61 2016.25,271.882 2016.13,272.094L2015.57,273.068C2015.45,273.28 2015.17,273.354 2014.96,273.232Z" style="fill:white;fill-rule:nonzero;"/>
        <path d="M2013.43,275.892C2013.22,275.77 2013.15,275.499 2013.27,275.286L2013.83,274.313C2013.95,274.1 2014.22,274.027 2014.44,274.149C2014.65,274.271 2014.72,274.542 2014.6,274.755L2014.04,275.728C2013.92,275.941 2013.65,276.014 2013.43,275.892Z" style="fill:white;fill-rule:nonzero;"/>
        <path d="M2016.29,275.118L2015.32,274.559C2015.11,274.437 2015.04,274.166 2015.16,273.953C2015.28,273.741 2015.55,273.667 2015.76,273.789L2016.74,274.348C2016.95,274.47 2017.02,274.741 2016.9,274.954C2016.78,275.167 2016.51,275.24 2016.29,275.118Z" style="fill:white;fill-rule:nonzero;"/>
        <path d="M2013.63,273.591L2012.66,273.033C2012.45,272.911 2012.37,272.639 2012.5,272.427C2012.62,272.214 2012.89,272.14 2013.1,272.262L2014.08,272.821C2014.29,272.943 2014.36,273.214 2014.24,273.427C2014.12,273.64 2013.85,273.713 2013.63,273.591Z" style="fill:white;fill-rule:nonzero;"/>
    </g>
    <defs>
        <linearGradient id="_Linear1" x1="0" y1="0" x2="1" y2="0" gradientUnits="userSpaceOnUse" gradientTransform="matrix(498.552,-498.552,498.552,498.552,1631.88,726.371)"><stop offset="0" style="stop-color:rgb(72,45,156);stop-opacity:1"/><stop offset="1" style="stop-color:rgb(28,200,255);stop-opacity:1"/></linearGradient>
        <linearGradient id="_Linear2" x1="0" y1="0" x2="1" y2="0" gradientUnits="userSpaceOnUse" gradientTransform="matrix(184.896,-184.896,184.896,184.896,1663.73,426.505)"><stop offset="0" style="stop-color:rgb(72,45,156);stop-opacity:1"/><stop offset="1" style="stop-color:rgb(28,200,255);stop-opacity:1"/></linearGradient>
        <linearGradient id="_Linear3" x1="0" y1="0" x2="1" y2="0" gradientUnits="userSpaceOnUse" gradientTransform="matrix(35.6761,-35.6761,35.6761,35.6761,1705.98,413.957)"><stop offset="0" style="stop-color:rgb(72,45,156);stop-opacity:1"/><stop offset="1" style="stop-color:rgb(28,200,255);stop-opacity:1"/></linearGradient>
        <linearGradient id="_Linear4" x1="0" y1="0" x2="1" y2="0" gradientUnits="userSpaceOnUse" gradientTransform="matrix(31.5231,-31.5231,31.5231,31.5231,2019.28,253.384)"><stop offset="0" style="stop-color:rgb(72,45,156);stop-opacity:1"/><stop offset="1" style="stop-color:rgb(28,200,255);stop-opacity:1"/></linearGradient>
        <linearGradient id="_Linear5" x1="0" y1="0" x2="1" y2="0" gradientUnits="userSpaceOnUse" gradientTransform="matrix(119.144,-119.144,119.144,119.144,1687,560.618)"><stop offset="0" style="stop-color:rgb(72,45,156);stop-opacity:1"/><stop offset="1" style="stop-color:rgb(28,200,255);stop-opacity:1"/></linearGradient>
        <linearGradient id="_Linear6" x1="0" y1="0" x2="1" y2="0" gradientUnits="userSpaceOnUse" gradientTransform="matrix(88.5421,-88.5421,88.5421,88.5421,2053.63,381.67)"><stop offset="0" style="stop-color:rgb(72,45,156);stop-opacity:1"/><stop offset="1" style="stop-color:rgb(28,200,255);stop-opacity:1"/></linearGradient>
        <linearGradient id="_Linear7" x1="0" y1="0" x2="1" y2="0" gradientUnits="userSpaceOnUse" gradientTransform="matrix(97.7876,-97.7876,97.7876,97.7876,1907.51,291.241)"><stop offset="0" style="stop-color:rgb(72,45,156);stop-opacity:1"/><stop offset="1" style="stop-color:rgb(28,200,255);stop-opacity:1"/></linearGradient>
        <linearGradient id="_Linear8" x1="0" y1="0" x2="1" y2="0" gradientUnits="userSpaceOnUse" gradientTransform="matrix(53.7155,-53.7155,53.7155,53.7155,2035.82,587.51)"><stop offset="0" style="stop-color:rgb(72,45,156);stop-opacity:1"/><stop offset="1" style="stop-color:rgb(28,200,255);stop-opacity:1"/></linearGradient>
        <linearGradient id="_Linear9" x1="0" y1="0" x2="1" y2="0" gradientUnits="userSpaceOnUse" gradientTransform="matrix(212.805,-212.805,212.805,212.805,2003.71,598.589)"><stop offset="0" style="stop-color:rgb(72,45,156);stop-opacity:1"/><stop offset="1" style="stop-color:rgb(28,200,255);stop-opacity:1"/></linearGradient>
        <linearGradient id="_Linear10" x1="0" y1="0" x2="1" y2="0" gradientUnits="userSpaceOnUse" gradientTransform="matrix(71.0933,-71.0933,71.0933,71.0933,1737.72,591.015)"><stop offset="0" style="stop-color:rgb(72,45,156);stop-opacity:1"/><stop offset="1" style="stop-color:rgb(28,200,255);stop-opacity:1"/></linearGradient>
        <linearGradient id="_Linear11" x1="0" y1="0" x2="1" y2="0" gradientUnits="userSpaceOnUse" gradientTransform="matrix(156.431,-156.431,156.431,156.431,1778.59,659.522)"><stop offset="0" style="stop-color:rgb(72,45,156);stop-opacity:1"/><stop offset="1" style="stop-color:rgb(28,200,255);stop-opacity:1"/></linearGradient>
        <linearGradient id="_Linear12" x1="0" y1="0" x2="1" y2="0" gradientUnits="userSpaceOnUse" gradientTransform="matrix(243.567,-163.278,163.278,243.567,1580.4,554.483)"><stop offset="0" style="stop-color:rgb(72,45,156);stop-opacity:1"/><stop offset="1" style="stop-color:rgb(28,200,255);stop-opacity:1"/></linearGradient>
        <linearGradient id="_Linear13" x1="0" y1="0" x2="1" y2="0" gradientUnits="userSpaceOnUse" gradientTransform="matrix(243.567,-163.277,163.277,243.567,1552.9,513.461)"><stop offset="0" style="stop-color:rgb(72,45,156);stop-opacity:1"/><stop offset="1" style="stop-color:rgb(28,200,255);stop-opacity:1"/></linearGradient>
        <linearGradient id="_Linear14" x1="0" y1="0" x2="1" y2="0" gradientUnits="userSpaceOnUse" gradientTransform="matrix(192.904,0,0,192.904,1853.71,343.323)"><stop offset="0" style="stop-color:rgb(72,45,156);stop-opacity:1"/><stop offset="1" style="stop-color:rgb(28,200,255);stop-opacity:1"/></linearGradient>
        <linearGradient id="_Linear15" x1="0" y1="0" x2="1" y2="0" gradientUnits="userSpaceOnUse" gradientTransform="matrix(2.61249e-09,-58.1891,58.1891,2.61249e-09,1986.65,592.992)"><stop offset="0" style="stop-color:rgb(156,158,158);stop-opacity:1"/><stop offset="1" style="stop-color:rgb(209,211,212);stop-opacity:1"/></linearGradient>
        <linearGradient id="_Linear16" x1="0" y1="0" x2="1" y2="0" gradientUnits="userSpaceOnUse" gradientTransform="matrix(88.5501,75.9499,-75.9499,88.5501,1879.68,409.104)"><stop offset="0" style="stop-color:rgb(240,242,242);stop-opacity:1"/><stop offset="1" style="stop-color:rgb(209,211,212);stop-opacity:1"/></linearGradient>
        <linearGradient id="_Linear17" x1="0" y1="0" x2="1" y2="0" gradientUnits="userSpaceOnUse" gradientTransform="matrix(50.05,-40.95,40.95,50.05,1894.95,521.902)"><stop offset="0" style="stop-color:rgb(240,242,242);stop-opacity:1"/><stop offset="1" style="stop-color:rgb(209,211,212);stop-opacity:1"/></linearGradient>
        <linearGradient id="_Linear18" x1="0" y1="0" x2="1" y2="0" gradientUnits="userSpaceOnUse" gradientTransform="matrix(-14.7,50.4,-50.4,-14.7,2037.62,402.741)"><stop offset="0" style="stop-color:rgb(240,242,242);stop-opacity:1"/><stop offset="1" style="stop-color:rgb(209,211,212);stop-opacity:1"/></linearGradient>
        <linearGradient id="_Linear19" x1="0" y1="0" x2="1" y2="0" gradientUnits="userSpaceOnUse" gradientTransform="matrix(-49,-73.4999,73.4999,-49,2071.08,531.653)"><stop offset="0" style="stop-color:rgb(240,242,242);stop-opacity:1"/><stop offset="1" style="stop-color:rgb(209,211,212);stop-opacity:1"/></linearGradient>
        <linearGradient id="_Linear20" x1="0" y1="0" x2="1" y2="0" gradientUnits="userSpaceOnUse" gradientTransform="matrix(1.0468e-08,233.158,-233.158,1.0468e-08,1986.65,308.067)"><stop offset="0" style="stop-color:rgb(255,221,56);stop-opacity:1"/><stop offset="0.7" style="stop-color:rgb(251,75,94);stop-opacity:1"/><stop offset="1" style="stop-color:rgb(237,49,126);stop-opacity:1"/></linearGradient>
        <linearGradient id="_Linear21" x1="0" y1="0" x2="1" y2="0" gradientUnits="userSpaceOnUse" gradientTransform="matrix(-74.6537,0,0,-74.6537,1959.4,362.987)"><stop offset="0" style="stop-color:rgb(255,221,56);stop-opacity:1"/><stop offset="0.7" style="stop-color:rgb(251,75,94);stop-opacity:1"/><stop offset="1" style="stop-color:rgb(237,49,126);stop-opacity:1"/></linearGradient>
        <linearGradient id="_Linear22" x1="0" y1="0" x2="1" y2="0" gradientUnits="userSpaceOnUse" gradientTransform="matrix(-4.13581e-09,92.1186,-92.1186,-4.13581e-09,1919.22,305.159)"><stop offset="0" style="stop-color:rgb(156,158,158);stop-opacity:1"/><stop offset="1" style="stop-color:rgb(209,211,212);stop-opacity:1"/></linearGradient>
        <linearGradient id="_Linear23" x1="0" y1="0" x2="1" y2="0" gradientUnits="userSpaceOnUse" gradientTransform="matrix(-1.69834e-09,-37.8278,37.8278,-1.69834e-09,1910.6,313.781)"><stop offset="0" style="stop-color:rgb(255,221,56);stop-opacity:1"/><stop offset="0.7" style="stop-color:rgb(251,75,94);stop-opacity:1"/><stop offset="1" style="stop-color:rgb(237,49,126);stop-opacity:1"/></linearGradient>
        <linearGradient id="_Linear24" x1="0" y1="0" x2="1" y2="0" gradientUnits="userSpaceOnUse" gradientTransform="matrix(47.5982,4.27399e-09,-4.27399e-09,47.5982,1904.2,362.987)"><stop offset="0" style="stop-color:rgb(156,158,158);stop-opacity:1"/><stop offset="1" style="stop-color:rgb(209,211,212);stop-opacity:1"/></linearGradient>
        <linearGradient id="_Linear25" x1="0" y1="0" x2="1" y2="0" gradientUnits="userSpaceOnUse" gradientTransform="matrix(-32.1585,0,0,-32.1585,1961.79,362.987)"><stop offset="0" style="stop-color:rgb(156,158,158);stop-opacity:1"/><stop offset="1" style="stop-color:rgb(209,211,212);stop-opacity:1"/></linearGradient>
        <linearGradient id="_Linear26" x1="0" y1="0" x2="1" y2="0" gradientUnits="userSpaceOnUse" gradientTransform="matrix(-32.1585,0,0,-32.1585,1961.79,361.931)"><stop offset="0" style="stop-color:rgb(156,158,158);stop-opacity:1"/><stop offset="1" style="stop-color:rgb(209,211,212);stop-opacity:1"/></linearGradient>
        <linearGradient id="_Linear27" x1="0" y1="0" x2="1" y2="0" gradientUnits="userSpaceOnUse" gradientTransform="matrix(24.9779,-2.24285e-09,2.24285e-09,24.9779,1947.95,361.931)"><stop offset="0" style="stop-color:rgb(156,158,158);stop-opacity:1"/><stop offset="1" style="stop-color:rgb(209,211,212);stop-opacity:1"/></linearGradient>
        <linearGradient id="_Linear28" x1="0" y1="0" x2="1" y2="0" gradientUnits="userSpaceOnUse" gradientTransform="matrix(8.08598e-11,18.0102,-18.0102,8.08598e-11,2031.75,317.444)"><stop offset="0" style="stop-color:rgb(255,221,56);stop-opacity:1"/><stop offset="0.7" style="stop-color:rgb(251,75,94);stop-opacity:1"/><stop offset="1" style="stop-color:rgb(237,49,126);stop-opacity:1"/></linearGradient>
        <linearGradient id="_Linear29" x1="0" y1="0" x2="1" y2="0" gradientUnits="userSpaceOnUse" gradientTransform="matrix(1.55245e-08,345.785,-345.785,1.55245e-08,2031.75,156.867)"><stop offset="0" style="stop-color:rgb(255,221,56);stop-opacity:1"/><stop offset="0.7" style="stop-color:rgb(251,75,94);stop-opacity:1"/><stop offset="1" style="stop-color:rgb(237,49,126);stop-opacity:1"/></linearGradient>
        <linearGradient id="_Linear30" x1="0" y1="0" x2="1" y2="0" gradientUnits="userSpaceOnUse" gradientTransform="matrix(7.98144e-09,177.774,-177.774,7.98144e-09,2037.93,337.369)"><stop offset="0" style="stop-color:rgb(255,221,56);stop-opacity:1"/><stop offset="0.7" style="stop-color:rgb(251,75,94);stop-opacity:1"/><stop offset="1" style="stop-color:rgb(237,49,126);stop-opacity:1"/></linearGradient>
        <linearGradient id="_Linear31" x1="0" y1="0" x2="1" y2="0" gradientUnits="userSpaceOnUse" gradientTransform="matrix(36.2366,0,0,36.2366,2100.88,372.268)"><stop offset="0" style="stop-color:rgb(255,221,56);stop-opacity:1"/><stop offset="0.7" style="stop-color:rgb(251,75,94);stop-opacity:1"/><stop offset="1" style="stop-color:rgb(237,49,126);stop-opacity:1"/></linearGradient>
        <linearGradient id="_Linear32" x1="0" y1="0" x2="1" y2="0" gradientUnits="userSpaceOnUse" gradientTransform="matrix(-4.51236e-09,100.506,-100.506,-4.51236e-09,1891.01,308.294)"><stop offset="0" style="stop-color:rgb(255,221,56);stop-opacity:1"/><stop offset="0.7" style="stop-color:rgb(251,75,94);stop-opacity:1"/><stop offset="1" style="stop-color:rgb(237,49,126);stop-opacity:1"/></linearGradient>
        <linearGradient id="_Linear33" x1="0" y1="0" x2="1" y2="0" gradientUnits="userSpaceOnUse" gradientTransform="matrix(2.61539e-09,58.2537,-58.2537,2.61539e-09,2059.13,400.429)"><stop offset="0" style="stop-color:rgb(207,209,211);stop-opacity:1"/><stop offset="1" style="stop-color:rgb(228,230,230);stop-opacity:1"/></linearGradient>
        <linearGradient id="_Linear34" x1="0" y1="0" x2="1" y2="0" gradientUnits="userSpaceOnUse" gradientTransform="matrix(2.61539e-09,58.2537,-58.2537,2.61539e-09,2008.05,400.429)"><stop offset="0" style="stop-color:rgb(207,209,211);stop-opacity:1"/><stop offset="1" style="stop-color:rgb(228,230,230);stop-opacity:1"/></linearGradient>
        <linearGradient id="_Linear35" x1="0" y1="0" x2="1" y2="0" gradientUnits="userSpaceOnUse" gradientTransform="matrix(2.61539e-09,58.2537,-58.2537,2.61539e-09,2072.25,400.429)"><stop offset="0" style="stop-color:rgb(207,209,211);stop-opacity:1"/><stop offset="1" style="stop-color:rgb(228,230,230);stop-opacity:1"/></linearGradient>
        <linearGradient id="_Linear36" x1="0" y1="0" x2="1" y2="0" gradientUnits="userSpaceOnUse" gradientTransform="matrix(2.61539e-09,58.2537,-58.2537,2.61539e-09,2021.75,400.429)"><stop offset="0" style="stop-color:rgb(207,209,211);stop-opacity:1"/><stop offset="1" style="stop-color:rgb(228,230,230);stop-opacity:1"/></linearGradient>
        <linearGradient id="_Linear37" x1="0" y1="0" x2="1" y2="0" gradientUnits="userSpaceOnUse" gradientTransform="matrix(2.61542e-09,58.2542,-58.2542,2.61542e-09,2062.15,401.351)"><stop offset="0" style="stop-color:rgb(207,209,211);stop-opacity:1"/><stop offset="1" style="stop-color:rgb(228,230,230);stop-opacity:1"/></linearGradient>
        <linearGradient id="_Linear38" x1="0" y1="0" x2="1" y2="0" gradientUnits="userSpaceOnUse" gradientTransform="matrix(2.61542e-09,58.2542,-58.2542,2.61542e-09,2010.98,401.351)"><stop offset="0" style="stop-color:rgb(207,209,211);stop-opacity:1"/><stop offset="1" style="stop-color:rgb(228,230,230);stop-opacity:1"/></linearGradient>
        <linearGradient id="_Linear39" x1="0" y1="0" x2="1" y2="0" gradientUnits="userSpaceOnUse" gradientTransform="matrix(2.61542e-09,58.2542,-58.2542,2.61542e-09,2070.27,402.272)"><stop offset="0" style="stop-color:rgb(207,209,211);stop-opacity:1"/><stop offset="1" style="stop-color:rgb(228,230,230);stop-opacity:1"/></linearGradient>
        <linearGradient id="_Linear40" x1="0" y1="0" x2="1" y2="0" gradientUnits="userSpaceOnUse" gradientTransform="matrix(2.61542e-09,58.2542,-58.2542,2.61542e-09,2019.5,402.272)"><stop offset="0" style="stop-color:rgb(207,209,211);stop-opacity:1"/><stop offset="1" style="stop-color:rgb(228,230,230);stop-opacity:1"/></linearGradient>
        <linearGradient id="_Linear41" x1="0" y1="0" x2="1" y2="0" gradientUnits="userSpaceOnUse" gradientTransform="matrix(2.61539e-09,58.2537,-58.2537,2.61539e-09,2054.73,403.194)"><stop offset="0" style="stop-color:rgb(207,209,211);stop-opacity:1"/><stop offset="1" style="stop-color:rgb(228,230,230);stop-opacity:1"/></linearGradient>
        <linearGradient id="_Linear42" x1="0" y1="0" x2="1" y2="0" gradientUnits="userSpaceOnUse" gradientTransform="matrix(2.61539e-09,58.2537,-58.2537,2.61539e-09,2003.96,403.194)"><stop offset="0" style="stop-color:rgb(207,209,211);stop-opacity:1"/><stop offset="1" style="stop-color:rgb(228,230,230);stop-opacity:1"/></linearGradient>
        <linearGradient id="_Linear43" x1="0" y1="0" x2="1" y2="0" gradientUnits="userSpaceOnUse" gradientTransform="matrix(2.61542e-09,58.2542,-58.2542,2.61542e-09,1959.43,401.351)"><stop offset="0" style="stop-color:rgb(207,209,211);stop-opacity:1"/><stop offset="1" style="stop-color:rgb(228,230,230);stop-opacity:1"/></linearGradient>
        <linearGradient id="_Linear44" x1="0" y1="0" x2="1" y2="0" gradientUnits="userSpaceOnUse" gradientTransform="matrix(2.61542e-09,58.2542,-58.2542,2.61542e-09,1924.13,401.351)"><stop offset="0" style="stop-color:rgb(207,209,211);stop-opacity:1"/><stop offset="1" style="stop-color:rgb(228,230,230);stop-opacity:1"/></linearGradient>
        <linearGradient id="_Linear45" x1="0" y1="0" x2="1" y2="0" gradientUnits="userSpaceOnUse" gradientTransform="matrix(2.61542e-09,58.2542,-58.2542,2.61542e-09,1895.79,401.351)"><stop offset="0" style="stop-color:rgb(207,209,211);stop-opacity:1"/><stop offset="1" style="stop-color:rgb(228,230,230);stop-opacity:1"/></linearGradient>
        <linearGradient id="_Linear46" x1="0" y1="0" x2="1" y2="0" gradientUnits="userSpaceOnUse" gradientTransform="matrix(2.61542e-09,58.2542,-58.2542,2.61542e-09,1965.9,402.272)"><stop offset="0" style="stop-color:rgb(207,209,211);stop-opacity:1"/><stop offset="1" style="stop-color:rgb(228,230,230);stop-opacity:1"/></linearGradient>
        <linearGradient id="_Linear47" x1="0" y1="0" x2="1" y2="0" gradientUnits="userSpaceOnUse" gradientTransform="matrix(2.61542e-09,58.2542,-58.2542,2.61542e-09,1915.49,402.272)"><stop offset="0" style="stop-color:rgb(207,209,211);stop-opacity:1"/><stop offset="1" style="stop-color:rgb(228,230,230);stop-opacity:1"/></linearGradient>
        <linearGradient id="_Linear48" x1="0" y1="0" x2="1" y2="0" gradientUnits="userSpaceOnUse" gradientTransform="matrix(2.61539e-09,58.2537,-58.2537,2.61539e-09,1961.5,403.194)"><stop offset="0" style="stop-color:rgb(207,209,211);stop-opacity:1"/><stop offset="1" style="stop-color:rgb(228,230,230);stop-opacity:1"/></linearGradient>
        <linearGradient id="_Linear49" x1="0" y1="0" x2="1" y2="0" gradientUnits="userSpaceOnUse" gradientTransform="matrix(2.61539e-09,58.2537,-58.2537,2.61539e-09,1920.22,403.194)"><stop offset="0" style="stop-color:rgb(207,209,211);stop-opacity:1"/><stop offset="1" style="stop-color:rgb(228,230,230);stop-opacity:1"/></linearGradient>
        <linearGradient id="_Linear50" x1="0" y1="0" x2="1" y2="0" gradientUnits="userSpaceOnUse" gradientTransform="matrix(2.61539e-09,58.2537,-58.2537,2.61539e-09,1889.35,403.194)"><stop offset="0" style="stop-color:rgb(207,209,211);stop-opacity:1"/><stop offset="1" style="stop-color:rgb(228,230,230);stop-opacity:1"/></linearGradient>
        <linearGradient id="_Linear51" x1="0" y1="0" x2="1" y2="0" gradientUnits="userSpaceOnUse" gradientTransform="matrix(5.10551e-09,113.717,-113.717,5.10551e-09,1931.15,415.118)"><stop offset="0" style="stop-color:rgb(255,221,56);stop-opacity:1"/><stop offset="0.7" style="stop-color:rgb(251,75,94);stop-opacity:1"/><stop offset="1" style="stop-color:rgb(237,49,126);stop-opacity:1"/></linearGradient>
        <linearGradient id="_Linear52" x1="0" y1="0" x2="1" y2="0" gradientUnits="userSpaceOnUse" gradientTransform="matrix(1.47075e-08,327.587,-327.587,1.47075e-08,1986.65,358.076)"><stop offset="0" style="stop-color:rgb(255,221,56);stop-opacity:1"/><stop offset="0.7" style="stop-color:rgb(251,75,94);stop-opacity:1"/><stop offset="1" style="stop-color:rgb(237,49,126);stop-opacity:1"/></linearGradient>
        <linearGradient id="_Linear53" x1="0" y1="0" x2="1" y2="0" gradientUnits="userSpaceOnUse" gradientTransform="matrix(8.04784e-11,-17.9253,17.9253,8.04784e-11,1909.67,548.883)"><stop offset="0" style="stop-color:rgb(207,209,211);stop-opacity:1"/><stop offset="1" style="stop-color:rgb(228,230,230);stop-opacity:1"/></linearGradient>
        <linearGradient id="_Linear54" x1="0" y1="0" x2="1" y2="0" gradientUnits="userSpaceOnUse" gradientTransform="matrix(8.04784e-11,-17.9253,17.9253,8.04784e-11,1944.82,548.883)"><stop offset="0" style="stop-color:rgb(207,209,211);stop-opacity:1"/><stop offset="1" style="stop-color:rgb(228,230,230);stop-opacity:1"/></linearGradient>
        <linearGradient id="_Linear55" x1="0" y1="0" x2="1" y2="0" gradientUnits="userSpaceOnUse" gradientTransform="matrix(8.04784e-11,-17.9253,17.9253,8.04784e-11,1982.18,548.883)"><stop offset="0" style="stop-color:rgb(207,209,211);stop-opacity:1"/><stop offset="1" style="stop-color:rgb(228,230,230);stop-opacity:1"/></linearGradient>
        <linearGradient id="_Linear56" x1="0" y1="0" x2="1" y2="0" gradientUnits="userSpaceOnUse" gradientTransform="matrix(8.04784e-11,-17.9253,17.9253,8.04784e-11,1897.04,548.883)"><stop offset="0" style="stop-color:rgb(207,209,211);stop-opacity:1"/><stop offset="1" style="stop-color:rgb(228,230,230);stop-opacity:1"/></linearGradient>
        <linearGradient id="_Linear57" x1="0" y1="0" x2="1" y2="0" gradientUnits="userSpaceOnUse" gradientTransform="matrix(8.04784e-11,-17.9253,17.9253,8.04784e-11,1927.87,548.883)"><stop offset="0" style="stop-color:rgb(207,209,211);stop-opacity:1"/><stop offset="1" style="stop-color:rgb(228,230,230);stop-opacity:1"/></linearGradient>
        <linearGradient id="_Linear58" x1="0" y1="0" x2="1" y2="0" gradientUnits="userSpaceOnUse" gradientTransform="matrix(8.04784e-11,-17.9253,17.9253,8.04784e-11,1997.73,548.883)"><stop offset="0" style="stop-color:rgb(207,209,211);stop-opacity:1"/><stop offset="1" style="stop-color:rgb(228,230,230);stop-opacity:1"/></linearGradient>
        <linearGradient id="_Linear59" x1="0" y1="0" x2="1" y2="0" gradientUnits="userSpaceOnUse" gradientTransform="matrix(9.50721e-09,211.758,-211.758,9.50721e-09,1917.84,347.137)"><stop offset="0" style="stop-color:rgb(255,221,56);stop-opacity:1"/><stop offset="0.7" style="stop-color:rgb(251,75,94);stop-opacity:1"/><stop offset="1" style="stop-color:rgb(237,49,126);stop-opacity:1"/></linearGradient>
        <linearGradient id="_Linear60" x1="0" y1="0" x2="1" y2="0" gradientUnits="userSpaceOnUse" gradientTransform="matrix(-36.1446,55.2926,-55.2926,-36.1446,1849.81,464.38)"><stop offset="0" style="stop-color:rgb(0,172,0);stop-opacity:1"/><stop offset="1" style="stop-color:rgb(0,128,0);stop-opacity:1"/></linearGradient>
        <linearGradient id="_Linear61" x1="0" y1="0" x2="1" y2="0" gradientUnits="userSpaceOnUse" gradientTransform="matrix(63.3522,0,0,63.3522,1780.75,479.455)"><stop offset="0" style="stop-color:rgb(0,172,0);stop-opacity:1"/><stop offset="1" style="stop-color:rgb(0,128,0);stop-opacity:1"/></linearGradient>
        <linearGradient id="_Linear62" x1="0" y1="0" x2="1" y2="0" gradientUnits="userSpaceOnUse" gradientTransform="matrix(14.6803,0,0,14.6803,1798.19,498.298)"><stop offset="0" style="stop-color:rgb(0,172,0);stop-opacity:1"/><stop offset="1" style="stop-color:rgb(0,128,0);stop-opacity:1"/></linearGradient>
        <linearGradient id="_Linear63" x1="0" y1="0" x2="1" y2="0" gradientUnits="userSpaceOnUse" gradientTransform="matrix(21.701,0,0,21.701,1812.99,458.966)"><stop offset="0" style="stop-color:rgb(0,172,0);stop-opacity:1"/><stop offset="1" style="stop-color:rgb(0,128,0);stop-opacity:1"/></linearGradient>
        <linearGradient id="_Linear65" x1="0" y1="0" x2="1" y2="0" gradientUnits="userSpaceOnUse" gradientTransform="matrix(0.001,0,0,0.001,1831.38,459.704)"><stop offset="0" style="stop-color:rgb(0,172,0);stop-opacity:1"/><stop offset="1" style="stop-color:rgb(0,128,0);stop-opacity:1"/></linearGradient>
        <linearGradient id="_Linear66" x1="0" y1="0" x2="1" y2="0" gradientUnits="userSpaceOnUse" gradientTransform="matrix(14.7433,0,0,14.7433,1829.79,439.687)"><stop offset="0" style="stop-color:rgb(0,172,0);stop-opacity:1"/><stop offset="1" style="stop-color:rgb(0,128,0);stop-opacity:1"/></linearGradient>
        <linearGradient id="_Linear67" x1="0" y1="0" x2="1" y2="0" gradientUnits="userSpaceOnUse" gradientTransform="matrix(-36.1445,55.2925,-55.2925,-36.1445,1832.55,487.626)"><stop offset="0" style="stop-color:rgb(0,172,0);stop-opacity:1"/><stop offset="1" style="stop-color:rgb(0,128,0);stop-opacity:1"/></linearGradient>
        <linearGradient id="_Linear68" x1="0" y1="0" x2="1" y2="0" gradientUnits="userSpaceOnUse" gradientTransform="matrix(-36.1445,55.2926,-55.2926,-36.1445,1859.5,439.246)"><stop offset="0" style="stop-color:rgb(0,172,0);stop-opacity:1"/><stop offset="1" style="stop-color:rgb(0,128,0);stop-opacity:1"/></linearGradient>
        <linearGradient id="_Linear69" x1="0" y1="0" x2="1" y2="0" gradientUnits="userSpaceOnUse" gradientTransform="matrix(-36.1447,55.2928,-55.2928,-36.1447,1855.05,443.281)"><stop offset="0" style="stop-color:rgb(0,172,0);stop-opacity:1"/><stop offset="1" style="stop-color:rgb(0,128,0);stop-opacity:1"/></linearGradient>
        <linearGradient id="_Linear70" x1="0" y1="0" x2="1" y2="0" gradientUnits="userSpaceOnUse" gradientTransform="matrix(-36.1447,55.2928,-55.2928,-36.1447,1845.67,443.353)"><stop offset="0" style="stop-color:rgb(0,172,0);stop-opacity:1"/><stop offset="1" style="stop-color:rgb(0,128,0);stop-opacity:1"/></linearGradient>
        <linearGradient id="_Linear71" x1="0" y1="0" x2="1" y2="0" gradientUnits="userSpaceOnUse" gradientTransform="matrix(17.5835,0,0,17.5835,1775.81,475.198)"><stop offset="0" style="stop-color:rgb(0,172,0);stop-opacity:1"/><stop offset="1" style="stop-color:rgb(0,128,0);stop-opacity:1"/></linearGradient>
        <linearGradient id="_Linear73" x1="0" y1="0" x2="1" y2="0" gradientUnits="userSpaceOnUse" gradientTransform="matrix(7e-05,0,0,7e-05,1775.81,480.964)"><stop offset="0" style="stop-color:rgb(0,172,0);stop-opacity:1"/><stop offset="1" style="stop-color:rgb(0,128,0);stop-opacity:1"/></linearGradient>
        <linearGradient id="_Linear74" x1="0" y1="0" x2="1" y2="0" gradientUnits="userSpaceOnUse" gradientTransform="matrix(12.8243,0,0,12.8243,1753.92,441.127)"><stop offset="0" style="stop-color:rgb(0,172,0);stop-opacity:1"/><stop offset="1" style="stop-color:rgb(0,128,0);stop-opacity:1"/></linearGradient>
        <linearGradient id="_Linear75" x1="0" y1="0" x2="1" y2="0" gradientUnits="userSpaceOnUse" gradientTransform="matrix(18.6561,0,0,18.6561,1764.94,458.285)"><stop offset="0" style="stop-color:rgb(0,172,0);stop-opacity:1"/><stop offset="1" style="stop-color:rgb(0,128,0);stop-opacity:1"/></linearGradient>
        <linearGradient id="_Linear76" x1="0" y1="0" x2="1" y2="0" gradientUnits="userSpaceOnUse" gradientTransform="matrix(51.1707,0,0,51.1707,1804.59,495.085)"><stop offset="0" style="stop-color:rgb(0,172,0);stop-opacity:1"/><stop offset="1" style="stop-color:rgb(0,128,0);stop-opacity:1"/></linearGradient>
        <linearGradient id="_Linear77" x1="0" y1="0" x2="1" y2="0" gradientUnits="userSpaceOnUse" gradientTransform="matrix(38.2961,52.2805,-52.2805,38.2961,1751.44,466.127)"><stop offset="0" style="stop-color:rgb(0,172,0);stop-opacity:1"/><stop offset="1" style="stop-color:rgb(0,128,0);stop-opacity:1"/></linearGradient>
        <linearGradient id="_Linear78" x1="0" y1="0" x2="1" y2="0" gradientUnits="userSpaceOnUse" gradientTransform="matrix(16.962,36.3471,-36.3471,16.962,1759.4,468.581)"><stop offset="0" style="stop-color:rgb(0,172,0);stop-opacity:1"/><stop offset="1" style="stop-color:rgb(0,128,0);stop-opacity:1"/></linearGradient>
        <linearGradient id="_Linear79" x1="0" y1="0" x2="1" y2="0" gradientUnits="userSpaceOnUse" gradientTransform="matrix(38.4626,52.5079,-52.5079,38.4626,1748.24,468.331)"><stop offset="0" style="stop-color:rgb(0,172,0);stop-opacity:1"/><stop offset="1" style="stop-color:rgb(0,128,0);stop-opacity:1"/></linearGradient>
        <linearGradient id="_Linear80" x1="0" y1="0" x2="1" y2="0" gradientUnits="userSpaceOnUse" gradientTransform="matrix(10.0157,33.2779,-33.2779,10.0157,1757.46,457.581)"><stop offset="0" style="stop-color:rgb(0,172,0);stop-opacity:1"/><stop offset="1" style="stop-color:rgb(0,128,0);stop-opacity:1"/></linearGradient>
        <linearGradient id="_Linear81" x1="0" y1="0" x2="1" y2="0" gradientUnits="userSpaceOnUse" gradientTransform="matrix(11.308,26.9777,-26.9777,11.308,1758.7,461.632)"><stop offset="0" style="stop-color:rgb(0,172,0);stop-opacity:1"/><stop offset="1" style="stop-color:rgb(0,128,0);stop-opacity:1"/></linearGradient>
        <linearGradient id="_Linear82" x1="0" y1="0" x2="1" y2="0" gradientUnits="userSpaceOnUse" gradientTransform="matrix(8.56176,23.1006,-23.1006,8.56176,1749.86,431.227)"><stop offset="0" style="stop-color:rgb(0,172,0);stop-opacity:1"/><stop offset="1" style="stop-color:rgb(0,128,0);stop-opacity:1"/></linearGradient>
        <linearGradient id="_Linear83" x1="0" y1="0" x2="1" y2="0" gradientUnits="userSpaceOnUse" gradientTransform="matrix(4.33171e-09,96.4819,-96.4819,4.33171e-09,1793.68,387.516)"><stop offset="0" style="stop-color:rgb(91,161,10);stop-opacity:1"/><stop offset="1" style="stop-color:rgb(121,214,13);stop-opacity:1"/></linearGradient>
        <linearGradient id="_Linear84" x1="0" y1="0" x2="1" y2="0" gradientUnits="userSpaceOnUse" gradientTransform="matrix(4.33169e-09,96.4815,-96.4815,4.33169e-09,1791.14,426.771)"><stop offset="0" style="stop-color:rgb(91,161,10);stop-opacity:1"/><stop offset="1" style="stop-color:rgb(121,214,13);stop-opacity:1"/></linearGradient>
        <linearGradient id="_Linear85" x1="0" y1="0" x2="1" y2="0" gradientUnits="userSpaceOnUse" gradientTransform="matrix(2.80547e-09,-62.4874,62.4874,2.80547e-09,1805.01,500.172)"><stop offset="0" style="stop-color:rgb(91,161,10);stop-opacity:1"/><stop offset="1" style="stop-color:rgb(121,214,13);stop-opacity:1"/></linearGradient>
        <linearGradient id="_Linear86" x1="0" y1="0" x2="1" y2="0" gradientUnits="userSpaceOnUse" gradientTransform="matrix(4.3317e-09,96.4817,-96.4817,4.3317e-09,1789.19,450.033)"><stop offset="0" style="stop-color:rgb(91,161,10);stop-opacity:1"/><stop offset="1" style="stop-color:rgb(121,214,13);stop-opacity:1"/></linearGradient>
        <linearGradient id="_Linear87" x1="0" y1="0" x2="1" y2="0" gradientUnits="userSpaceOnUse" gradientTransform="matrix(4.3317e-09,96.4816,-96.4816,4.3317e-09,1788.8,426.771)"><stop offset="0" style="stop-color:rgb(91,161,10);stop-opacity:1"/><stop offset="1" style="stop-color:rgb(121,214,13);stop-opacity:1"/></linearGradient>
        <linearGradient id="_Linear88" x1="0" y1="0" x2="1" y2="0" gradientUnits="userSpaceOnUse" gradientTransform="matrix(4.3317e-09,96.4817,-96.4817,4.3317e-09,1788.91,455.364)"><stop offset="0" style="stop-color:rgb(91,161,10);stop-opacity:1"/><stop offset="1" style="stop-color:rgb(121,214,13);stop-opacity:1"/></linearGradient>
        <linearGradient id="_Linear89" x1="0" y1="0" x2="1" y2="0" gradientUnits="userSpaceOnUse" gradientTransform="matrix(2.80638e-09,-62.5076,62.5076,2.80638e-09,1799.2,515.858)"><stop offset="0" style="stop-color:rgb(91,161,10);stop-opacity:1"/><stop offset="1" style="stop-color:rgb(121,214,13);stop-opacity:1"/></linearGradient>
        <linearGradient id="_Linear90" x1="0" y1="0" x2="1" y2="0" gradientUnits="userSpaceOnUse" gradientTransform="matrix(2.80547e-09,-62.4873,62.4873,2.80547e-09,1809.43,501.788)"><stop offset="0" style="stop-color:rgb(91,161,10);stop-opacity:1"/><stop offset="1" style="stop-color:rgb(121,214,13);stop-opacity:1"/></linearGradient>
        <linearGradient id="_Linear91" x1="0" y1="0" x2="1" y2="0" gradientUnits="userSpaceOnUse" gradientTransform="matrix(2.80547e-09,-62.4875,62.4875,2.80547e-09,1816.42,532.319)"><stop offset="0" style="stop-color:rgb(91,161,10);stop-opacity:1"/><stop offset="1" style="stop-color:rgb(121,214,13);stop-opacity:1"/></linearGradient>
        <linearGradient id="_Linear92" x1="0" y1="0" x2="1" y2="0" gradientUnits="userSpaceOnUse" gradientTransform="matrix(2.80546e-09,-62.4872,62.4872,2.80546e-09,1809.36,530.3)"><stop offset="0" style="stop-color:rgb(91,161,10);stop-opacity:1"/><stop offset="1" style="stop-color:rgb(121,214,13);stop-opacity:1"/></linearGradient>
        <linearGradient id="_Linear93" x1="0" y1="0" x2="1" y2="0" gradientUnits="userSpaceOnUse" gradientTransform="matrix(2.80547e-09,-62.4873,62.4873,2.80547e-09,1808.66,510.672)"><stop offset="0" style="stop-color:rgb(91,161,10);stop-opacity:1"/><stop offset="1" style="stop-color:rgb(121,214,13);stop-opacity:1"/></linearGradient>
        <linearGradient id="_Linear94" x1="0" y1="0" x2="1" y2="0" gradientUnits="userSpaceOnUse" gradientTransform="matrix(2.1636e-09,48.1906,-48.1906,2.1636e-09,1799.23,510.201)"><stop offset="0" style="stop-color:rgb(255,221,56);stop-opacity:1"/><stop offset="0.7" style="stop-color:rgb(251,75,94);stop-opacity:1"/><stop offset="1" style="stop-color:rgb(237,49,126);stop-opacity:1"/></linearGradient>
        <linearGradient id="_Linear95" x1="0" y1="0" x2="1" y2="0" gradientUnits="userSpaceOnUse" gradientTransform="matrix(6.51135e-11,-14.503,14.503,6.51135e-11,1766.16,527.706)"><stop offset="0" style="stop-color:rgb(255,221,56);stop-opacity:1"/><stop offset="0.7" style="stop-color:rgb(251,75,94);stop-opacity:1"/><stop offset="1" style="stop-color:rgb(237,49,126);stop-opacity:1"/></linearGradient>
        <linearGradient id="_Linear96" x1="0" y1="0" x2="1" y2="0" gradientUnits="userSpaceOnUse" gradientTransform="matrix(1.43437e-09,-31.9483,31.9483,1.43437e-09,1825.1,543.538)"><stop offset="0" style="stop-color:rgb(255,221,56);stop-opacity:1"/><stop offset="0.7" style="stop-color:rgb(251,75,94);stop-opacity:1"/><stop offset="1" style="stop-color:rgb(237,49,126);stop-opacity:1"/></linearGradient>
        <linearGradient id="_Linear97" x1="0" y1="0" x2="1" y2="0" gradientUnits="userSpaceOnUse" gradientTransform="matrix(9.98118e-11,-22.2315,22.2315,9.98118e-11,1792.71,534.72)"><stop offset="0" style="stop-color:rgb(255,221,56);stop-opacity:1"/><stop offset="0.7" style="stop-color:rgb(251,75,94);stop-opacity:1"/><stop offset="1" style="stop-color:rgb(237,49,126);stop-opacity:1"/></linearGradient>
        <linearGradient id="_Linear98" x1="0" y1="0" x2="1" y2="0" gradientUnits="userSpaceOnUse" gradientTransform="matrix(1.55267e-09,-34.5831,34.5831,1.55267e-09,1765.07,551.483)"><stop offset="0" style="stop-color:rgb(255,221,56);stop-opacity:1"/><stop offset="0.7" style="stop-color:rgb(251,75,94);stop-opacity:1"/><stop offset="1" style="stop-color:rgb(237,49,126);stop-opacity:1"/></linearGradient>
        <linearGradient id="_Linear99" x1="0" y1="0" x2="1" y2="0" gradientUnits="userSpaceOnUse" gradientTransform="matrix(1.86933e-09,-41.6363,41.6363,1.86933e-09,1762.65,566.855)"><stop offset="0" style="stop-color:rgb(255,221,56);stop-opacity:1"/><stop offset="0.7" style="stop-color:rgb(251,75,94);stop-opacity:1"/><stop offset="1" style="stop-color:rgb(237,49,126);stop-opacity:1"/></linearGradient>
        <linearGradient id="_Linear100" x1="0" y1="0" x2="1" y2="0" gradientUnits="userSpaceOnUse" gradientTransform="matrix(2.48945e-09,-55.4484,55.4484,2.48945e-09,1786.7,574.207)"><stop offset="0" style="stop-color:rgb(255,221,56);stop-opacity:1"/><stop offset="0.7" style="stop-color:rgb(251,75,94);stop-opacity:1"/><stop offset="1" style="stop-color:rgb(237,49,126);stop-opacity:1"/></linearGradient>
        <linearGradient id="_Linear101" x1="0" y1="0" x2="1" y2="0" gradientUnits="userSpaceOnUse" gradientTransform="matrix(2.14246e-09,-47.7199,47.7199,2.14246e-09,1817.23,572.17)"><stop offset="0" style="stop-color:rgb(255,221,56);stop-opacity:1"/><stop offset="0.7" style="stop-color:rgb(251,75,94);stop-opacity:1"/><stop offset="1" style="stop-color:rgb(237,49,126);stop-opacity:1"/></linearGradient>
        <linearGradient id="_Linear102" x1="0" y1="0" x2="1" y2="0" gradientUnits="userSpaceOnUse" gradientTransform="matrix(1.20081e-09,-26.7461,26.7461,1.20081e-09,1774.32,566.643)"><stop offset="0" style="stop-color:rgb(255,221,56);stop-opacity:1"/><stop offset="0.7" style="stop-color:rgb(251,75,94);stop-opacity:1"/><stop offset="1" style="stop-color:rgb(237,49,126);stop-opacity:1"/></linearGradient>
        <linearGradient id="_Linear103" x1="0" y1="0" x2="1" y2="0" gradientUnits="userSpaceOnUse" gradientTransform="matrix(23.1549,0,0,23.1549,1806.86,288.981)"><stop offset="0" style="stop-color:rgb(66,226,151);stop-opacity:1"/><stop offset="1" style="stop-color:rgb(59,182,181);stop-opacity:1"/></linearGradient>
        <linearGradient id="_Linear104" x1="0" y1="0" x2="1" y2="0" gradientUnits="userSpaceOnUse" gradientTransform="matrix(5.47218,2.52307,-2.52307,5.47218,1798.53,306.842)"><stop offset="0" style="stop-color:rgb(66,226,151);stop-opacity:1"/><stop offset="1" style="stop-color:rgb(59,182,181);stop-opacity:1"/></linearGradient>
        <linearGradient id="_Linear105" x1="0" y1="0" x2="1" y2="0" gradientUnits="userSpaceOnUse" gradientTransform="matrix(8.23146,3.7953,-3.7953,8.23146,1792.46,309.389)"><stop offset="0" style="stop-color:rgb(66,226,151);stop-opacity:1"/><stop offset="1" style="stop-color:rgb(59,182,181);stop-opacity:1"/></linearGradient>
        <linearGradient id="_Linear106" x1="0" y1="0" x2="1" y2="0" gradientUnits="userSpaceOnUse" gradientTransform="matrix(15.7185,0,0,15.7185,1794.81,301.442)"><stop offset="0" style="stop-color:rgb(66,226,151);stop-opacity:1"/><stop offset="1" style="stop-color:rgb(59,182,181);stop-opacity:1"/></linearGradient>
        <linearGradient id="_Linear107" x1="0" y1="0" x2="1" y2="0" gradientUnits="userSpaceOnUse" gradientTransform="matrix(-14.0838,-6.49367,6.49367,-14.0838,1812.67,298.387)"><stop offset="0" style="stop-color:rgb(66,226,151);stop-opacity:1"/><stop offset="1" style="stop-color:rgb(59,182,181);stop-opacity:1"/></linearGradient>
        <linearGradient id="_Linear108" x1="0" y1="0" x2="1" y2="0" gradientUnits="userSpaceOnUse" gradientTransform="matrix(6.62035,3.05246,-3.05246,6.62035,1827.66,225.281)"><stop offset="0" style="stop-color:rgb(66,226,151);stop-opacity:1"/><stop offset="1" style="stop-color:rgb(59,182,181);stop-opacity:1"/></linearGradient>
        <linearGradient id="_Linear109" x1="0" y1="0" x2="1" y2="0" gradientUnits="userSpaceOnUse" gradientTransform="matrix(-36.9329,80.1021,-80.1021,-36.9329,1836.63,227.072)"><stop offset="0" style="stop-color:rgb(66,226,151);stop-opacity:1"/><stop offset="1" style="stop-color:rgb(59,182,181);stop-opacity:1"/></linearGradient>
    </defs>
</svg>
