<?xml version="1.0" encoding="UTF-8" standalone="no"?>
<!DOCTYPE svg PUBLIC "-//W3C//DTD SVG 1.1//EN" "http://www.w3.org/Graphics/SVG/1.1/DTD/svg11.dtd">
<svg width="100%" height="100%" viewBox="0 0 82 40" version="1.1" xmlns="http://www.w3.org/2000/svg" xmlns:xlink="http://www.w3.org/1999/xlink" xml:space="preserve" xmlns:serif="http://www.serif.com/" style="fill-rule:evenodd;clip-rule:evenodd;stroke-linejoin:round;stroke-miterlimit:2;">
    <g transform="matrix(0.08603,0,0,0.08603,1.44611e-13,-4.25611)">
        <path d="M514.905,49.472L944.002,50.79L903.453,360.244L639.519,371.484L560.937,468.849L573.805,374.816L511.98,373.575L514.905,49.472Z" style="fill:rgb(4,157,217);"/>
    </g>
    <g transform="matrix(0.343829,0,0,0.343829,-57.4092,-90.6866)">
        <path d="M198.805,349.021C180.504,338.017 166.97,321.007 166.97,304.636C166.97,277.793 203.343,263.754 237.48,263.754C271.617,263.754 301.71,299.016 307.086,325.315C312.808,353.302 277.383,362.18 237.48,361.026C229.605,360.799 221.609,359.102 213.968,356.298L213.14,379.484L198.805,349.021Z" style="fill:rgb(242,29,47);"/>
    </g>
    <g transform="matrix(0.08603,0,0,0.08603,1.04851e-13,-4.25611)">
        <path d="M542.185,374.181L511.98,373.575L513.617,192.145C537.003,226.51 553.295,262.747 559.992,295.505C566.596,327.809 559.484,353.743 542.185,374.181Z" style="fill:rgb(3,76,140);"/>
    </g>
    <g transform="matrix(0.550349,0,0,0.590301,-73.5227,-135.788)">
        <path d="M166.312,252.394L171.57,252.394C171.57,249.187 173.781,247.355 177.27,247.355C180.808,247.355 182.92,249.325 182.92,252.532C182.92,257.342 178.645,258.258 173.093,258.258L171.471,258.258L171.717,265.45L176.582,265.45L176.778,261.831C183.363,261.831 188.276,258.991 188.276,252.532C188.276,246.576 183.805,242.957 177.22,242.957C170.538,242.957 166.263,246.851 166.312,252.394ZM177.614,272.231C177.614,270.352 176.041,268.886 174.076,268.886C172.061,268.886 170.489,270.352 170.489,272.231C170.489,274.109 172.061,275.575 174.076,275.575C176.041,275.575 177.614,274.109 177.614,272.231Z" style="fill:white;fill-rule:nonzero;"/>
    </g>
    <g transform="matrix(0.08603,0,0,0.08603,1.09269e-13,-4.25611)">
        <path d="M514.876,49.472L944.002,50.766L903.14,360.922L640.332,371.435L561.295,468.849L574.143,374.549L511.98,374.277L514.876,49.472Z" style="fill:none;"/>
    </g>
    <g transform="matrix(0.422744,0,0,0.493387,-12.4283,-113.499)">
        <path d="M162.915,251.233L169.76,251.233C169.76,247.397 172.639,245.204 177.181,245.204C181.786,245.204 184.537,247.561 184.537,251.398C184.537,257.153 178.972,258.249 171.743,258.249L169.632,258.249L169.952,266.854L176.285,266.854L176.541,262.524C185.113,262.524 191.51,259.126 191.51,251.398C191.51,244.272 185.689,239.942 177.117,239.942C168.417,239.942 162.851,244.601 162.915,251.233ZM177.628,274.966C177.628,272.719 175.581,270.965 173.023,270.965C170.4,270.965 168.353,272.719 168.353,274.966C168.353,277.213 170.4,278.967 173.023,278.967C175.581,278.967 177.628,277.213 177.628,274.966Z" style="fill:white;fill-rule:nonzero;"/>
    </g>
</svg>
